<?xml version="1.0" encoding="utf-8" standalone="no"?>
<!DOCTYPE svg PUBLIC "-//W3C//DTD SVG 1.1//EN"
  "http://www.w3.org/Graphics/SVG/1.1/DTD/svg11.dtd">
<svg xmlns:xlink="http://www.w3.org/1999/xlink" width="412.523001pt" height="251.99625pt" viewBox="0 0 412.523001 251.99625" xmlns="http://www.w3.org/2000/svg" version="1.1">
 <metadata>
  <rdf:RDF xmlns:dc="http://purl.org/dc/elements/1.1/" xmlns:cc="http://creativecommons.org/ns#" xmlns:rdf="http://www.w3.org/1999/02/22-rdf-syntax-ns#">
   <cc:Work>
    <dc:type rdf:resource="http://purl.org/dc/dcmitype/StillImage"/>
    <dc:date>2023-09-07T00:52:58.567483</dc:date>
    <dc:format>image/svg+xml</dc:format>
    <dc:creator>
     <cc:Agent>
      <dc:title>Matplotlib v3.7.2, https://matplotlib.org/</dc:title>
     </cc:Agent>
    </dc:creator>
   </cc:Work>
  </rdf:RDF>
 </metadata>
 <defs>
  <style type="text/css">*{stroke-linejoin: round; stroke-linecap: butt}</style>
 </defs>
 <g id="figure_1">
  <g id="patch_1">
   <path d="M 0 251.99625 
L 412.523001 251.99625 
L 412.523001 0 
L 0 0 
L 0 251.99625 
z
" style="fill: none"/>
  </g>
  <g id="axes_1">
   <g id="patch_2">
    <path d="M 20.878125 231.118125 
L 405.323001 231.118125 
L 405.323001 22.318125 
L 20.878125 22.318125 
L 20.878125 231.118125 
z
" style="fill: none"/>
   </g>
   <g id="patch_3">
    <path d="M 387.848234 231.118125 
L 370.607561 236.338125 
L 375.779763 231.234791 
L 43.034776 231.234791 
L 43.034776 231.001459 
L 375.779763 231.001459 
L 370.607561 225.898125 
z
" style="stroke: #000000; stroke-linejoin: miter"/>
   </g>
   <g id="patch_4">
    <path d="M 43.034776 22.318125 
L 47.71666 41.540369 
L 43.035121 35.773696 
L 43.035121 231.118125 
L 43.034431 231.118125 
L 43.034431 35.773696 
L 38.352892 41.540369 
z
" style="stroke: #000000; stroke-linejoin: miter"/>
   </g>
   <g id="matplotlib.axis_1">
    <g id="text_1">
     <!-- Time (ms) -->
     <g transform="translate(187.901344 242.716563) scale(0.1 -0.1)">
      <defs>
       <path id="DejaVuSans-54" d="M -19 4666 
L 3928 4666 
L 3928 4134 
L 2272 4134 
L 2272 0 
L 1638 0 
L 1638 4134 
L -19 4134 
L -19 4666 
z
" transform="scale(0.015625)"/>
       <path id="DejaVuSans-69" d="M 603 3500 
L 1178 3500 
L 1178 0 
L 603 0 
L 603 3500 
z
M 603 4863 
L 1178 4863 
L 1178 4134 
L 603 4134 
L 603 4863 
z
" transform="scale(0.015625)"/>
       <path id="DejaVuSans-6d" d="M 3328 2828 
Q 3544 3216 3844 3400 
Q 4144 3584 4550 3584 
Q 5097 3584 5394 3201 
Q 5691 2819 5691 2113 
L 5691 0 
L 5113 0 
L 5113 2094 
Q 5113 2597 4934 2840 
Q 4756 3084 4391 3084 
Q 3944 3084 3684 2787 
Q 3425 2491 3425 1978 
L 3425 0 
L 2847 0 
L 2847 2094 
Q 2847 2600 2669 2842 
Q 2491 3084 2119 3084 
Q 1678 3084 1418 2786 
Q 1159 2488 1159 1978 
L 1159 0 
L 581 0 
L 581 3500 
L 1159 3500 
L 1159 2956 
Q 1356 3278 1631 3431 
Q 1906 3584 2284 3584 
Q 2666 3584 2933 3390 
Q 3200 3197 3328 2828 
z
" transform="scale(0.015625)"/>
       <path id="DejaVuSans-65" d="M 3597 1894 
L 3597 1613 
L 953 1613 
Q 991 1019 1311 708 
Q 1631 397 2203 397 
Q 2534 397 2845 478 
Q 3156 559 3463 722 
L 3463 178 
Q 3153 47 2828 -22 
Q 2503 -91 2169 -91 
Q 1331 -91 842 396 
Q 353 884 353 1716 
Q 353 2575 817 3079 
Q 1281 3584 2069 3584 
Q 2775 3584 3186 3129 
Q 3597 2675 3597 1894 
z
M 3022 2063 
Q 3016 2534 2758 2815 
Q 2500 3097 2075 3097 
Q 1594 3097 1305 2825 
Q 1016 2553 972 2059 
L 3022 2063 
z
" transform="scale(0.015625)"/>
       <path id="DejaVuSans-20" transform="scale(0.015625)"/>
       <path id="DejaVuSans-28" d="M 1984 4856 
Q 1566 4138 1362 3434 
Q 1159 2731 1159 2009 
Q 1159 1288 1364 580 
Q 1569 -128 1984 -844 
L 1484 -844 
Q 1016 -109 783 600 
Q 550 1309 550 2009 
Q 550 2706 781 3412 
Q 1013 4119 1484 4856 
L 1984 4856 
z
" transform="scale(0.015625)"/>
       <path id="DejaVuSans-73" d="M 2834 3397 
L 2834 2853 
Q 2591 2978 2328 3040 
Q 2066 3103 1784 3103 
Q 1356 3103 1142 2972 
Q 928 2841 928 2578 
Q 928 2378 1081 2264 
Q 1234 2150 1697 2047 
L 1894 2003 
Q 2506 1872 2764 1633 
Q 3022 1394 3022 966 
Q 3022 478 2636 193 
Q 2250 -91 1575 -91 
Q 1294 -91 989 -36 
Q 684 19 347 128 
L 347 722 
Q 666 556 975 473 
Q 1284 391 1588 391 
Q 1994 391 2212 530 
Q 2431 669 2431 922 
Q 2431 1156 2273 1281 
Q 2116 1406 1581 1522 
L 1381 1569 
Q 847 1681 609 1914 
Q 372 2147 372 2553 
Q 372 3047 722 3315 
Q 1072 3584 1716 3584 
Q 2034 3584 2315 3537 
Q 2597 3491 2834 3397 
z
" transform="scale(0.015625)"/>
       <path id="DejaVuSans-29" d="M 513 4856 
L 1013 4856 
Q 1481 4119 1714 3412 
Q 1947 2706 1947 2009 
Q 1947 1309 1714 600 
Q 1481 -109 1013 -844 
L 513 -844 
Q 928 -128 1133 580 
Q 1338 1288 1338 2009 
Q 1338 2731 1133 3434 
Q 928 4138 513 4856 
z
" transform="scale(0.015625)"/>
      </defs>
      <use xlink:href="#DejaVuSans-54"/>
      <use xlink:href="#DejaVuSans-69" x="57.958984"/>
      <use xlink:href="#DejaVuSans-6d" x="85.742188"/>
      <use xlink:href="#DejaVuSans-65" x="183.154297"/>
      <use xlink:href="#DejaVuSans-20" x="244.677734"/>
      <use xlink:href="#DejaVuSans-28" x="276.464844"/>
      <use xlink:href="#DejaVuSans-6d" x="315.478516"/>
      <use xlink:href="#DejaVuSans-73" x="412.890625"/>
      <use xlink:href="#DejaVuSans-29" x="464.990234"/>
     </g>
    </g>
   </g>
   <g id="matplotlib.axis_2">
    <g id="text_2">
     <!-- log-Intensity -->
     <g transform="translate(14.798438 157.907187) rotate(-90) scale(0.1 -0.1)">
      <defs>
       <path id="DejaVuSans-6c" d="M 603 4863 
L 1178 4863 
L 1178 0 
L 603 0 
L 603 4863 
z
" transform="scale(0.015625)"/>
       <path id="DejaVuSans-6f" d="M 1959 3097 
Q 1497 3097 1228 2736 
Q 959 2375 959 1747 
Q 959 1119 1226 758 
Q 1494 397 1959 397 
Q 2419 397 2687 759 
Q 2956 1122 2956 1747 
Q 2956 2369 2687 2733 
Q 2419 3097 1959 3097 
z
M 1959 3584 
Q 2709 3584 3137 3096 
Q 3566 2609 3566 1747 
Q 3566 888 3137 398 
Q 2709 -91 1959 -91 
Q 1206 -91 779 398 
Q 353 888 353 1747 
Q 353 2609 779 3096 
Q 1206 3584 1959 3584 
z
" transform="scale(0.015625)"/>
       <path id="DejaVuSans-67" d="M 2906 1791 
Q 2906 2416 2648 2759 
Q 2391 3103 1925 3103 
Q 1463 3103 1205 2759 
Q 947 2416 947 1791 
Q 947 1169 1205 825 
Q 1463 481 1925 481 
Q 2391 481 2648 825 
Q 2906 1169 2906 1791 
z
M 3481 434 
Q 3481 -459 3084 -895 
Q 2688 -1331 1869 -1331 
Q 1566 -1331 1297 -1286 
Q 1028 -1241 775 -1147 
L 775 -588 
Q 1028 -725 1275 -790 
Q 1522 -856 1778 -856 
Q 2344 -856 2625 -561 
Q 2906 -266 2906 331 
L 2906 616 
Q 2728 306 2450 153 
Q 2172 0 1784 0 
Q 1141 0 747 490 
Q 353 981 353 1791 
Q 353 2603 747 3093 
Q 1141 3584 1784 3584 
Q 2172 3584 2450 3431 
Q 2728 3278 2906 2969 
L 2906 3500 
L 3481 3500 
L 3481 434 
z
" transform="scale(0.015625)"/>
       <path id="DejaVuSans-2d" d="M 313 2009 
L 1997 2009 
L 1997 1497 
L 313 1497 
L 313 2009 
z
" transform="scale(0.015625)"/>
       <path id="DejaVuSans-49" d="M 628 4666 
L 1259 4666 
L 1259 0 
L 628 0 
L 628 4666 
z
" transform="scale(0.015625)"/>
       <path id="DejaVuSans-6e" d="M 3513 2113 
L 3513 0 
L 2938 0 
L 2938 2094 
Q 2938 2591 2744 2837 
Q 2550 3084 2163 3084 
Q 1697 3084 1428 2787 
Q 1159 2491 1159 1978 
L 1159 0 
L 581 0 
L 581 3500 
L 1159 3500 
L 1159 2956 
Q 1366 3272 1645 3428 
Q 1925 3584 2291 3584 
Q 2894 3584 3203 3211 
Q 3513 2838 3513 2113 
z
" transform="scale(0.015625)"/>
       <path id="DejaVuSans-74" d="M 1172 4494 
L 1172 3500 
L 2356 3500 
L 2356 3053 
L 1172 3053 
L 1172 1153 
Q 1172 725 1289 603 
Q 1406 481 1766 481 
L 2356 481 
L 2356 0 
L 1766 0 
Q 1100 0 847 248 
Q 594 497 594 1153 
L 594 3053 
L 172 3053 
L 172 3500 
L 594 3500 
L 594 4494 
L 1172 4494 
z
" transform="scale(0.015625)"/>
       <path id="DejaVuSans-79" d="M 2059 -325 
Q 1816 -950 1584 -1140 
Q 1353 -1331 966 -1331 
L 506 -1331 
L 506 -850 
L 844 -850 
Q 1081 -850 1212 -737 
Q 1344 -625 1503 -206 
L 1606 56 
L 191 3500 
L 800 3500 
L 1894 763 
L 2988 3500 
L 3597 3500 
L 2059 -325 
z
" transform="scale(0.015625)"/>
      </defs>
      <use xlink:href="#DejaVuSans-6c"/>
      <use xlink:href="#DejaVuSans-6f" x="27.783203"/>
      <use xlink:href="#DejaVuSans-67" x="88.964844"/>
      <use xlink:href="#DejaVuSans-2d" x="152.441406"/>
      <use xlink:href="#DejaVuSans-49" x="188.525391"/>
      <use xlink:href="#DejaVuSans-6e" x="218.017578"/>
      <use xlink:href="#DejaVuSans-74" x="281.396484"/>
      <use xlink:href="#DejaVuSans-65" x="320.605469"/>
      <use xlink:href="#DejaVuSans-6e" x="382.128906"/>
      <use xlink:href="#DejaVuSans-73" x="445.507812"/>
      <use xlink:href="#DejaVuSans-69" x="497.607422"/>
      <use xlink:href="#DejaVuSans-74" x="525.390625"/>
      <use xlink:href="#DejaVuSans-79" x="564.599609"/>
     </g>
    </g>
   </g>
   <g id="line2d_1">
    <path d="M 43.034776 87.289501 
L 43.724403 75.246133 
L 44.41403 61.211861 
L 45.103657 54.182367 
L 45.793284 51.951104 
L 46.48291 50.88876 
L 47.862164 47.209687 
L 48.551791 46.672047 
L 49.241418 47.685456 
L 49.931045 49.259081 
L 50.620672 50.011247 
L 51.310299 49.872335 
L 51.999926 49.300722 
L 52.689553 48.988312 
L 54.068807 49.924321 
L 54.758433 49.842564 
L 56.137687 51.474042 
L 56.827314 50.882335 
L 57.516941 49.997395 
L 58.206568 49.682084 
L 58.896195 50.693971 
L 59.585822 53.416634 
L 60.275449 56.809159 
L 60.965076 58.421723 
L 61.654703 57.206106 
L 62.34433 55.340279 
L 63.033956 54.973374 
L 63.723583 55.1552 
L 64.41321 54.558863 
L 65.102837 52.843953 
L 65.792464 52.479846 
L 66.482091 57.456549 
L 67.171718 68.507061 
L 67.861345 73.598806 
L 68.550972 62.22997 
L 69.240599 47.351993 
L 69.930226 40.10471 
L 70.619853 38.291124 
L 71.309479 38.76451 
L 71.999106 40.152625 
L 74.067987 43.217242 
L 74.757614 43.620262 
L 75.447241 43.150635 
L 76.136868 42.841474 
L 76.826495 43.574729 
L 77.516122 43.718815 
L 78.205749 42.395467 
L 78.895376 41.419046 
L 79.585002 41.814082 
L 80.274629 44.842131 
L 80.964256 52.685755 
L 83.033137 88.490928 
L 83.722764 94.419624 
L 84.412391 96.032272 
L 85.102018 94.583166 
L 85.791645 92.040681 
L 86.481272 90.546165 
L 87.170899 92.004569 
L 87.860525 95.979474 
L 89.929406 111.583165 
L 90.619033 113.368612 
L 91.30866 110.249021 
L 91.998287 104.736364 
L 92.687914 100.776863 
L 93.377541 95.118709 
L 94.067168 86.82412 
L 94.756795 82.35522 
L 95.446421 84.515921 
L 96.136048 90.430798 
L 96.825675 101.126697 
L 97.515302 113.877755 
L 98.204929 122.172349 
L 98.894556 125.050135 
L 99.584183 124.946501 
L 100.963437 122.894496 
L 101.653064 122.363755 
L 102.342691 122.731808 
L 103.032318 123.706741 
L 105.101198 123.964653 
L 105.790825 124.094132 
L 106.480452 123.908327 
L 107.170079 123.899953 
L 109.23896 124.472747 
L 109.928587 124.757322 
L 111.997467 124.952168 
L 112.687094 125.722927 
L 113.376721 126.111054 
L 114.066348 123.610106 
L 114.755975 115.803587 
L 116.135229 88.350489 
L 116.824856 78.638209 
L 117.514483 73.166261 
L 118.20411 70.679978 
L 118.893737 70.483121 
L 119.583364 72.222193 
L 120.27299 75.092142 
L 120.962617 77.188107 
L 121.652244 77.694853 
L 122.341871 76.704798 
L 123.721125 73.072903 
L 125.100379 67.73551 
L 125.790006 66.619164 
L 126.479633 67.278221 
L 127.16926 68.977474 
L 127.858887 69.981805 
L 128.548513 68.044997 
L 129.23814 62.494365 
L 129.927767 55.178613 
L 130.617394 50.353849 
L 131.307021 49.481479 
L 131.996648 51.987932 
L 132.686275 55.805793 
L 133.375902 58.269537 
L 134.755156 60.705509 
L 135.444783 61.953059 
L 136.13441 62.700784 
L 136.824036 63.150464 
L 137.513663 63.918806 
L 138.20329 64.965521 
L 138.892917 65.17996 
L 139.582544 63.088793 
L 142.341052 47.011323 
L 143.030679 46.431056 
L 143.720306 49.057269 
L 144.409932 52.592036 
L 145.099559 55.542212 
L 145.789186 57.989574 
L 147.16844 63.467702 
L 147.858067 65.158428 
L 148.547694 66.115594 
L 149.237321 65.414385 
L 149.926948 61.43968 
L 150.616575 55.35686 
L 151.306202 50.276763 
L 151.995829 49.210319 
L 152.685455 51.927073 
L 154.064709 61.807994 
L 154.754336 64.066159 
L 155.443963 62.960334 
L 156.13359 61.236463 
L 156.823217 62.123727 
L 157.512844 65.253529 
L 158.892098 72.89473 
L 159.581725 74.942374 
L 160.271352 74.301252 
L 160.960978 70.513072 
L 162.340232 58.435372 
L 163.029859 54.050739 
L 163.719486 51.517878 
L 164.409113 50.646684 
L 165.09874 50.672405 
L 166.477994 49.999379 
L 167.167621 49.806483 
L 168.546875 48.363636 
L 169.236501 49.099893 
L 170.615755 54.072582 
L 171.305382 56.436657 
L 171.995009 57.780414 
L 172.684636 58.173892 
L 173.374263 59.488141 
L 175.443144 67.277886 
L 176.132771 68.21856 
L 176.822398 68.450479 
L 177.512024 69.185859 
L 179.580905 72.98275 
L 180.270532 73.639692 
L 180.960159 73.753326 
L 183.02904 73.355174 
L 183.718667 72.594606 
L 184.408294 70.924229 
L 185.097921 68.276286 
L 185.787547 65.076022 
L 186.477174 62.939172 
L 187.166801 62.445735 
L 187.856428 62.667063 
L 188.546055 62.463251 
L 189.235682 62.122375 
L 189.925309 63.17386 
L 190.614936 65.295796 
L 191.304563 66.846427 
L 191.99419 67.453231 
L 192.683817 68.256699 
L 193.373443 68.587779 
L 194.06307 67.699843 
L 194.752697 66.381923 
L 195.442324 65.654771 
L 197.511205 66.175546 
L 198.200832 66.470665 
L 198.890459 67.094894 
L 199.580086 68.954022 
L 201.648966 79.437357 
L 202.338593 81.110232 
L 203.02822 81.334566 
L 203.717847 80.329405 
L 204.407474 78.811005 
L 205.097101 76.573151 
L 206.476355 71.032308 
L 208.545236 65.344595 
L 209.234863 64.404475 
L 209.924489 63.671101 
L 211.303743 60.62335 
L 212.682997 56.693446 
L 213.372624 55.203221 
L 214.062251 53.426635 
L 215.441505 48.706084 
L 216.131132 47.71168 
L 216.820759 48.258304 
L 217.510386 48.569219 
L 218.200012 48.262519 
L 219.579266 48.427141 
L 221.648147 49.835623 
L 223.027401 51.399685 
L 223.717028 51.80205 
L 224.406655 51.329625 
L 225.096282 49.835364 
L 225.785909 48.647183 
L 226.475535 49.918166 
L 227.854789 55.342792 
L 228.544416 57.289606 
L 229.234043 60.503215 
L 229.92367 66.830693 
L 230.613297 74.409482 
L 231.302924 79.88945 
L 232.682178 87.842908 
L 233.371805 90.329403 
L 234.061431 88.828768 
L 234.751058 83.831657 
L 235.440685 76.665824 
L 236.130312 71.737581 
L 236.819939 71.031614 
L 237.509566 72.969089 
L 238.88882 79.984741 
L 239.578447 81.703205 
L 240.268074 81.062643 
L 240.957701 79.200662 
L 242.336954 74.511707 
L 243.026581 72.850454 
L 243.716208 71.797868 
L 244.405835 71.748792 
L 245.095462 72.709932 
L 246.474716 75.248822 
L 247.164343 75.398382 
L 247.85397 74.128312 
L 248.543597 73.398417 
L 249.233224 73.311649 
L 249.922851 74.013127 
L 250.612477 76.03392 
L 251.302104 79.881604 
L 251.991731 84.571982 
L 252.681358 88.311677 
L 253.370985 89.124415 
L 254.060612 87.304884 
L 254.750239 85.115788 
L 255.439866 83.644778 
L 256.129493 83.628107 
L 257.508747 86.580025 
L 258.198374 86.560232 
L 258.888 84.057396 
L 259.577627 80.683521 
L 260.267254 77.897402 
L 261.646508 74.372308 
L 262.336135 73.79076 
L 263.025762 76.02574 
L 263.715389 81.995599 
L 264.405016 89.604756 
L 265.094643 93.957134 
L 265.78427 92.768894 
L 267.163523 83.472114 
L 267.85315 80.000974 
L 268.542777 78.449219 
L 269.232404 78.566546 
L 269.922031 79.015305 
L 270.611658 79.12397 
L 271.301285 78.695962 
L 271.990912 77.919295 
L 272.680539 76.793731 
L 274.059793 74.174269 
L 274.74942 73.458353 
L 275.439046 73.310993 
L 276.128673 73.348681 
L 276.8183 73.530239 
L 277.507927 73.864736 
L 278.197554 75.006498 
L 278.887181 76.778162 
L 279.576808 77.664445 
L 280.266435 77.802205 
L 281.645689 77.127129 
L 282.335316 77.334401 
L 283.714569 78.815343 
L 284.404196 78.307882 
L 285.78345 75.802669 
L 286.473077 74.016103 
L 288.541958 67.838975 
L 289.231585 67.457567 
L 289.921212 68.352635 
L 290.610839 69.557472 
L 291.990092 71.41233 
L 294.058973 76.096647 
L 294.7486 76.256475 
L 296.127854 74.540336 
L 296.817481 74.464726 
L 297.507108 74.966566 
L 298.196735 75.628649 
L 298.886362 76.092302 
L 299.575988 76.256769 
L 300.265615 76.620018 
L 300.955242 77.274652 
L 301.644869 78.316527 
L 302.334496 80.189295 
L 303.71375 84.91819 
L 304.403377 86.422232 
L 305.093004 87.270868 
L 305.782631 87.715145 
L 306.472258 87.7301 
L 307.161885 87.154751 
L 307.851511 85.32673 
L 308.541138 79.444101 
L 309.920392 55.719693 
L 310.610019 48.63983 
L 311.989273 41.893339 
L 312.6789 38.675243 
L 313.368527 38.02521 
L 314.058154 40.410456 
L 314.747781 44.646086 
L 315.437408 46.630572 
L 316.816661 45.930897 
L 317.506288 45.280533 
L 318.885542 41.83218 
L 320.264796 37.705827 
L 320.954423 37.948639 
L 322.333677 43.236956 
L 323.023304 44.676835 
L 323.712931 44.684205 
L 324.402557 43.937257 
L 325.092184 41.509778 
L 325.781811 38.283217 
L 326.471438 36.687085 
L 327.161065 36.49304 
L 327.850692 36.181125 
L 328.540319 37.643016 
L 329.229946 40.605478 
L 329.919573 41.480668 
L 330.6092 39.621106 
L 331.298827 36.679875 
L 331.988453 34.619846 
L 332.67808 33.799534 
L 333.367707 34.54491 
L 334.057334 36.418911 
L 335.436588 40.752807 
L 336.126215 41.828936 
L 336.815842 41.186594 
L 337.505469 39.510805 
L 338.195096 38.612119 
L 339.57435 38.768951 
L 340.263976 38.243748 
L 340.953603 37.161155 
L 341.64323 35.789972 
L 342.332857 34.817076 
L 343.022484 35.31085 
L 343.712111 37.036279 
L 344.401738 38.147843 
L 345.091365 38.590264 
L 345.780992 38.888519 
L 346.470619 37.500744 
L 347.160246 35.509373 
L 347.849873 35.195079 
L 348.539499 36.777397 
L 350.60838 45.869403 
L 351.298007 46.815894 
L 351.987634 45.814732 
L 352.677261 42.181852 
L 353.366888 37.225203 
L 354.056515 34.847277 
L 354.746142 35.568302 
L 355.435769 36.687173 
L 356.125396 35.931598 
L 356.815022 35.401547 
L 358.194276 35.525293 
L 358.883903 36.292903 
L 359.57353 39.204622 
L 360.263157 41.061391 
L 360.952784 41.135826 
L 361.642411 40.651822 
L 362.332038 39.906504 
L 363.021665 39.917631 
L 364.400919 43.791988 
L 365.090545 44.002382 
L 365.780172 41.287118 
L 366.469799 37.190364 
L 367.159426 34.203568 
L 367.849053 32.871186 
L 368.53868 32.402959 
L 369.228307 33.022672 
L 369.917934 35.076282 
L 370.607561 38.24388 
L 371.297188 40.852245 
L 371.986815 41.710815 
L 373.366068 40.93821 
L 374.055695 41.674644 
L 374.745322 41.851143 
L 375.434949 40.815163 
L 376.124576 40.590874 
L 376.814203 41.195385 
L 377.50383 41.091024 
L 378.193457 42.334584 
L 378.883084 44.827558 
L 379.572711 46.369839 
L 380.262338 46.089932 
L 380.951964 44.540553 
L 381.641591 41.233108 
L 382.331218 36.062963 
L 383.020845 32.260982 
L 383.710472 32.648326 
L 385.089726 37.036606 
L 386.46898 44.916574 
L 387.158607 44.922453 
L 387.158607 44.922453 
" clip-path="url(#p07bfb04d4f)" style="fill: none; stroke: #1f77b4; stroke-width: 1.5; stroke-linecap: square"/>
   </g>
   <g id="text_3">
    <!-- Analog signal -->
    <g transform="translate(172.714938 16.318125) scale(0.12 -0.12)">
     <defs>
      <path id="DejaVuSans-41" d="M 2188 4044 
L 1331 1722 
L 3047 1722 
L 2188 4044 
z
M 1831 4666 
L 2547 4666 
L 4325 0 
L 3669 0 
L 3244 1197 
L 1141 1197 
L 716 0 
L 50 0 
L 1831 4666 
z
" transform="scale(0.015625)"/>
      <path id="DejaVuSans-61" d="M 2194 1759 
Q 1497 1759 1228 1600 
Q 959 1441 959 1056 
Q 959 750 1161 570 
Q 1363 391 1709 391 
Q 2188 391 2477 730 
Q 2766 1069 2766 1631 
L 2766 1759 
L 2194 1759 
z
M 3341 1997 
L 3341 0 
L 2766 0 
L 2766 531 
Q 2569 213 2275 61 
Q 1981 -91 1556 -91 
Q 1019 -91 701 211 
Q 384 513 384 1019 
Q 384 1609 779 1909 
Q 1175 2209 1959 2209 
L 2766 2209 
L 2766 2266 
Q 2766 2663 2505 2880 
Q 2244 3097 1772 3097 
Q 1472 3097 1187 3025 
Q 903 2953 641 2809 
L 641 3341 
Q 956 3463 1253 3523 
Q 1550 3584 1831 3584 
Q 2591 3584 2966 3190 
Q 3341 2797 3341 1997 
z
" transform="scale(0.015625)"/>
     </defs>
     <use xlink:href="#DejaVuSans-41"/>
     <use xlink:href="#DejaVuSans-6e" x="68.408203"/>
     <use xlink:href="#DejaVuSans-61" x="131.787109"/>
     <use xlink:href="#DejaVuSans-6c" x="193.066406"/>
     <use xlink:href="#DejaVuSans-6f" x="220.849609"/>
     <use xlink:href="#DejaVuSans-67" x="282.03125"/>
     <use xlink:href="#DejaVuSans-20" x="345.507812"/>
     <use xlink:href="#DejaVuSans-73" x="377.294922"/>
     <use xlink:href="#DejaVuSans-69" x="429.394531"/>
     <use xlink:href="#DejaVuSans-67" x="457.177734"/>
     <use xlink:href="#DejaVuSans-6e" x="520.654297"/>
     <use xlink:href="#DejaVuSans-61" x="584.033203"/>
     <use xlink:href="#DejaVuSans-6c" x="645.3125"/>
    </g>
   </g>
  </g>
 </g>
 <defs>
  <clipPath id="p07bfb04d4f">
   <rect x="20.878125" y="22.318125" width="384.444876" height="208.8"/>
  </clipPath>
 </defs>
</svg>
