<?xml version="1.0" encoding="utf-8" standalone="no"?>
<!DOCTYPE svg PUBLIC "-//W3C//DTD SVG 1.1//EN"
  "http://www.w3.org/Graphics/SVG/1.1/DTD/svg11.dtd">
<svg xmlns:xlink="http://www.w3.org/1999/xlink" width="412.523001pt" height="251.99625pt" viewBox="0 0 412.523001 251.99625" xmlns="http://www.w3.org/2000/svg" version="1.1">
 <metadata>
  <rdf:RDF xmlns:dc="http://purl.org/dc/elements/1.1/" xmlns:cc="http://creativecommons.org/ns#" xmlns:rdf="http://www.w3.org/1999/02/22-rdf-syntax-ns#">
   <cc:Work>
    <dc:type rdf:resource="http://purl.org/dc/dcmitype/StillImage"/>
    <dc:date>2023-09-06T11:23:36.092088</dc:date>
    <dc:format>image/svg+xml</dc:format>
    <dc:creator>
     <cc:Agent>
      <dc:title>Matplotlib v3.7.1, https://matplotlib.org/</dc:title>
     </cc:Agent>
    </dc:creator>
   </cc:Work>
  </rdf:RDF>
 </metadata>
 <defs>
  <style type="text/css">*{stroke-linejoin: round; stroke-linecap: butt}</style>
 </defs>
 <g id="figure_1">
  <g id="patch_1">
   <path d="M 0 251.99625 
L 412.523001 251.99625 
L 412.523001 0 
L 0 0 
L 0 251.99625 
z
" style="fill: none"/>
  </g>
  <g id="axes_1">
   <g id="patch_2">
    <path d="M 20.878125 231.118125 
L 405.323001 231.118125 
L 405.323001 22.318125 
L 20.878125 22.318125 
L 20.878125 231.118125 
z
" style="fill: none"/>
   </g>
   <g id="patch_3">
    <path d="M 387.848234 218.542719 
L 369.798091 221.627216 
L 375.213134 218.681011 
L 43.254596 218.681011 
L 43.254596 218.404428 
L 375.213134 218.404428 
L 369.798091 215.458223 
z
" style="stroke: #000000; stroke-linejoin: miter"/>
   </g>
   <g id="patch_4">
    <path d="M 43.254596 31.809034 
L 48.1563 43.167452 
L 43.254925 39.759927 
L 43.254925 218.542719 
L 43.254267 218.542719 
L 43.254267 39.759927 
L 38.352892 43.167452 
z
" style="stroke: #000000; stroke-linejoin: miter"/>
   </g>
   <g id="matplotlib.axis_1">
    <g id="text_1">
     <!-- Time (ms) -->
     <g transform="translate(187.901344 242.716563) scale(0.1 -0.1)">
      <defs>
       <path id="DejaVuSans-54" d="M -19 4666 
L 3928 4666 
L 3928 4134 
L 2272 4134 
L 2272 0 
L 1638 0 
L 1638 4134 
L -19 4134 
L -19 4666 
z
" transform="scale(0.015625)"/>
       <path id="DejaVuSans-69" d="M 603 3500 
L 1178 3500 
L 1178 0 
L 603 0 
L 603 3500 
z
M 603 4863 
L 1178 4863 
L 1178 4134 
L 603 4134 
L 603 4863 
z
" transform="scale(0.015625)"/>
       <path id="DejaVuSans-6d" d="M 3328 2828 
Q 3544 3216 3844 3400 
Q 4144 3584 4550 3584 
Q 5097 3584 5394 3201 
Q 5691 2819 5691 2113 
L 5691 0 
L 5113 0 
L 5113 2094 
Q 5113 2597 4934 2840 
Q 4756 3084 4391 3084 
Q 3944 3084 3684 2787 
Q 3425 2491 3425 1978 
L 3425 0 
L 2847 0 
L 2847 2094 
Q 2847 2600 2669 2842 
Q 2491 3084 2119 3084 
Q 1678 3084 1418 2786 
Q 1159 2488 1159 1978 
L 1159 0 
L 581 0 
L 581 3500 
L 1159 3500 
L 1159 2956 
Q 1356 3278 1631 3431 
Q 1906 3584 2284 3584 
Q 2666 3584 2933 3390 
Q 3200 3197 3328 2828 
z
" transform="scale(0.015625)"/>
       <path id="DejaVuSans-65" d="M 3597 1894 
L 3597 1613 
L 953 1613 
Q 991 1019 1311 708 
Q 1631 397 2203 397 
Q 2534 397 2845 478 
Q 3156 559 3463 722 
L 3463 178 
Q 3153 47 2828 -22 
Q 2503 -91 2169 -91 
Q 1331 -91 842 396 
Q 353 884 353 1716 
Q 353 2575 817 3079 
Q 1281 3584 2069 3584 
Q 2775 3584 3186 3129 
Q 3597 2675 3597 1894 
z
M 3022 2063 
Q 3016 2534 2758 2815 
Q 2500 3097 2075 3097 
Q 1594 3097 1305 2825 
Q 1016 2553 972 2059 
L 3022 2063 
z
" transform="scale(0.015625)"/>
       <path id="DejaVuSans-20" transform="scale(0.015625)"/>
       <path id="DejaVuSans-28" d="M 1984 4856 
Q 1566 4138 1362 3434 
Q 1159 2731 1159 2009 
Q 1159 1288 1364 580 
Q 1569 -128 1984 -844 
L 1484 -844 
Q 1016 -109 783 600 
Q 550 1309 550 2009 
Q 550 2706 781 3412 
Q 1013 4119 1484 4856 
L 1984 4856 
z
" transform="scale(0.015625)"/>
       <path id="DejaVuSans-73" d="M 2834 3397 
L 2834 2853 
Q 2591 2978 2328 3040 
Q 2066 3103 1784 3103 
Q 1356 3103 1142 2972 
Q 928 2841 928 2578 
Q 928 2378 1081 2264 
Q 1234 2150 1697 2047 
L 1894 2003 
Q 2506 1872 2764 1633 
Q 3022 1394 3022 966 
Q 3022 478 2636 193 
Q 2250 -91 1575 -91 
Q 1294 -91 989 -36 
Q 684 19 347 128 
L 347 722 
Q 666 556 975 473 
Q 1284 391 1588 391 
Q 1994 391 2212 530 
Q 2431 669 2431 922 
Q 2431 1156 2273 1281 
Q 2116 1406 1581 1522 
L 1381 1569 
Q 847 1681 609 1914 
Q 372 2147 372 2553 
Q 372 3047 722 3315 
Q 1072 3584 1716 3584 
Q 2034 3584 2315 3537 
Q 2597 3491 2834 3397 
z
" transform="scale(0.015625)"/>
       <path id="DejaVuSans-29" d="M 513 4856 
L 1013 4856 
Q 1481 4119 1714 3412 
Q 1947 2706 1947 2009 
Q 1947 1309 1714 600 
Q 1481 -109 1013 -844 
L 513 -844 
Q 928 -128 1133 580 
Q 1338 1288 1338 2009 
Q 1338 2731 1133 3434 
Q 928 4138 513 4856 
z
" transform="scale(0.015625)"/>
      </defs>
      <use xlink:href="#DejaVuSans-54"/>
      <use xlink:href="#DejaVuSans-69" x="57.958984"/>
      <use xlink:href="#DejaVuSans-6d" x="85.742188"/>
      <use xlink:href="#DejaVuSans-65" x="183.154297"/>
      <use xlink:href="#DejaVuSans-20" x="244.677734"/>
      <use xlink:href="#DejaVuSans-28" x="276.464844"/>
      <use xlink:href="#DejaVuSans-6d" x="315.478516"/>
      <use xlink:href="#DejaVuSans-73" x="412.890625"/>
      <use xlink:href="#DejaVuSans-29" x="464.990234"/>
     </g>
    </g>
   </g>
   <g id="matplotlib.axis_2">
    <g id="text_2">
     <!-- log-Intensity -->
     <g transform="translate(14.798438 157.907187) rotate(-90) scale(0.1 -0.1)">
      <defs>
       <path id="DejaVuSans-6c" d="M 603 4863 
L 1178 4863 
L 1178 0 
L 603 0 
L 603 4863 
z
" transform="scale(0.015625)"/>
       <path id="DejaVuSans-6f" d="M 1959 3097 
Q 1497 3097 1228 2736 
Q 959 2375 959 1747 
Q 959 1119 1226 758 
Q 1494 397 1959 397 
Q 2419 397 2687 759 
Q 2956 1122 2956 1747 
Q 2956 2369 2687 2733 
Q 2419 3097 1959 3097 
z
M 1959 3584 
Q 2709 3584 3137 3096 
Q 3566 2609 3566 1747 
Q 3566 888 3137 398 
Q 2709 -91 1959 -91 
Q 1206 -91 779 398 
Q 353 888 353 1747 
Q 353 2609 779 3096 
Q 1206 3584 1959 3584 
z
" transform="scale(0.015625)"/>
       <path id="DejaVuSans-67" d="M 2906 1791 
Q 2906 2416 2648 2759 
Q 2391 3103 1925 3103 
Q 1463 3103 1205 2759 
Q 947 2416 947 1791 
Q 947 1169 1205 825 
Q 1463 481 1925 481 
Q 2391 481 2648 825 
Q 2906 1169 2906 1791 
z
M 3481 434 
Q 3481 -459 3084 -895 
Q 2688 -1331 1869 -1331 
Q 1566 -1331 1297 -1286 
Q 1028 -1241 775 -1147 
L 775 -588 
Q 1028 -725 1275 -790 
Q 1522 -856 1778 -856 
Q 2344 -856 2625 -561 
Q 2906 -266 2906 331 
L 2906 616 
Q 2728 306 2450 153 
Q 2172 0 1784 0 
Q 1141 0 747 490 
Q 353 981 353 1791 
Q 353 2603 747 3093 
Q 1141 3584 1784 3584 
Q 2172 3584 2450 3431 
Q 2728 3278 2906 2969 
L 2906 3500 
L 3481 3500 
L 3481 434 
z
" transform="scale(0.015625)"/>
       <path id="DejaVuSans-2d" d="M 313 2009 
L 1997 2009 
L 1997 1497 
L 313 1497 
L 313 2009 
z
" transform="scale(0.015625)"/>
       <path id="DejaVuSans-49" d="M 628 4666 
L 1259 4666 
L 1259 0 
L 628 0 
L 628 4666 
z
" transform="scale(0.015625)"/>
       <path id="DejaVuSans-6e" d="M 3513 2113 
L 3513 0 
L 2938 0 
L 2938 2094 
Q 2938 2591 2744 2837 
Q 2550 3084 2163 3084 
Q 1697 3084 1428 2787 
Q 1159 2491 1159 1978 
L 1159 0 
L 581 0 
L 581 3500 
L 1159 3500 
L 1159 2956 
Q 1366 3272 1645 3428 
Q 1925 3584 2291 3584 
Q 2894 3584 3203 3211 
Q 3513 2838 3513 2113 
z
" transform="scale(0.015625)"/>
       <path id="DejaVuSans-74" d="M 1172 4494 
L 1172 3500 
L 2356 3500 
L 2356 3053 
L 1172 3053 
L 1172 1153 
Q 1172 725 1289 603 
Q 1406 481 1766 481 
L 2356 481 
L 2356 0 
L 1766 0 
Q 1100 0 847 248 
Q 594 497 594 1153 
L 594 3053 
L 172 3053 
L 172 3500 
L 594 3500 
L 594 4494 
L 1172 4494 
z
" transform="scale(0.015625)"/>
       <path id="DejaVuSans-79" d="M 2059 -325 
Q 1816 -950 1584 -1140 
Q 1353 -1331 966 -1331 
L 506 -1331 
L 506 -850 
L 844 -850 
Q 1081 -850 1212 -737 
Q 1344 -625 1503 -206 
L 1606 56 
L 191 3500 
L 800 3500 
L 1894 763 
L 2988 3500 
L 3597 3500 
L 2059 -325 
z
" transform="scale(0.015625)"/>
      </defs>
      <use xlink:href="#DejaVuSans-6c"/>
      <use xlink:href="#DejaVuSans-6f" x="27.783203"/>
      <use xlink:href="#DejaVuSans-67" x="88.964844"/>
      <use xlink:href="#DejaVuSans-2d" x="152.441406"/>
      <use xlink:href="#DejaVuSans-49" x="188.525391"/>
      <use xlink:href="#DejaVuSans-6e" x="218.017578"/>
      <use xlink:href="#DejaVuSans-74" x="281.396484"/>
      <use xlink:href="#DejaVuSans-65" x="320.605469"/>
      <use xlink:href="#DejaVuSans-6e" x="382.128906"/>
      <use xlink:href="#DejaVuSans-73" x="445.507812"/>
      <use xlink:href="#DejaVuSans-69" x="497.607422"/>
      <use xlink:href="#DejaVuSans-74" x="525.390625"/>
      <use xlink:href="#DejaVuSans-79" x="564.599609"/>
     </g>
    </g>
   </g>
   <g id="line2d_1">
    <path d="M 43.254596 106.700244 
L 44.569964 70.409989 
L 45.227649 62.847734 
L 45.885333 61.520614 
L 46.543017 60.851422 
L 47.858385 55.710473 
L 48.51607 54.911355 
L 49.173754 56.327401 
L 49.831438 58.501108 
L 50.489122 59.40774 
L 51.146806 59.097505 
L 51.804491 58.237042 
L 52.462175 57.783029 
L 53.119859 58.643229 
L 53.777543 59.167762 
L 54.435227 58.772899 
L 55.750596 61.237267 
L 56.40828 60.374397 
L 57.065964 59.10968 
L 57.723648 58.521744 
L 58.381333 59.592469 
L 59.039017 63.049743 
L 59.696701 67.624754 
L 60.354385 69.726105 
L 61.012069 67.732086 
L 61.669754 65.032138 
L 62.327438 64.914508 
L 62.985122 65.687792 
L 63.642806 65.167946 
L 64.30049 62.364146 
L 64.958175 60.584496 
L 65.615859 66.2758 
L 66.273543 82.253441 
L 66.931227 90.587769 
L 67.588911 74.340572 
L 68.246596 54.107407 
L 68.90428 46.115892 
L 69.561964 45.105744 
L 70.219648 46.124287 
L 70.877332 47.85686 
L 72.192701 49.935323 
L 72.850385 51.220276 
L 73.508069 51.742023 
L 74.165753 50.924514 
L 74.823438 50.391782 
L 75.481122 51.676078 
L 76.138806 52.153064 
L 76.79649 50.362745 
L 77.454174 49.077083 
L 78.111859 49.299169 
L 78.769543 52.351772 
L 79.427227 61.543562 
L 80.742595 93.271481 
L 81.40028 105.395172 
L 82.057964 112.336508 
L 82.715648 114.035592 
L 83.373332 112.05061 
L 84.031016 108.739601 
L 84.688701 106.720171 
L 85.346385 108.601627 
L 86.004069 113.540172 
L 87.977122 132.569089 
L 88.634806 134.985218 
L 89.29249 130.654177 
L 89.950174 123.455034 
L 90.607858 119.727159 
L 91.265543 113.511672 
L 91.923227 102.503598 
L 92.580911 96.633818 
L 93.238595 99.666705 
L 93.896279 106.403051 
L 94.553964 119.473183 
L 95.211648 135.762899 
L 95.869332 145.690079 
L 96.527016 148.429699 
L 97.1847 147.833638 
L 97.842385 146.447383 
L 98.500069 145.367253 
L 99.157753 144.745507 
L 99.815437 145.313586 
L 100.473122 146.760104 
L 101.78849 146.621921 
L 103.103858 147.054486 
L 103.761543 146.746132 
L 104.419227 146.728514 
L 106.392279 147.459911 
L 107.049964 147.862671 
L 107.707648 147.891105 
L 108.365332 147.64874 
L 109.023016 147.606248 
L 110.338385 149.580717 
L 110.996069 147.28275 
L 111.653753 138.201736 
L 112.969121 103.79209 
L 113.626806 92.483612 
L 114.28449 86.475232 
L 114.942174 83.687243 
L 115.599858 83.368392 
L 116.257542 85.431657 
L 116.915227 89.095712 
L 117.572911 91.675469 
L 118.230595 92.173839 
L 118.888279 90.808462 
L 120.203648 86.679685 
L 121.519016 79.927508 
L 122.1767 78.463814 
L 122.834384 79.321748 
L 123.492069 81.67715 
L 124.149753 83.385431 
L 124.807437 81.320496 
L 125.465121 74.376225 
L 126.122805 64.858098 
L 126.78049 58.847565 
L 127.438174 58.023272 
L 128.095858 61.506906 
L 128.753542 66.539076 
L 129.411226 69.323093 
L 130.068911 70.264991 
L 131.384279 73.388906 
L 132.041963 74.236171 
L 132.699647 74.578205 
L 133.357332 75.438606 
L 134.015016 76.920392 
L 134.6727 77.514217 
L 135.330384 75.017035 
L 137.303437 59.617609 
L 137.961121 55.245556 
L 138.618805 54.472067 
L 139.276489 58.071146 
L 139.934174 62.564112 
L 140.591858 65.921482 
L 141.249542 68.507786 
L 142.56491 75.086537 
L 143.222595 77.017798 
L 143.880279 78.402343 
L 144.537963 78.041192 
L 145.195647 73.235253 
L 146.511016 58.801269 
L 147.1687 57.576137 
L 147.826384 61.117235 
L 149.141752 73.829229 
L 149.799437 76.602981 
L 150.457121 74.635327 
L 151.114805 71.885733 
L 151.772489 73.01998 
L 152.430173 77.054356 
L 153.745542 86.454095 
L 154.403226 89.04693 
L 155.06091 88.393061 
L 155.718594 83.756262 
L 157.033963 68.805251 
L 157.691647 63.666065 
L 158.349331 60.778972 
L 159.007015 59.928103 
L 159.6647 60.159562 
L 160.980068 59.199955 
L 161.637752 59.135836 
L 162.953121 56.999447 
L 163.610805 57.814431 
L 165.583858 67.088895 
L 166.241542 68.611416 
L 166.899226 68.644254 
L 167.55691 70.079198 
L 169.529963 79.935671 
L 170.187647 80.885115 
L 170.845331 80.877804 
L 171.503015 81.733083 
L 173.476068 86.498572 
L 174.133752 87.266574 
L 174.791436 87.305534 
L 175.449121 87.070238 
L 176.106805 87.032001 
L 176.764489 86.872104 
L 177.422173 86.088235 
L 178.079857 84.176418 
L 178.737542 80.954827 
L 179.395226 76.828216 
L 180.05291 74.193742 
L 180.710594 73.882099 
L 181.368278 74.437468 
L 182.025963 74.084841 
L 182.683647 73.288304 
L 183.341331 74.56688 
L 183.999015 77.430727 
L 184.656699 79.30812 
L 185.314384 79.754708 
L 185.972068 80.827152 
L 186.629752 81.41653 
L 187.287436 80.224504 
L 187.94512 78.432304 
L 188.602805 77.538067 
L 189.918173 78.274552 
L 191.233541 78.743274 
L 191.891226 79.244397 
L 192.54891 81.295446 
L 193.864278 90.779539 
L 194.521962 94.223965 
L 195.179647 96.178222 
L 195.837331 96.362425 
L 196.495015 95.056624 
L 197.152699 93.351018 
L 197.810383 90.738317 
L 199.125752 83.974404 
L 201.098804 77.206672 
L 201.756489 76.206234 
L 202.414173 75.513054 
L 203.729541 71.810136 
L 205.04491 66.990251 
L 205.702594 65.42343 
L 206.360278 63.448428 
L 207.675646 57.393345 
L 208.333331 56.187792 
L 208.991015 57.227886 
L 209.648699 57.683721 
L 210.306383 57.092827 
L 211.621752 57.253032 
L 212.279436 57.930678 
L 212.93712 58.306871 
L 213.594804 58.882898 
L 214.910173 60.860622 
L 215.567857 61.512595 
L 216.225541 61.025054 
L 217.540909 57.098881 
L 218.198594 58.857518 
L 219.513962 65.906277 
L 220.171646 67.680392 
L 220.829331 71.001409 
L 221.487015 78.895344 
L 222.144699 88.548585 
L 222.802383 94.787117 
L 223.460067 98.722078 
L 224.117752 103.936262 
L 224.775436 107.498007 
L 225.43312 105.82204 
L 226.090804 99.665761 
L 226.748488 90.341301 
L 227.406173 84.16419 
L 228.063857 83.714268 
L 228.721541 86.276979 
L 230.036909 95.089173 
L 230.694594 97.132428 
L 231.352278 96.089739 
L 232.667646 90.972419 
L 233.32533 88.121852 
L 233.983015 86.214657 
L 234.640699 84.902067 
L 235.298383 84.814082 
L 236.613751 87.435866 
L 237.271436 89.358402 
L 237.92912 89.57059 
L 238.586804 87.700547 
L 239.244488 86.8385 
L 239.902172 86.776176 
L 240.559857 87.478533 
L 241.217541 89.682203 
L 241.875225 94.351359 
L 242.532909 100.272587 
L 243.190593 105.11242 
L 243.848278 106.002004 
L 245.163646 100.552721 
L 245.82133 98.690888 
L 246.479014 98.693916 
L 247.136699 100.593525 
L 247.794383 102.842164 
L 248.452067 102.972145 
L 249.109751 99.640753 
L 249.767435 95.348917 
L 250.42512 92.137292 
L 251.740488 88.165843 
L 252.398172 86.969913 
L 253.055856 89.226479 
L 253.713541 96.65342 
L 254.371225 106.684371 
L 255.028909 112.303423 
L 255.686593 110.36954 
L 257.001962 98.425272 
L 257.659646 94.327257 
L 258.31733 92.652678 
L 258.975014 93.086942 
L 259.632698 93.727296 
L 260.290383 93.819145 
L 260.948067 93.225104 
L 261.605751 92.298476 
L 262.263435 90.96931 
L 263.578804 87.738223 
L 264.236488 86.906279 
L 264.894172 86.836496 
L 266.20954 87.073456 
L 266.867225 87.287879 
L 267.524909 88.670093 
L 268.182593 91.076314 
L 268.840277 92.129688 
L 269.497961 92.209909 
L 270.81333 91.156311 
L 271.471014 91.391252 
L 272.786382 93.527704 
L 273.444067 92.795885 
L 274.759435 89.775861 
L 275.417119 87.71591 
L 277.390172 80.10599 
L 278.047856 79.68795 
L 278.70554 80.978945 
L 279.363224 82.529343 
L 280.678593 84.388715 
L 282.651646 90.311412 
L 283.30933 90.475008 
L 284.624698 88.054461 
L 285.282382 88.034775 
L 287.255435 90.203349 
L 287.913119 90.300952 
L 288.570803 90.714383 
L 289.228488 91.464813 
L 289.886172 92.593323 
L 290.543856 94.838721 
L 291.859224 100.699829 
L 292.516909 102.415797 
L 293.174593 103.283545 
L 293.832277 103.683074 
L 294.489961 103.604278 
L 295.147645 103.095101 
L 295.80533 101.706218 
L 296.463014 95.20267 
L 297.778382 64.865566 
L 298.436066 56.955531 
L 299.751435 50.036689 
L 300.409119 45.514292 
L 301.066803 44.416487 
L 301.724487 47.505969 
L 302.382172 53.354061 
L 303.039856 55.657149 
L 303.69754 54.544333 
L 304.355224 54.226672 
L 305.012908 53.674224 
L 306.985961 47.053213 
L 307.643645 44.204116 
L 308.301329 44.426937 
L 309.616698 51.407479 
L 310.274382 53.057905 
L 310.932066 52.919811 
L 311.58975 52.241596 
L 312.247435 49.227372 
L 312.905119 44.970955 
L 313.562803 43.200736 
L 314.220487 43.260407 
L 314.878171 42.446229 
L 315.535856 44.170932 
L 316.19354 48.423248 
L 316.851224 49.656145 
L 317.508908 47.072358 
L 318.166592 43.175415 
L 318.824277 40.69859 
L 319.481961 39.736326 
L 320.139645 40.71341 
L 320.797329 43.036388 
L 322.112698 48.382498 
L 322.770382 49.80292 
L 323.428066 48.867474 
L 324.08575 46.480984 
L 324.743434 45.376648 
L 325.401119 45.778634 
L 326.058803 46.007021 
L 326.716487 45.406273 
L 327.374171 44.068869 
L 328.031855 42.272216 
L 328.68954 40.875475 
L 329.347224 41.520298 
L 330.004908 43.923409 
L 330.662592 45.230586 
L 331.320276 45.672336 
L 331.977961 46.356612 
L 332.635645 44.5461 
L 333.293329 41.723399 
L 333.951013 41.268553 
L 334.608697 43.218492 
L 335.924066 51.423083 
L 336.58175 54.422039 
L 337.239434 55.661327 
L 337.897118 54.692445 
L 338.554803 50.115096 
L 339.212487 43.424495 
L 339.870171 40.533291 
L 341.18554 43.929237 
L 341.843224 42.586087 
L 342.500908 41.797903 
L 343.158592 42.014391 
L 343.816276 41.835472 
L 344.473961 42.47705 
L 345.131645 46.562737 
L 345.789329 48.98014 
L 346.447013 48.823046 
L 347.104697 48.120315 
L 347.762382 46.964077 
L 348.420066 46.713158 
L 349.735434 52.130109 
L 350.393118 52.64139 
L 351.050803 49.079506 
L 351.708487 43.709456 
L 352.366171 40.142971 
L 353.023855 38.839819 
L 353.681539 38.278249 
L 354.339224 38.855843 
L 354.996908 41.285013 
L 355.654592 45.362824 
L 356.312276 48.693902 
L 356.96996 49.553116 
L 358.285329 48.099159 
L 358.943013 49.394242 
L 359.600697 49.783184 
L 360.258381 48.164813 
L 360.916066 47.911601 
L 361.57375 48.904041 
L 362.231434 48.34468 
L 362.889118 49.748265 
L 363.546802 53.113357 
L 364.204487 55.097857 
L 364.862171 54.666865 
L 365.519855 53.01788 
L 366.177539 49.194515 
L 366.835223 42.431176 
L 367.492908 37.417209 
L 368.150592 38.432744 
L 368.808276 41.307088 
L 369.46596 43.521928 
L 370.123644 47.930908 
L 370.781329 53.671976 
L 371.439013 53.680039 
L 371.439013 53.680039 
" clip-path="url(#p1f4c4c7f2f)" style="fill: none; stroke: #1f77b4; stroke-width: 1.5; stroke-linecap: square"/>
   </g>
   <g id="text_3">
    <!-- Analog signal -->
    <g transform="translate(172.714938 16.318125) scale(0.12 -0.12)">
     <defs>
      <path id="DejaVuSans-41" d="M 2188 4044 
L 1331 1722 
L 3047 1722 
L 2188 4044 
z
M 1831 4666 
L 2547 4666 
L 4325 0 
L 3669 0 
L 3244 1197 
L 1141 1197 
L 716 0 
L 50 0 
L 1831 4666 
z
" transform="scale(0.015625)"/>
      <path id="DejaVuSans-61" d="M 2194 1759 
Q 1497 1759 1228 1600 
Q 959 1441 959 1056 
Q 959 750 1161 570 
Q 1363 391 1709 391 
Q 2188 391 2477 730 
Q 2766 1069 2766 1631 
L 2766 1759 
L 2194 1759 
z
M 3341 1997 
L 3341 0 
L 2766 0 
L 2766 531 
Q 2569 213 2275 61 
Q 1981 -91 1556 -91 
Q 1019 -91 701 211 
Q 384 513 384 1019 
Q 384 1609 779 1909 
Q 1175 2209 1959 2209 
L 2766 2209 
L 2766 2266 
Q 2766 2663 2505 2880 
Q 2244 3097 1772 3097 
Q 1472 3097 1187 3025 
Q 903 2953 641 2809 
L 641 3341 
Q 956 3463 1253 3523 
Q 1550 3584 1831 3584 
Q 2591 3584 2966 3190 
Q 3341 2797 3341 1997 
z
" transform="scale(0.015625)"/>
     </defs>
     <use xlink:href="#DejaVuSans-41"/>
     <use xlink:href="#DejaVuSans-6e" x="68.408203"/>
     <use xlink:href="#DejaVuSans-61" x="131.787109"/>
     <use xlink:href="#DejaVuSans-6c" x="193.066406"/>
     <use xlink:href="#DejaVuSans-6f" x="220.849609"/>
     <use xlink:href="#DejaVuSans-67" x="282.03125"/>
     <use xlink:href="#DejaVuSans-20" x="345.507812"/>
     <use xlink:href="#DejaVuSans-73" x="377.294922"/>
     <use xlink:href="#DejaVuSans-69" x="429.394531"/>
     <use xlink:href="#DejaVuSans-67" x="457.177734"/>
     <use xlink:href="#DejaVuSans-6e" x="520.654297"/>
     <use xlink:href="#DejaVuSans-61" x="584.033203"/>
     <use xlink:href="#DejaVuSans-6c" x="645.3125"/>
    </g>
   </g>
  </g>
 </g>
 <defs>
  <clipPath id="p1f4c4c7f2f">
   <rect x="20.878125" y="22.318125" width="384.444876" height="208.8"/>
  </clipPath>
 </defs>
</svg>
