<?xml version="1.0" encoding="utf-8" standalone="no"?>
<!DOCTYPE svg PUBLIC "-//W3C//DTD SVG 1.1//EN"
  "http://www.w3.org/Graphics/SVG/1.1/DTD/svg11.dtd">
<svg xmlns:xlink="http://www.w3.org/1999/xlink" width="412.523001pt" height="251.99625pt" viewBox="0 0 412.523001 251.99625" xmlns="http://www.w3.org/2000/svg" version="1.1">
 <metadata>
  <rdf:RDF xmlns:dc="http://purl.org/dc/elements/1.1/" xmlns:cc="http://creativecommons.org/ns#" xmlns:rdf="http://www.w3.org/1999/02/22-rdf-syntax-ns#">
   <cc:Work>
    <dc:type rdf:resource="http://purl.org/dc/dcmitype/StillImage"/>
    <dc:date>2023-09-08T00:20:33.666088</dc:date>
    <dc:format>image/svg+xml</dc:format>
    <dc:creator>
     <cc:Agent>
      <dc:title>Matplotlib v3.7.2, https://matplotlib.org/</dc:title>
     </cc:Agent>
    </dc:creator>
   </cc:Work>
  </rdf:RDF>
 </metadata>
 <defs>
  <style type="text/css">*{stroke-linejoin: round; stroke-linecap: butt}</style>
 </defs>
 <g id="figure_1">
  <g id="patch_1">
   <path d="M 0 251.99625 
L 412.523001 251.99625 
L 412.523001 0 
L 0 0 
L 0 251.99625 
z
" style="fill: none"/>
  </g>
  <g id="axes_1">
   <g id="patch_2">
    <path d="M 20.878125 231.118125 
L 405.323001 231.118125 
L 405.323001 22.318125 
L 20.878125 22.318125 
L 20.878125 231.118125 
z
" style="fill: none"/>
   </g>
   <g id="patch_3">
    <path d="M 387.848234 231.118125 
L 370.607561 236.338125 
L 375.779763 231.212266 
L 43.034776 231.212266 
L 43.034776 231.023984 
L 375.779763 231.023984 
L 370.607561 225.898125 
z
" style="stroke: #000000; stroke-linejoin: miter"/>
   </g>
   <g id="patch_4">
    <path d="M 43.034776 22.318125 
L 47.71666 41.540369 
L 43.035121 35.773696 
L 43.035121 231.118125 
L 43.034431 231.118125 
L 43.034431 35.773696 
L 38.352892 41.540369 
z
" style="stroke: #000000; stroke-linejoin: miter"/>
   </g>
   <g id="matplotlib.axis_1">
    <g id="text_1">
     <!-- Time (ms) -->
     <g transform="translate(187.901344 242.716563) scale(0.1 -0.1)">
      <defs>
       <path id="DejaVuSans-54" d="M -19 4666 
L 3928 4666 
L 3928 4134 
L 2272 4134 
L 2272 0 
L 1638 0 
L 1638 4134 
L -19 4134 
L -19 4666 
z
" transform="scale(0.015625)"/>
       <path id="DejaVuSans-69" d="M 603 3500 
L 1178 3500 
L 1178 0 
L 603 0 
L 603 3500 
z
M 603 4863 
L 1178 4863 
L 1178 4134 
L 603 4134 
L 603 4863 
z
" transform="scale(0.015625)"/>
       <path id="DejaVuSans-6d" d="M 3328 2828 
Q 3544 3216 3844 3400 
Q 4144 3584 4550 3584 
Q 5097 3584 5394 3201 
Q 5691 2819 5691 2113 
L 5691 0 
L 5113 0 
L 5113 2094 
Q 5113 2597 4934 2840 
Q 4756 3084 4391 3084 
Q 3944 3084 3684 2787 
Q 3425 2491 3425 1978 
L 3425 0 
L 2847 0 
L 2847 2094 
Q 2847 2600 2669 2842 
Q 2491 3084 2119 3084 
Q 1678 3084 1418 2786 
Q 1159 2488 1159 1978 
L 1159 0 
L 581 0 
L 581 3500 
L 1159 3500 
L 1159 2956 
Q 1356 3278 1631 3431 
Q 1906 3584 2284 3584 
Q 2666 3584 2933 3390 
Q 3200 3197 3328 2828 
z
" transform="scale(0.015625)"/>
       <path id="DejaVuSans-65" d="M 3597 1894 
L 3597 1613 
L 953 1613 
Q 991 1019 1311 708 
Q 1631 397 2203 397 
Q 2534 397 2845 478 
Q 3156 559 3463 722 
L 3463 178 
Q 3153 47 2828 -22 
Q 2503 -91 2169 -91 
Q 1331 -91 842 396 
Q 353 884 353 1716 
Q 353 2575 817 3079 
Q 1281 3584 2069 3584 
Q 2775 3584 3186 3129 
Q 3597 2675 3597 1894 
z
M 3022 2063 
Q 3016 2534 2758 2815 
Q 2500 3097 2075 3097 
Q 1594 3097 1305 2825 
Q 1016 2553 972 2059 
L 3022 2063 
z
" transform="scale(0.015625)"/>
       <path id="DejaVuSans-20" transform="scale(0.015625)"/>
       <path id="DejaVuSans-28" d="M 1984 4856 
Q 1566 4138 1362 3434 
Q 1159 2731 1159 2009 
Q 1159 1288 1364 580 
Q 1569 -128 1984 -844 
L 1484 -844 
Q 1016 -109 783 600 
Q 550 1309 550 2009 
Q 550 2706 781 3412 
Q 1013 4119 1484 4856 
L 1984 4856 
z
" transform="scale(0.015625)"/>
       <path id="DejaVuSans-73" d="M 2834 3397 
L 2834 2853 
Q 2591 2978 2328 3040 
Q 2066 3103 1784 3103 
Q 1356 3103 1142 2972 
Q 928 2841 928 2578 
Q 928 2378 1081 2264 
Q 1234 2150 1697 2047 
L 1894 2003 
Q 2506 1872 2764 1633 
Q 3022 1394 3022 966 
Q 3022 478 2636 193 
Q 2250 -91 1575 -91 
Q 1294 -91 989 -36 
Q 684 19 347 128 
L 347 722 
Q 666 556 975 473 
Q 1284 391 1588 391 
Q 1994 391 2212 530 
Q 2431 669 2431 922 
Q 2431 1156 2273 1281 
Q 2116 1406 1581 1522 
L 1381 1569 
Q 847 1681 609 1914 
Q 372 2147 372 2553 
Q 372 3047 722 3315 
Q 1072 3584 1716 3584 
Q 2034 3584 2315 3537 
Q 2597 3491 2834 3397 
z
" transform="scale(0.015625)"/>
       <path id="DejaVuSans-29" d="M 513 4856 
L 1013 4856 
Q 1481 4119 1714 3412 
Q 1947 2706 1947 2009 
Q 1947 1309 1714 600 
Q 1481 -109 1013 -844 
L 513 -844 
Q 928 -128 1133 580 
Q 1338 1288 1338 2009 
Q 1338 2731 1133 3434 
Q 928 4138 513 4856 
z
" transform="scale(0.015625)"/>
      </defs>
      <use xlink:href="#DejaVuSans-54"/>
      <use xlink:href="#DejaVuSans-69" x="57.958984"/>
      <use xlink:href="#DejaVuSans-6d" x="85.742188"/>
      <use xlink:href="#DejaVuSans-65" x="183.154297"/>
      <use xlink:href="#DejaVuSans-20" x="244.677734"/>
      <use xlink:href="#DejaVuSans-28" x="276.464844"/>
      <use xlink:href="#DejaVuSans-6d" x="315.478516"/>
      <use xlink:href="#DejaVuSans-73" x="412.890625"/>
      <use xlink:href="#DejaVuSans-29" x="464.990234"/>
     </g>
    </g>
   </g>
   <g id="matplotlib.axis_2">
    <g id="text_2">
     <!-- log-Intensity -->
     <g transform="translate(14.798438 157.907187) rotate(-90) scale(0.1 -0.1)">
      <defs>
       <path id="DejaVuSans-6c" d="M 603 4863 
L 1178 4863 
L 1178 0 
L 603 0 
L 603 4863 
z
" transform="scale(0.015625)"/>
       <path id="DejaVuSans-6f" d="M 1959 3097 
Q 1497 3097 1228 2736 
Q 959 2375 959 1747 
Q 959 1119 1226 758 
Q 1494 397 1959 397 
Q 2419 397 2687 759 
Q 2956 1122 2956 1747 
Q 2956 2369 2687 2733 
Q 2419 3097 1959 3097 
z
M 1959 3584 
Q 2709 3584 3137 3096 
Q 3566 2609 3566 1747 
Q 3566 888 3137 398 
Q 2709 -91 1959 -91 
Q 1206 -91 779 398 
Q 353 888 353 1747 
Q 353 2609 779 3096 
Q 1206 3584 1959 3584 
z
" transform="scale(0.015625)"/>
       <path id="DejaVuSans-67" d="M 2906 1791 
Q 2906 2416 2648 2759 
Q 2391 3103 1925 3103 
Q 1463 3103 1205 2759 
Q 947 2416 947 1791 
Q 947 1169 1205 825 
Q 1463 481 1925 481 
Q 2391 481 2648 825 
Q 2906 1169 2906 1791 
z
M 3481 434 
Q 3481 -459 3084 -895 
Q 2688 -1331 1869 -1331 
Q 1566 -1331 1297 -1286 
Q 1028 -1241 775 -1147 
L 775 -588 
Q 1028 -725 1275 -790 
Q 1522 -856 1778 -856 
Q 2344 -856 2625 -561 
Q 2906 -266 2906 331 
L 2906 616 
Q 2728 306 2450 153 
Q 2172 0 1784 0 
Q 1141 0 747 490 
Q 353 981 353 1791 
Q 353 2603 747 3093 
Q 1141 3584 1784 3584 
Q 2172 3584 2450 3431 
Q 2728 3278 2906 2969 
L 2906 3500 
L 3481 3500 
L 3481 434 
z
" transform="scale(0.015625)"/>
       <path id="DejaVuSans-2d" d="M 313 2009 
L 1997 2009 
L 1997 1497 
L 313 1497 
L 313 2009 
z
" transform="scale(0.015625)"/>
       <path id="DejaVuSans-49" d="M 628 4666 
L 1259 4666 
L 1259 0 
L 628 0 
L 628 4666 
z
" transform="scale(0.015625)"/>
       <path id="DejaVuSans-6e" d="M 3513 2113 
L 3513 0 
L 2938 0 
L 2938 2094 
Q 2938 2591 2744 2837 
Q 2550 3084 2163 3084 
Q 1697 3084 1428 2787 
Q 1159 2491 1159 1978 
L 1159 0 
L 581 0 
L 581 3500 
L 1159 3500 
L 1159 2956 
Q 1366 3272 1645 3428 
Q 1925 3584 2291 3584 
Q 2894 3584 3203 3211 
Q 3513 2838 3513 2113 
z
" transform="scale(0.015625)"/>
       <path id="DejaVuSans-74" d="M 1172 4494 
L 1172 3500 
L 2356 3500 
L 2356 3053 
L 1172 3053 
L 1172 1153 
Q 1172 725 1289 603 
Q 1406 481 1766 481 
L 2356 481 
L 2356 0 
L 1766 0 
Q 1100 0 847 248 
Q 594 497 594 1153 
L 594 3053 
L 172 3053 
L 172 3500 
L 594 3500 
L 594 4494 
L 1172 4494 
z
" transform="scale(0.015625)"/>
       <path id="DejaVuSans-79" d="M 2059 -325 
Q 1816 -950 1584 -1140 
Q 1353 -1331 966 -1331 
L 506 -1331 
L 506 -850 
L 844 -850 
Q 1081 -850 1212 -737 
Q 1344 -625 1503 -206 
L 1606 56 
L 191 3500 
L 800 3500 
L 1894 763 
L 2988 3500 
L 3597 3500 
L 2059 -325 
z
" transform="scale(0.015625)"/>
      </defs>
      <use xlink:href="#DejaVuSans-6c"/>
      <use xlink:href="#DejaVuSans-6f" x="27.783203"/>
      <use xlink:href="#DejaVuSans-67" x="88.964844"/>
      <use xlink:href="#DejaVuSans-2d" x="152.441406"/>
      <use xlink:href="#DejaVuSans-49" x="188.525391"/>
      <use xlink:href="#DejaVuSans-6e" x="218.017578"/>
      <use xlink:href="#DejaVuSans-74" x="281.396484"/>
      <use xlink:href="#DejaVuSans-65" x="320.605469"/>
      <use xlink:href="#DejaVuSans-6e" x="382.128906"/>
      <use xlink:href="#DejaVuSans-73" x="445.507812"/>
      <use xlink:href="#DejaVuSans-69" x="497.607422"/>
      <use xlink:href="#DejaVuSans-74" x="525.390625"/>
      <use xlink:href="#DejaVuSans-79" x="564.599609"/>
     </g>
    </g>
   </g>
   <g id="line2d_1">
    <path d="M 43.034776 95.435995 
L 43.724403 96.005051 
L 44.41403 97.167072 
L 45.103657 97.953798 
L 45.793284 98.239882 
L 47.172537 98.523314 
L 47.862164 99.424758 
L 49.241418 103.359625 
L 49.931045 104.03783 
L 51.310299 103.671585 
L 51.999926 103.367657 
L 53.37918 102.470273 
L 54.068807 102.24979 
L 54.758433 102.171305 
L 55.44806 102.286391 
L 56.137687 102.927111 
L 56.827314 103.989398 
L 57.516941 104.553038 
L 58.206568 104.514482 
L 58.896195 104.180192 
L 60.965076 102.681578 
L 63.033956 100.632527 
L 64.41321 99.909063 
L 65.102837 98.983438 
L 65.792464 97.806602 
L 66.482091 96.976416 
L 67.171718 96.651706 
L 67.861345 96.787131 
L 68.550972 97.562563 
L 69.240599 98.085026 
L 69.930226 98.277231 
L 70.619853 98.887152 
L 71.309479 99.672017 
L 71.999106 99.692566 
L 72.688733 98.84083 
L 73.37836 97.783016 
L 74.067987 97.104966 
L 74.757614 96.858725 
L 75.447241 96.860592 
L 76.826495 97.214313 
L 77.516122 97.447945 
L 78.205749 97.8266 
L 79.585002 99.075604 
L 80.274629 99.387886 
L 80.964256 99.205188 
L 82.34351 97.754885 
L 83.722764 96.43111 
L 84.412391 95.788824 
L 85.102018 95.714075 
L 85.791645 96.254392 
L 86.481272 97.127344 
L 87.170899 97.717233 
L 87.860525 97.925409 
L 88.550152 97.713213 
L 90.619033 97.53996 
L 91.30866 97.840749 
L 91.998287 99.044228 
L 92.687914 100.496549 
L 93.377541 100.482455 
L 94.067168 98.542179 
L 95.446421 93.437925 
L 96.136048 89.550974 
L 98.204929 75.365972 
L 98.894556 67.103316 
L 100.27381 32.707232 
L 100.963437 32.260982 
L 102.342691 64.297983 
L 103.032318 71.030222 
L 103.721944 72.902449 
L 104.411571 74.204744 
L 105.101198 77.304001 
L 105.790825 81.412052 
L 106.480452 84.243745 
L 107.859706 85.259581 
L 108.549333 88.434242 
L 109.23896 92.242743 
L 109.928587 94.583973 
L 110.618214 93.57621 
L 111.307841 89.792244 
L 112.687094 79.106539 
L 113.376721 77.159954 
L 114.066348 79.584808 
L 114.755975 83.847889 
L 115.445602 86.977037 
L 116.135229 88.714863 
L 116.824856 89.086327 
L 117.514483 88.073884 
L 118.20411 85.742806 
L 118.893737 83.854577 
L 119.583364 86.466132 
L 120.27299 96.356716 
L 121.652244 129.656154 
L 122.341871 138.286942 
L 123.031498 141.073372 
L 123.721125 141.052436 
L 124.410752 140.067269 
L 125.790006 137.574537 
L 126.479633 137.333522 
L 127.16926 138.416555 
L 127.858887 139.966859 
L 128.548513 140.832183 
L 129.23814 140.667185 
L 129.927767 140.183768 
L 130.617394 140.124508 
L 131.307021 140.830774 
L 131.996648 141.897523 
L 132.686275 142.540273 
L 133.375902 142.394997 
L 134.755156 141.288094 
L 135.444783 140.977081 
L 136.13441 141.014865 
L 136.824036 141.268808 
L 137.513663 141.272317 
L 138.20329 140.656924 
L 138.892917 139.605808 
L 139.582544 138.825223 
L 140.961798 138.144427 
L 141.651425 137.314278 
L 142.341052 136.092791 
L 143.030679 135.268737 
L 143.720306 135.533178 
L 145.099559 137.225721 
L 145.789186 137.387952 
L 146.478813 137.171089 
L 147.16844 137.096249 
L 147.858067 137.2334 
L 148.547694 137.525979 
L 149.237321 138.341 
L 149.926948 139.362068 
L 150.616575 139.880653 
L 151.306202 139.841567 
L 151.995829 139.460128 
L 154.754336 136.883015 
L 156.13359 136.50051 
L 156.823217 136.544727 
L 158.202471 137.096459 
L 158.892098 137.419961 
L 159.581725 137.259611 
L 160.960978 136.604554 
L 163.029859 134.960843 
L 163.719486 134.973049 
L 164.409113 135.501895 
L 165.09874 136.412269 
L 165.788367 137.088163 
L 166.477994 137.092536 
L 167.167621 136.6964 
L 167.857248 136.530764 
L 168.546875 136.573664 
L 169.236501 136.755735 
L 169.926128 137.390792 
L 170.615755 138.266411 
L 171.305382 138.356856 
L 171.995009 137.542515 
L 172.684636 135.685396 
L 173.374263 132.484295 
L 174.06389 126.185298 
L 174.753517 113.784607 
L 175.443144 98.6576 
L 176.132771 89.80892 
L 176.822398 87.105394 
L 177.512024 86.896438 
L 178.201651 86.549599 
L 179.580905 84.547045 
L 180.270532 85.555281 
L 180.960159 90.642517 
L 181.649786 102.197761 
L 182.339413 117.223251 
L 183.02904 126.985837 
L 183.718667 130.202876 
L 184.408294 129.912995 
L 185.097921 129.159901 
L 185.787547 128.99717 
L 186.477174 129.180467 
L 187.166801 129.810838 
L 187.856428 130.699721 
L 188.546055 131.017664 
L 190.614936 129.411676 
L 191.304563 127.996755 
L 191.99419 122.559763 
L 192.683817 110.041738 
L 193.373443 94.062703 
L 194.06307 84.151291 
L 194.752697 80.249655 
L 195.442324 78.363086 
L 196.131951 75.74427 
L 196.821578 70.981962 
L 197.511205 62.374465 
L 198.200832 51.732861 
L 198.890459 49.570688 
L 199.580086 69.408491 
L 200.269713 97.236035 
L 200.95934 117.463922 
L 201.648966 124.851587 
L 202.338593 120.506997 
L 203.02822 105.915164 
L 204.407474 64.9905 
L 205.097101 59.967565 
L 205.786728 68.103711 
L 206.476355 77.870196 
L 207.165982 83.530592 
L 207.855609 82.946385 
L 209.924489 69.671129 
L 210.614116 67.901534 
L 211.303743 67.701879 
L 211.99337 67.716427 
L 212.682997 68.652368 
L 213.372624 72.032925 
L 214.751878 81.9263 
L 215.441505 82.184452 
L 216.131132 82.835583 
L 216.820759 92.488752 
L 218.200012 125.886555 
L 218.889639 134.361775 
L 219.579266 136.350886 
L 220.268893 135.298542 
L 220.95852 134.948223 
L 222.337774 138.302624 
L 223.027401 136.742676 
L 223.717028 129.308058 
L 225.096282 96.263888 
L 225.785909 85.572782 
L 226.475535 81.03861 
L 227.165162 79.599864 
L 227.854789 79.258102 
L 228.544416 79.680269 
L 229.92367 81.81184 
L 230.613297 82.331414 
L 231.302924 81.436054 
L 231.992551 80.963181 
L 232.682178 82.666839 
L 233.371805 85.14689 
L 234.061431 85.46326 
L 234.751058 83.998589 
L 235.440685 82.176266 
L 236.130312 81.597961 
L 237.509566 81.396105 
L 238.88882 80.298637 
L 239.578447 80.13047 
L 240.268074 79.456841 
L 240.957701 78.997182 
L 242.336954 79.341084 
L 243.716208 78.300185 
L 244.405835 78.498231 
L 245.785089 79.460331 
L 246.474716 80.221613 
L 247.164343 81.330025 
L 247.85397 81.830374 
L 248.543597 80.989672 
L 249.233224 79.765544 
L 249.922851 79.615036 
L 250.612477 81.267262 
L 251.302104 85.461511 
L 251.991731 94.431663 
L 253.370985 127.242618 
L 254.060612 136.353618 
L 254.750239 139.171018 
L 255.439866 139.095847 
L 256.129493 138.48286 
L 257.508747 137.57547 
L 258.198374 136.763411 
L 258.888 135.474102 
L 259.577627 133.386014 
L 260.267254 130.276076 
L 260.956881 126.526553 
L 261.646508 124.268966 
L 262.336135 123.020619 
L 263.025762 119.068424 
L 263.715389 112.966704 
L 264.405016 109.383085 
L 265.094643 109.606992 
L 265.78427 112.876412 
L 266.473897 117.685651 
L 267.163523 120.773413 
L 267.85315 121.230781 
L 268.542777 121.029249 
L 269.232404 121.997422 
L 271.990912 127.821184 
L 272.680539 127.191096 
L 273.370166 123.3456 
L 274.74942 108.251746 
L 275.439046 103.647403 
L 276.128673 104.009364 
L 278.197554 115.205432 
L 278.887181 117.349473 
L 279.576808 118.462568 
L 280.266435 119.059648 
L 280.956062 119.207361 
L 282.335316 118.804801 
L 283.024942 118.874511 
L 284.404196 119.356765 
L 285.78345 119.573103 
L 286.473077 119.867713 
L 287.162704 120.411495 
L 287.852331 121.156333 
L 289.921212 124.18474 
L 290.610839 124.463346 
L 291.990092 123.607628 
L 292.679719 123.181275 
L 293.369346 122.977645 
L 294.058973 123.07801 
L 296.817481 124.762958 
L 298.196735 124.989012 
L 298.886362 125.27046 
L 299.575988 125.154 
L 300.955242 124.097179 
L 302.334496 122.956364 
L 303.024123 122.873415 
L 303.71375 123.314663 
L 304.403377 124.166068 
L 305.093004 124.806538 
L 305.782631 124.728758 
L 307.161885 123.328876 
L 307.851511 122.586811 
L 308.541138 122.077873 
L 309.230765 121.87916 
L 309.920392 120.902201 
L 311.299646 115.105875 
L 311.989273 112.316837 
L 312.6789 110.30632 
L 313.368527 109.716774 
L 314.058154 109.656396 
L 314.747781 109.815228 
L 315.437408 109.628318 
L 318.195915 104.651323 
L 318.885542 104.337248 
L 320.954423 105.239554 
L 321.64405 106.436856 
L 322.333677 109.675114 
L 323.023304 114.993021 
L 323.712931 121.599791 
L 324.402557 126.876723 
L 325.092184 129.17972 
L 325.781811 130.010157 
L 326.471438 131.748423 
L 327.161065 134.867028 
L 327.850692 137.052514 
L 328.540319 137.6616 
L 329.229946 137.241358 
L 329.919573 136.54435 
L 330.6092 137.021742 
L 331.988453 140.121225 
L 333.367707 141.63231 
L 334.057334 140.893719 
L 334.746961 134.923732 
L 335.436588 119.553264 
L 336.126215 99.362726 
L 336.815842 86.813533 
L 337.505469 82.742318 
L 340.263976 79.811909 
L 340.953603 79.772877 
L 342.332857 83.536804 
L 343.022484 82.300632 
L 343.712111 75.960635 
L 344.401738 66.199874 
L 345.091365 64.355392 
L 346.470619 81.779119 
L 347.160246 85.810251 
L 347.849873 85.457785 
L 348.539499 82.067439 
L 349.229126 77.509193 
L 349.918753 74.119286 
L 350.60838 73.168472 
L 351.298007 74.881235 
L 352.677261 80.125093 
L 353.366888 81.512126 
L 354.056515 80.913904 
L 354.746142 79.055279 
L 355.435769 77.978424 
L 356.125396 79.289796 
L 356.815022 84.963194 
L 358.194276 104.307147 
L 358.883903 108.607103 
L 359.57353 110.086433 
L 360.263157 110.513653 
L 360.952784 110.469258 
L 361.642411 109.667678 
L 363.021665 106.917709 
L 363.711292 106.356307 
L 364.400919 106.639992 
L 365.090545 107.494744 
L 366.469799 110.159702 
L 367.159426 110.926142 
L 367.849053 110.88678 
L 368.53868 110.465279 
L 369.228307 110.304 
L 369.917934 110.887857 
L 371.297188 113.13612 
L 371.986815 113.904356 
L 372.676442 114.430429 
L 374.745322 115.632364 
L 375.434949 116.422061 
L 376.814203 118.462665 
L 377.50383 118.849819 
L 378.193457 119.043839 
L 378.883084 118.94541 
L 380.951964 117.876127 
L 381.641591 117.899899 
L 382.331218 117.778415 
L 383.020845 116.604971 
L 383.710472 113.964368 
L 385.089726 107.369427 
L 385.779353 104.766348 
L 386.46898 103.303508 
L 387.158607 103.069999 
L 387.158607 103.069999 
" clip-path="url(#p5d77b9a237)" style="fill: none; stroke: #1f77b4; stroke-width: 1.5; stroke-linecap: square"/>
   </g>
   <g id="text_3">
    <!-- Analog signal -->
    <g transform="translate(172.714938 16.318125) scale(0.12 -0.12)">
     <defs>
      <path id="DejaVuSans-41" d="M 2188 4044 
L 1331 1722 
L 3047 1722 
L 2188 4044 
z
M 1831 4666 
L 2547 4666 
L 4325 0 
L 3669 0 
L 3244 1197 
L 1141 1197 
L 716 0 
L 50 0 
L 1831 4666 
z
" transform="scale(0.015625)"/>
      <path id="DejaVuSans-61" d="M 2194 1759 
Q 1497 1759 1228 1600 
Q 959 1441 959 1056 
Q 959 750 1161 570 
Q 1363 391 1709 391 
Q 2188 391 2477 730 
Q 2766 1069 2766 1631 
L 2766 1759 
L 2194 1759 
z
M 3341 1997 
L 3341 0 
L 2766 0 
L 2766 531 
Q 2569 213 2275 61 
Q 1981 -91 1556 -91 
Q 1019 -91 701 211 
Q 384 513 384 1019 
Q 384 1609 779 1909 
Q 1175 2209 1959 2209 
L 2766 2209 
L 2766 2266 
Q 2766 2663 2505 2880 
Q 2244 3097 1772 3097 
Q 1472 3097 1187 3025 
Q 903 2953 641 2809 
L 641 3341 
Q 956 3463 1253 3523 
Q 1550 3584 1831 3584 
Q 2591 3584 2966 3190 
Q 3341 2797 3341 1997 
z
" transform="scale(0.015625)"/>
     </defs>
     <use xlink:href="#DejaVuSans-41"/>
     <use xlink:href="#DejaVuSans-6e" x="68.408203"/>
     <use xlink:href="#DejaVuSans-61" x="131.787109"/>
     <use xlink:href="#DejaVuSans-6c" x="193.066406"/>
     <use xlink:href="#DejaVuSans-6f" x="220.849609"/>
     <use xlink:href="#DejaVuSans-67" x="282.03125"/>
     <use xlink:href="#DejaVuSans-20" x="345.507812"/>
     <use xlink:href="#DejaVuSans-73" x="377.294922"/>
     <use xlink:href="#DejaVuSans-69" x="429.394531"/>
     <use xlink:href="#DejaVuSans-67" x="457.177734"/>
     <use xlink:href="#DejaVuSans-6e" x="520.654297"/>
     <use xlink:href="#DejaVuSans-61" x="584.033203"/>
     <use xlink:href="#DejaVuSans-6c" x="645.3125"/>
    </g>
   </g>
  </g>
 </g>
 <defs>
  <clipPath id="p5d77b9a237">
   <rect x="20.878125" y="22.318125" width="384.444876" height="208.8"/>
  </clipPath>
 </defs>
</svg>
