<?xml version="1.0" encoding="utf-8" standalone="no"?>
<!DOCTYPE svg PUBLIC "-//W3C//DTD SVG 1.1//EN"
  "http://www.w3.org/Graphics/SVG/1.1/DTD/svg11.dtd">
<svg xmlns:xlink="http://www.w3.org/1999/xlink" width="412.523001pt" height="251.99625pt" viewBox="0 0 412.523001 251.99625" xmlns="http://www.w3.org/2000/svg" version="1.1">
 <metadata>
  <rdf:RDF xmlns:dc="http://purl.org/dc/elements/1.1/" xmlns:cc="http://creativecommons.org/ns#" xmlns:rdf="http://www.w3.org/1999/02/22-rdf-syntax-ns#">
   <cc:Work>
    <dc:type rdf:resource="http://purl.org/dc/dcmitype/StillImage"/>
    <dc:date>2023-12-01T08:28:12.900477</dc:date>
    <dc:format>image/svg+xml</dc:format>
    <dc:creator>
     <cc:Agent>
      <dc:title>Matplotlib v3.8.1, https://matplotlib.org/</dc:title>
     </cc:Agent>
    </dc:creator>
   </cc:Work>
  </rdf:RDF>
 </metadata>
 <defs>
  <style type="text/css">*{stroke-linejoin: round; stroke-linecap: butt}</style>
 </defs>
 <g id="figure_1">
  <g id="patch_1">
   <path d="M 0 251.99625 
L 412.523001 251.99625 
L 412.523001 0 
L 0 0 
L 0 251.99625 
z
" style="fill: none"/>
  </g>
  <g id="axes_1">
   <g id="patch_2">
    <path d="M 20.878125 231.118125 
L 405.323001 231.118125 
L 405.323001 22.318125 
L 20.878125 22.318125 
L 20.878125 231.118125 
z
" style="fill: none"/>
   </g>
   <g id="patch_3">
    <path d="M 387.848234 231.118125 
L 370.607561 236.338125 
L 375.779763 231.256443 
L 43.034776 231.256443 
L 43.034776 230.979807 
L 375.779763 230.979807 
L 370.607561 225.898125 
z
" style="stroke: #000000; stroke-linejoin: miter"/>
   </g>
   <g id="patch_4">
    <path d="M 43.034776 22.318125 
L 47.71666 41.540369 
L 43.035638 35.773696 
L 43.035638 231.118125 
L 43.033914 231.118125 
L 43.033914 35.773696 
L 38.352892 41.540369 
z
" style="stroke: #000000; stroke-linejoin: miter"/>
   </g>
   <g id="matplotlib.axis_1">
    <g id="text_1">
     <!-- Time (ms) -->
     <g transform="translate(187.901344 242.716563) scale(0.1 -0.1)">
      <defs>
       <path id="DejaVuSans-54" d="M -19 4666 
L 3928 4666 
L 3928 4134 
L 2272 4134 
L 2272 0 
L 1638 0 
L 1638 4134 
L -19 4134 
L -19 4666 
z
" transform="scale(0.015625)"/>
       <path id="DejaVuSans-69" d="M 603 3500 
L 1178 3500 
L 1178 0 
L 603 0 
L 603 3500 
z
M 603 4863 
L 1178 4863 
L 1178 4134 
L 603 4134 
L 603 4863 
z
" transform="scale(0.015625)"/>
       <path id="DejaVuSans-6d" d="M 3328 2828 
Q 3544 3216 3844 3400 
Q 4144 3584 4550 3584 
Q 5097 3584 5394 3201 
Q 5691 2819 5691 2113 
L 5691 0 
L 5113 0 
L 5113 2094 
Q 5113 2597 4934 2840 
Q 4756 3084 4391 3084 
Q 3944 3084 3684 2787 
Q 3425 2491 3425 1978 
L 3425 0 
L 2847 0 
L 2847 2094 
Q 2847 2600 2669 2842 
Q 2491 3084 2119 3084 
Q 1678 3084 1418 2786 
Q 1159 2488 1159 1978 
L 1159 0 
L 581 0 
L 581 3500 
L 1159 3500 
L 1159 2956 
Q 1356 3278 1631 3431 
Q 1906 3584 2284 3584 
Q 2666 3584 2933 3390 
Q 3200 3197 3328 2828 
z
" transform="scale(0.015625)"/>
       <path id="DejaVuSans-65" d="M 3597 1894 
L 3597 1613 
L 953 1613 
Q 991 1019 1311 708 
Q 1631 397 2203 397 
Q 2534 397 2845 478 
Q 3156 559 3463 722 
L 3463 178 
Q 3153 47 2828 -22 
Q 2503 -91 2169 -91 
Q 1331 -91 842 396 
Q 353 884 353 1716 
Q 353 2575 817 3079 
Q 1281 3584 2069 3584 
Q 2775 3584 3186 3129 
Q 3597 2675 3597 1894 
z
M 3022 2063 
Q 3016 2534 2758 2815 
Q 2500 3097 2075 3097 
Q 1594 3097 1305 2825 
Q 1016 2553 972 2059 
L 3022 2063 
z
" transform="scale(0.015625)"/>
       <path id="DejaVuSans-20" transform="scale(0.015625)"/>
       <path id="DejaVuSans-28" d="M 1984 4856 
Q 1566 4138 1362 3434 
Q 1159 2731 1159 2009 
Q 1159 1288 1364 580 
Q 1569 -128 1984 -844 
L 1484 -844 
Q 1016 -109 783 600 
Q 550 1309 550 2009 
Q 550 2706 781 3412 
Q 1013 4119 1484 4856 
L 1984 4856 
z
" transform="scale(0.015625)"/>
       <path id="DejaVuSans-73" d="M 2834 3397 
L 2834 2853 
Q 2591 2978 2328 3040 
Q 2066 3103 1784 3103 
Q 1356 3103 1142 2972 
Q 928 2841 928 2578 
Q 928 2378 1081 2264 
Q 1234 2150 1697 2047 
L 1894 2003 
Q 2506 1872 2764 1633 
Q 3022 1394 3022 966 
Q 3022 478 2636 193 
Q 2250 -91 1575 -91 
Q 1294 -91 989 -36 
Q 684 19 347 128 
L 347 722 
Q 666 556 975 473 
Q 1284 391 1588 391 
Q 1994 391 2212 530 
Q 2431 669 2431 922 
Q 2431 1156 2273 1281 
Q 2116 1406 1581 1522 
L 1381 1569 
Q 847 1681 609 1914 
Q 372 2147 372 2553 
Q 372 3047 722 3315 
Q 1072 3584 1716 3584 
Q 2034 3584 2315 3537 
Q 2597 3491 2834 3397 
z
" transform="scale(0.015625)"/>
       <path id="DejaVuSans-29" d="M 513 4856 
L 1013 4856 
Q 1481 4119 1714 3412 
Q 1947 2706 1947 2009 
Q 1947 1309 1714 600 
Q 1481 -109 1013 -844 
L 513 -844 
Q 928 -128 1133 580 
Q 1338 1288 1338 2009 
Q 1338 2731 1133 3434 
Q 928 4138 513 4856 
z
" transform="scale(0.015625)"/>
      </defs>
      <use xlink:href="#DejaVuSans-54"/>
      <use xlink:href="#DejaVuSans-69" x="57.958984"/>
      <use xlink:href="#DejaVuSans-6d" x="85.742188"/>
      <use xlink:href="#DejaVuSans-65" x="183.154297"/>
      <use xlink:href="#DejaVuSans-20" x="244.677734"/>
      <use xlink:href="#DejaVuSans-28" x="276.464844"/>
      <use xlink:href="#DejaVuSans-6d" x="315.478516"/>
      <use xlink:href="#DejaVuSans-73" x="412.890625"/>
      <use xlink:href="#DejaVuSans-29" x="464.990234"/>
     </g>
    </g>
   </g>
   <g id="matplotlib.axis_2">
    <g id="text_2">
     <!-- log-Intensity -->
     <g transform="translate(14.798438 157.907187) rotate(-90) scale(0.1 -0.1)">
      <defs>
       <path id="DejaVuSans-6c" d="M 603 4863 
L 1178 4863 
L 1178 0 
L 603 0 
L 603 4863 
z
" transform="scale(0.015625)"/>
       <path id="DejaVuSans-6f" d="M 1959 3097 
Q 1497 3097 1228 2736 
Q 959 2375 959 1747 
Q 959 1119 1226 758 
Q 1494 397 1959 397 
Q 2419 397 2687 759 
Q 2956 1122 2956 1747 
Q 2956 2369 2687 2733 
Q 2419 3097 1959 3097 
z
M 1959 3584 
Q 2709 3584 3137 3096 
Q 3566 2609 3566 1747 
Q 3566 888 3137 398 
Q 2709 -91 1959 -91 
Q 1206 -91 779 398 
Q 353 888 353 1747 
Q 353 2609 779 3096 
Q 1206 3584 1959 3584 
z
" transform="scale(0.015625)"/>
       <path id="DejaVuSans-67" d="M 2906 1791 
Q 2906 2416 2648 2759 
Q 2391 3103 1925 3103 
Q 1463 3103 1205 2759 
Q 947 2416 947 1791 
Q 947 1169 1205 825 
Q 1463 481 1925 481 
Q 2391 481 2648 825 
Q 2906 1169 2906 1791 
z
M 3481 434 
Q 3481 -459 3084 -895 
Q 2688 -1331 1869 -1331 
Q 1566 -1331 1297 -1286 
Q 1028 -1241 775 -1147 
L 775 -588 
Q 1028 -725 1275 -790 
Q 1522 -856 1778 -856 
Q 2344 -856 2625 -561 
Q 2906 -266 2906 331 
L 2906 616 
Q 2728 306 2450 153 
Q 2172 0 1784 0 
Q 1141 0 747 490 
Q 353 981 353 1791 
Q 353 2603 747 3093 
Q 1141 3584 1784 3584 
Q 2172 3584 2450 3431 
Q 2728 3278 2906 2969 
L 2906 3500 
L 3481 3500 
L 3481 434 
z
" transform="scale(0.015625)"/>
       <path id="DejaVuSans-2d" d="M 313 2009 
L 1997 2009 
L 1997 1497 
L 313 1497 
L 313 2009 
z
" transform="scale(0.015625)"/>
       <path id="DejaVuSans-49" d="M 628 4666 
L 1259 4666 
L 1259 0 
L 628 0 
L 628 4666 
z
" transform="scale(0.015625)"/>
       <path id="DejaVuSans-6e" d="M 3513 2113 
L 3513 0 
L 2938 0 
L 2938 2094 
Q 2938 2591 2744 2837 
Q 2550 3084 2163 3084 
Q 1697 3084 1428 2787 
Q 1159 2491 1159 1978 
L 1159 0 
L 581 0 
L 581 3500 
L 1159 3500 
L 1159 2956 
Q 1366 3272 1645 3428 
Q 1925 3584 2291 3584 
Q 2894 3584 3203 3211 
Q 3513 2838 3513 2113 
z
" transform="scale(0.015625)"/>
       <path id="DejaVuSans-74" d="M 1172 4494 
L 1172 3500 
L 2356 3500 
L 2356 3053 
L 1172 3053 
L 1172 1153 
Q 1172 725 1289 603 
Q 1406 481 1766 481 
L 2356 481 
L 2356 0 
L 1766 0 
Q 1100 0 847 248 
Q 594 497 594 1153 
L 594 3053 
L 172 3053 
L 172 3500 
L 594 3500 
L 594 4494 
L 1172 4494 
z
" transform="scale(0.015625)"/>
       <path id="DejaVuSans-79" d="M 2059 -325 
Q 1816 -950 1584 -1140 
Q 1353 -1331 966 -1331 
L 506 -1331 
L 506 -850 
L 844 -850 
Q 1081 -850 1212 -737 
Q 1344 -625 1503 -206 
L 1606 56 
L 191 3500 
L 800 3500 
L 1894 763 
L 2988 3500 
L 3597 3500 
L 2059 -325 
z
" transform="scale(0.015625)"/>
      </defs>
      <use xlink:href="#DejaVuSans-6c"/>
      <use xlink:href="#DejaVuSans-6f" x="27.783203"/>
      <use xlink:href="#DejaVuSans-67" x="88.964844"/>
      <use xlink:href="#DejaVuSans-2d" x="152.441406"/>
      <use xlink:href="#DejaVuSans-49" x="188.525391"/>
      <use xlink:href="#DejaVuSans-6e" x="218.017578"/>
      <use xlink:href="#DejaVuSans-74" x="281.396484"/>
      <use xlink:href="#DejaVuSans-65" x="320.605469"/>
      <use xlink:href="#DejaVuSans-6e" x="382.128906"/>
      <use xlink:href="#DejaVuSans-73" x="445.507812"/>
      <use xlink:href="#DejaVuSans-69" x="497.607422"/>
      <use xlink:href="#DejaVuSans-74" x="525.390625"/>
      <use xlink:href="#DejaVuSans-79" x="564.599609"/>
     </g>
    </g>
   </g>
   <g id="line2d_1">
    <path d="M 43.034776 134.120746 
L 44.758843 134.956841 
L 46.48291 136.664157 
L 48.206978 137.820065 
L 49.931045 138.240398 
L 53.37918 138.656835 
L 55.103247 139.981294 
L 58.551382 145.762655 
L 60.275449 146.759117 
L 63.723583 146.221006 
L 65.447651 145.774455 
L 68.895785 144.455961 
L 70.619853 144.132013 
L 72.34392 144.016698 
L 74.067987 144.18579 
L 75.792054 145.127177 
L 77.516122 146.687958 
L 79.240189 147.516094 
L 80.964256 147.459446 
L 82.688324 146.968284 
L 86.136458 145.528413 
L 87.860525 144.766425 
L 89.584593 143.81832 
L 91.30866 142.676413 
L 93.032727 141.755827 
L 94.756795 141.287764 
L 96.480862 140.692866 
L 98.204929 139.332878 
L 99.928996 137.603795 
L 101.653064 136.384032 
L 103.377131 135.906948 
L 105.101198 136.105922 
L 106.825266 137.245237 
L 108.549333 138.012873 
L 110.2734 138.295273 
L 111.997467 139.191409 
L 113.721535 140.344583 
L 115.445602 140.374775 
L 117.169669 139.12335 
L 118.893737 137.569141 
L 120.617804 136.572906 
L 122.341871 136.211112 
L 124.065938 136.213857 
L 125.790006 136.400213 
L 129.23814 137.076833 
L 130.962208 137.633177 
L 134.410342 139.468295 
L 136.13441 139.927119 
L 137.858477 139.658687 
L 139.582544 138.476046 
L 146.478813 134.639146 
L 148.202881 134.529319 
L 149.926948 135.323187 
L 151.651015 136.605785 
L 153.375082 137.472489 
L 155.09915 137.778354 
L 156.823217 137.466583 
L 161.995419 137.212028 
L 163.719486 137.653965 
L 165.443553 139.422195 
L 167.167621 141.556039 
L 168.891688 141.53533 
L 170.615755 138.684552 
L 172.339823 135.131471 
L 174.06389 131.185053 
L 175.787957 125.474094 
L 180.960159 104.632575 
L 182.684226 92.492547 
L 184.408294 68.139457 
L 186.132361 41.955602 
L 187.856428 41.299943 
L 189.580495 65.755196 
L 191.304563 88.370771 
L 193.02863 98.26221 
L 194.752697 101.013008 
L 196.476765 102.926423 
L 198.200832 107.480051 
L 199.924899 113.515865 
L 201.648966 117.67637 
L 203.373034 118.497718 
L 205.097101 119.168902 
L 206.821168 123.833319 
L 208.545236 129.429014 
L 210.269303 132.868901 
L 211.99337 131.38823 
L 213.717437 125.828584 
L 217.165572 110.128457 
L 218.889639 107.268408 
L 220.613707 110.83116 
L 222.337774 117.094754 
L 224.061841 121.692299 
L 225.785909 124.245626 
L 227.509976 124.791405 
L 229.234043 123.303858 
L 230.95811 119.878889 
L 232.682178 117.10458 
L 234.406245 120.941646 
L 236.130312 135.473529 
L 239.578447 184.399211 
L 241.302514 197.080121 
L 243.026581 201.174124 
L 244.750649 201.143363 
L 246.474716 199.695892 
L 248.198783 197.774751 
L 249.922851 196.03341 
L 251.646918 195.679295 
L 253.370985 197.270557 
L 255.095052 199.548363 
L 256.81912 200.819754 
L 258.543187 200.577328 
L 260.267254 199.86706 
L 261.991322 199.779992 
L 263.715389 200.817683 
L 265.439456 202.38502 
L 267.163523 203.329389 
L 268.887591 203.115941 
L 272.335725 201.489607 
L 274.059793 201.032646 
L 275.78386 201.088162 
L 277.507927 201.461271 
L 279.231994 201.466426 
L 280.956062 200.562251 
L 282.680129 199.017884 
L 284.404196 197.870998 
L 287.852331 196.870729 
L 289.576398 195.65102 
L 291.300465 193.856333 
L 293.024533 192.64558 
L 294.7486 193.034114 
L 296.472667 194.36828 
L 298.196735 195.520907 
L 299.920802 195.759268 
L 301.644869 195.440638 
L 303.368937 195.330678 
L 305.093004 195.532189 
L 306.817071 195.962065 
L 308.541138 197.159546 
L 310.265206 198.659766 
L 311.989273 199.421704 
L 313.71334 199.364276 
L 315.437408 198.803842 
L 317.161475 197.811414 
L 318.885542 196.638797 
L 320.609609 195.740823 
L 322.333677 195.01738 
L 324.057744 194.662973 
L 325.781811 194.45538 
L 327.505879 194.520346 
L 329.229946 194.843725 
L 332.67808 195.806297 
L 334.402148 195.5707 
L 337.850282 194.608248 
L 339.57435 193.776525 
L 341.298417 192.774507 
L 343.022484 192.193201 
L 344.746551 192.211137 
L 346.470619 192.98815 
L 348.194686 194.325731 
L 349.918753 195.318797 
L 351.642821 195.325224 
L 353.366888 194.743195 
L 355.090955 194.499831 
L 356.815022 194.562862 
L 358.53909 194.830373 
L 360.263157 195.763439 
L 361.987224 197.049956 
L 363.711292 197.182844 
L 365.435359 195.986362 
L 367.159426 193.257763 
L 368.883493 188.554497 
L 370.607561 179.299605 
L 372.331628 161.079711 
L 374.055695 138.854136 
L 375.779763 125.853085 
L 377.50383 121.88089 
L 379.227897 121.573878 
L 380.951964 121.064281 
L 382.676032 119.462568 
L 384.400099 118.121999 
L 386.124166 119.603364 
L 386.124166 119.603364 
" clip-path="url(#pff65ac7ebb)" style="fill: none; stroke: #0000ff; stroke-opacity: 0.2; stroke-width: 1.5; stroke-linecap: square"/>
   </g>
   <g id="line2d_2">
    <path d="M 43.034776 134.120746 
L 44.758843 134.956841 
L 46.48291 136.664157 
L 48.206978 137.820065 
L 49.931045 138.240398 
L 51.655112 138.397533 
L 53.37918 138.656835 
" clip-path="url(#pff65ac7ebb)" style="fill: none; stroke: #0000ff; stroke-width: 1.5; stroke-linecap: square"/>
   </g>
   <g id="line2d_3">
    <path d="M 53.37918 138.656835 
L 55.103247 139.981294 
" clip-path="url(#pff65ac7ebb)" style="fill: none; stroke: #0000ff; stroke-width: 1.5; stroke-linecap: square"/>
   </g>
   <g id="line2d_4">
    <path d="M 43.034776 231.118125 
L 387.848234 231.118125 
" clip-path="url(#pff65ac7ebb)" style="fill: none; stroke: #000000; stroke-width: 0.2; stroke-linecap: square"/>
   </g>
   <g id="line2d_5">
    <path d="M 43.034776 222.766125 
L 387.848234 222.766125 
" clip-path="url(#pff65ac7ebb)" style="fill: none; stroke: #000000; stroke-width: 0.2; stroke-linecap: square"/>
   </g>
   <g id="line2d_6">
    <path d="M 43.034776 214.414125 
L 387.848234 214.414125 
" clip-path="url(#pff65ac7ebb)" style="fill: none; stroke: #000000; stroke-width: 0.2; stroke-linecap: square"/>
   </g>
   <g id="line2d_7">
    <path d="M 43.034776 206.062125 
L 387.848234 206.062125 
" clip-path="url(#pff65ac7ebb)" style="fill: none; stroke: #000000; stroke-width: 0.2; stroke-linecap: square"/>
   </g>
   <g id="line2d_8">
    <path d="M 43.034776 197.710125 
L 387.848234 197.710125 
" clip-path="url(#pff65ac7ebb)" style="fill: none; stroke: #000000; stroke-width: 0.2; stroke-linecap: square"/>
   </g>
   <g id="line2d_9">
    <path d="M 43.034776 189.358125 
L 387.848234 189.358125 
" clip-path="url(#pff65ac7ebb)" style="fill: none; stroke: #000000; stroke-width: 0.2; stroke-linecap: square"/>
   </g>
   <g id="line2d_10">
    <path d="M 43.034776 181.006125 
L 387.848234 181.006125 
" clip-path="url(#pff65ac7ebb)" style="fill: none; stroke: #000000; stroke-width: 0.2; stroke-linecap: square"/>
   </g>
   <g id="line2d_11">
    <path d="M 43.034776 172.654125 
L 387.848234 172.654125 
" clip-path="url(#pff65ac7ebb)" style="fill: none; stroke: #000000; stroke-width: 0.2; stroke-linecap: square"/>
   </g>
   <g id="line2d_12">
    <path d="M 43.034776 164.302125 
L 387.848234 164.302125 
" clip-path="url(#pff65ac7ebb)" style="fill: none; stroke: #000000; stroke-width: 0.2; stroke-linecap: square"/>
   </g>
   <g id="line2d_13">
    <path d="M 43.034776 155.950125 
L 387.848234 155.950125 
" clip-path="url(#pff65ac7ebb)" style="fill: none; stroke: #000000; stroke-width: 0.2; stroke-linecap: square"/>
   </g>
   <g id="line2d_14">
    <path d="M 43.034776 147.598125 
L 387.848234 147.598125 
" clip-path="url(#pff65ac7ebb)" style="fill: none; stroke: #000000; stroke-width: 0.2; stroke-linecap: square"/>
   </g>
   <g id="line2d_15">
    <path d="M 43.034776 139.246125 
L 387.848234 139.246125 
" clip-path="url(#pff65ac7ebb)" style="fill: none; stroke: #000000; stroke-width: 0.2; stroke-linecap: square"/>
   </g>
   <g id="line2d_16">
    <path d="M 43.034776 130.894125 
L 387.848234 130.894125 
" clip-path="url(#pff65ac7ebb)" style="fill: none; stroke: #000000; stroke-width: 0.2; stroke-linecap: square"/>
   </g>
   <g id="line2d_17">
    <path d="M 43.034776 122.542125 
L 387.848234 122.542125 
" clip-path="url(#pff65ac7ebb)" style="fill: none; stroke: #000000; stroke-width: 0.2; stroke-linecap: square"/>
   </g>
   <g id="line2d_18">
    <path d="M 43.034776 114.190125 
L 387.848234 114.190125 
" clip-path="url(#pff65ac7ebb)" style="fill: none; stroke: #000000; stroke-width: 0.2; stroke-linecap: square"/>
   </g>
   <g id="line2d_19">
    <path d="M 43.034776 105.838125 
L 387.848234 105.838125 
" clip-path="url(#pff65ac7ebb)" style="fill: none; stroke: #000000; stroke-width: 0.2; stroke-linecap: square"/>
   </g>
   <g id="line2d_20">
    <path d="M 43.034776 97.486125 
L 387.848234 97.486125 
" clip-path="url(#pff65ac7ebb)" style="fill: none; stroke: #000000; stroke-width: 0.2; stroke-linecap: square"/>
   </g>
   <g id="line2d_21">
    <path d="M 43.034776 89.134125 
L 387.848234 89.134125 
" clip-path="url(#pff65ac7ebb)" style="fill: none; stroke: #000000; stroke-width: 0.2; stroke-linecap: square"/>
   </g>
   <g id="line2d_22">
    <path d="M 43.034776 80.782125 
L 387.848234 80.782125 
" clip-path="url(#pff65ac7ebb)" style="fill: none; stroke: #000000; stroke-width: 0.2; stroke-linecap: square"/>
   </g>
   <g id="line2d_23">
    <path d="M 43.034776 72.430125 
L 387.848234 72.430125 
" clip-path="url(#pff65ac7ebb)" style="fill: none; stroke: #000000; stroke-width: 0.2; stroke-linecap: square"/>
   </g>
   <g id="line2d_24">
    <path d="M 43.034776 64.078125 
L 387.848234 64.078125 
" clip-path="url(#pff65ac7ebb)" style="fill: none; stroke: #000000; stroke-width: 0.2; stroke-linecap: square"/>
   </g>
   <g id="line2d_25">
    <path d="M 43.034776 55.726125 
L 387.848234 55.726125 
" clip-path="url(#pff65ac7ebb)" style="fill: none; stroke: #000000; stroke-width: 0.2; stroke-linecap: square"/>
   </g>
   <g id="line2d_26">
    <path d="M 43.034776 47.374125 
L 387.848234 47.374125 
" clip-path="url(#pff65ac7ebb)" style="fill: none; stroke: #000000; stroke-width: 0.2; stroke-linecap: square"/>
   </g>
   <g id="line2d_27">
    <path d="M 43.034776 39.022125 
L 387.848234 39.022125 
" clip-path="url(#pff65ac7ebb)" style="fill: none; stroke: #000000; stroke-width: 0.2; stroke-linecap: square"/>
   </g>
   <g id="line2d_28">
    <path d="M 43.034776 30.670125 
L 387.848234 30.670125 
" clip-path="url(#pff65ac7ebb)" style="fill: none; stroke: #000000; stroke-width: 0.2; stroke-linecap: square"/>
   </g>
   <g id="line2d_29">
    <defs>
     <path id="m52b852bf82" d="M -0 3 
L 3 -3 
L -3 -3 
z
" style="stroke: #0000ff; stroke-opacity: 0.4; stroke-linejoin: miter"/>
    </defs>
    <g clip-path="url(#pff65ac7ebb)">
     <use xlink:href="#m52b852bf82" x="55.103247" y="139.246125" style="fill: #0000ff; fill-opacity: 0.4; stroke: #0000ff; stroke-opacity: 0.4; stroke-linejoin: miter"/>
    </g>
   </g>
   <g id="text_3">
    <!-- Event-based signal -->
    <g transform="translate(155.979625 16.318125) scale(0.12 -0.12)">
     <defs>
      <path id="DejaVuSans-45" d="M 628 4666 
L 3578 4666 
L 3578 4134 
L 1259 4134 
L 1259 2753 
L 3481 2753 
L 3481 2222 
L 1259 2222 
L 1259 531 
L 3634 531 
L 3634 0 
L 628 0 
L 628 4666 
z
" transform="scale(0.015625)"/>
      <path id="DejaVuSans-76" d="M 191 3500 
L 800 3500 
L 1894 563 
L 2988 3500 
L 3597 3500 
L 2284 0 
L 1503 0 
L 191 3500 
z
" transform="scale(0.015625)"/>
      <path id="DejaVuSans-62" d="M 3116 1747 
Q 3116 2381 2855 2742 
Q 2594 3103 2138 3103 
Q 1681 3103 1420 2742 
Q 1159 2381 1159 1747 
Q 1159 1113 1420 752 
Q 1681 391 2138 391 
Q 2594 391 2855 752 
Q 3116 1113 3116 1747 
z
M 1159 2969 
Q 1341 3281 1617 3432 
Q 1894 3584 2278 3584 
Q 2916 3584 3314 3078 
Q 3713 2572 3713 1747 
Q 3713 922 3314 415 
Q 2916 -91 2278 -91 
Q 1894 -91 1617 61 
Q 1341 213 1159 525 
L 1159 0 
L 581 0 
L 581 4863 
L 1159 4863 
L 1159 2969 
z
" transform="scale(0.015625)"/>
      <path id="DejaVuSans-61" d="M 2194 1759 
Q 1497 1759 1228 1600 
Q 959 1441 959 1056 
Q 959 750 1161 570 
Q 1363 391 1709 391 
Q 2188 391 2477 730 
Q 2766 1069 2766 1631 
L 2766 1759 
L 2194 1759 
z
M 3341 1997 
L 3341 0 
L 2766 0 
L 2766 531 
Q 2569 213 2275 61 
Q 1981 -91 1556 -91 
Q 1019 -91 701 211 
Q 384 513 384 1019 
Q 384 1609 779 1909 
Q 1175 2209 1959 2209 
L 2766 2209 
L 2766 2266 
Q 2766 2663 2505 2880 
Q 2244 3097 1772 3097 
Q 1472 3097 1187 3025 
Q 903 2953 641 2809 
L 641 3341 
Q 956 3463 1253 3523 
Q 1550 3584 1831 3584 
Q 2591 3584 2966 3190 
Q 3341 2797 3341 1997 
z
" transform="scale(0.015625)"/>
      <path id="DejaVuSans-64" d="M 2906 2969 
L 2906 4863 
L 3481 4863 
L 3481 0 
L 2906 0 
L 2906 525 
Q 2725 213 2448 61 
Q 2172 -91 1784 -91 
Q 1150 -91 751 415 
Q 353 922 353 1747 
Q 353 2572 751 3078 
Q 1150 3584 1784 3584 
Q 2172 3584 2448 3432 
Q 2725 3281 2906 2969 
z
M 947 1747 
Q 947 1113 1208 752 
Q 1469 391 1925 391 
Q 2381 391 2643 752 
Q 2906 1113 2906 1747 
Q 2906 2381 2643 2742 
Q 2381 3103 1925 3103 
Q 1469 3103 1208 2742 
Q 947 2381 947 1747 
z
" transform="scale(0.015625)"/>
     </defs>
     <use xlink:href="#DejaVuSans-45"/>
     <use xlink:href="#DejaVuSans-76" x="63.183594"/>
     <use xlink:href="#DejaVuSans-65" x="122.363281"/>
     <use xlink:href="#DejaVuSans-6e" x="183.886719"/>
     <use xlink:href="#DejaVuSans-74" x="247.265625"/>
     <use xlink:href="#DejaVuSans-2d" x="286.474609"/>
     <use xlink:href="#DejaVuSans-62" x="322.558594"/>
     <use xlink:href="#DejaVuSans-61" x="386.035156"/>
     <use xlink:href="#DejaVuSans-73" x="447.314453"/>
     <use xlink:href="#DejaVuSans-65" x="499.414062"/>
     <use xlink:href="#DejaVuSans-64" x="560.9375"/>
     <use xlink:href="#DejaVuSans-20" x="624.414062"/>
     <use xlink:href="#DejaVuSans-73" x="656.201172"/>
     <use xlink:href="#DejaVuSans-69" x="708.300781"/>
     <use xlink:href="#DejaVuSans-67" x="736.083984"/>
     <use xlink:href="#DejaVuSans-6e" x="799.560547"/>
     <use xlink:href="#DejaVuSans-61" x="862.939453"/>
     <use xlink:href="#DejaVuSans-6c" x="924.21875"/>
    </g>
   </g>
  </g>
 </g>
 <defs>
  <clipPath id="pff65ac7ebb">
   <rect x="20.878125" y="22.318125" width="384.444876" height="208.8"/>
  </clipPath>
 </defs>
</svg>
