<?xml version="1.0" encoding="utf-8" standalone="no"?>
<!DOCTYPE svg PUBLIC "-//W3C//DTD SVG 1.1//EN"
  "http://www.w3.org/Graphics/SVG/1.1/DTD/svg11.dtd">
<svg xmlns:xlink="http://www.w3.org/1999/xlink" width="412.523001pt" height="251.99625pt" viewBox="0 0 412.523001 251.99625" xmlns="http://www.w3.org/2000/svg" version="1.1">
 <metadata>
  <rdf:RDF xmlns:dc="http://purl.org/dc/elements/1.1/" xmlns:cc="http://creativecommons.org/ns#" xmlns:rdf="http://www.w3.org/1999/02/22-rdf-syntax-ns#">
   <cc:Work>
    <dc:type rdf:resource="http://purl.org/dc/dcmitype/StillImage"/>
    <dc:date>2023-09-07T23:46:57.812999</dc:date>
    <dc:format>image/svg+xml</dc:format>
    <dc:creator>
     <cc:Agent>
      <dc:title>Matplotlib v3.7.2, https://matplotlib.org/</dc:title>
     </cc:Agent>
    </dc:creator>
   </cc:Work>
  </rdf:RDF>
 </metadata>
 <defs>
  <style type="text/css">*{stroke-linejoin: round; stroke-linecap: butt}</style>
 </defs>
 <g id="figure_1">
  <g id="patch_1">
   <path d="M 0 251.99625 
L 412.523001 251.99625 
L 412.523001 0 
L 0 0 
L 0 251.99625 
z
" style="fill: none"/>
  </g>
  <g id="axes_1">
   <g id="patch_2">
    <path d="M 20.878125 231.118125 
L 405.323001 231.118125 
L 405.323001 22.318125 
L 20.878125 22.318125 
L 20.878125 231.118125 
z
" style="fill: none"/>
   </g>
   <g id="patch_3">
    <path d="M 387.848234 231.118125 
L 370.607561 236.338125 
L 375.779763 231.26303 
L 43.034776 231.26303 
L 43.034776 230.97322 
L 375.779763 230.97322 
L 370.607561 225.898125 
z
" style="stroke: #000000; stroke-linejoin: miter"/>
   </g>
   <g id="patch_4">
    <path d="M 43.034776 22.318125 
L 47.71666 41.540369 
L 43.035638 35.773696 
L 43.035638 231.118125 
L 43.033914 231.118125 
L 43.033914 35.773696 
L 38.352892 41.540369 
z
" style="stroke: #000000; stroke-linejoin: miter"/>
   </g>
   <g id="matplotlib.axis_1">
    <g id="text_1">
     <!-- Time (ms) -->
     <g transform="translate(187.901344 242.716563) scale(0.1 -0.1)">
      <defs>
       <path id="DejaVuSans-54" d="M -19 4666 
L 3928 4666 
L 3928 4134 
L 2272 4134 
L 2272 0 
L 1638 0 
L 1638 4134 
L -19 4134 
L -19 4666 
z
" transform="scale(0.015625)"/>
       <path id="DejaVuSans-69" d="M 603 3500 
L 1178 3500 
L 1178 0 
L 603 0 
L 603 3500 
z
M 603 4863 
L 1178 4863 
L 1178 4134 
L 603 4134 
L 603 4863 
z
" transform="scale(0.015625)"/>
       <path id="DejaVuSans-6d" d="M 3328 2828 
Q 3544 3216 3844 3400 
Q 4144 3584 4550 3584 
Q 5097 3584 5394 3201 
Q 5691 2819 5691 2113 
L 5691 0 
L 5113 0 
L 5113 2094 
Q 5113 2597 4934 2840 
Q 4756 3084 4391 3084 
Q 3944 3084 3684 2787 
Q 3425 2491 3425 1978 
L 3425 0 
L 2847 0 
L 2847 2094 
Q 2847 2600 2669 2842 
Q 2491 3084 2119 3084 
Q 1678 3084 1418 2786 
Q 1159 2488 1159 1978 
L 1159 0 
L 581 0 
L 581 3500 
L 1159 3500 
L 1159 2956 
Q 1356 3278 1631 3431 
Q 1906 3584 2284 3584 
Q 2666 3584 2933 3390 
Q 3200 3197 3328 2828 
z
" transform="scale(0.015625)"/>
       <path id="DejaVuSans-65" d="M 3597 1894 
L 3597 1613 
L 953 1613 
Q 991 1019 1311 708 
Q 1631 397 2203 397 
Q 2534 397 2845 478 
Q 3156 559 3463 722 
L 3463 178 
Q 3153 47 2828 -22 
Q 2503 -91 2169 -91 
Q 1331 -91 842 396 
Q 353 884 353 1716 
Q 353 2575 817 3079 
Q 1281 3584 2069 3584 
Q 2775 3584 3186 3129 
Q 3597 2675 3597 1894 
z
M 3022 2063 
Q 3016 2534 2758 2815 
Q 2500 3097 2075 3097 
Q 1594 3097 1305 2825 
Q 1016 2553 972 2059 
L 3022 2063 
z
" transform="scale(0.015625)"/>
       <path id="DejaVuSans-20" transform="scale(0.015625)"/>
       <path id="DejaVuSans-28" d="M 1984 4856 
Q 1566 4138 1362 3434 
Q 1159 2731 1159 2009 
Q 1159 1288 1364 580 
Q 1569 -128 1984 -844 
L 1484 -844 
Q 1016 -109 783 600 
Q 550 1309 550 2009 
Q 550 2706 781 3412 
Q 1013 4119 1484 4856 
L 1984 4856 
z
" transform="scale(0.015625)"/>
       <path id="DejaVuSans-73" d="M 2834 3397 
L 2834 2853 
Q 2591 2978 2328 3040 
Q 2066 3103 1784 3103 
Q 1356 3103 1142 2972 
Q 928 2841 928 2578 
Q 928 2378 1081 2264 
Q 1234 2150 1697 2047 
L 1894 2003 
Q 2506 1872 2764 1633 
Q 3022 1394 3022 966 
Q 3022 478 2636 193 
Q 2250 -91 1575 -91 
Q 1294 -91 989 -36 
Q 684 19 347 128 
L 347 722 
Q 666 556 975 473 
Q 1284 391 1588 391 
Q 1994 391 2212 530 
Q 2431 669 2431 922 
Q 2431 1156 2273 1281 
Q 2116 1406 1581 1522 
L 1381 1569 
Q 847 1681 609 1914 
Q 372 2147 372 2553 
Q 372 3047 722 3315 
Q 1072 3584 1716 3584 
Q 2034 3584 2315 3537 
Q 2597 3491 2834 3397 
z
" transform="scale(0.015625)"/>
       <path id="DejaVuSans-29" d="M 513 4856 
L 1013 4856 
Q 1481 4119 1714 3412 
Q 1947 2706 1947 2009 
Q 1947 1309 1714 600 
Q 1481 -109 1013 -844 
L 513 -844 
Q 928 -128 1133 580 
Q 1338 1288 1338 2009 
Q 1338 2731 1133 3434 
Q 928 4138 513 4856 
z
" transform="scale(0.015625)"/>
      </defs>
      <use xlink:href="#DejaVuSans-54"/>
      <use xlink:href="#DejaVuSans-69" x="57.958984"/>
      <use xlink:href="#DejaVuSans-6d" x="85.742188"/>
      <use xlink:href="#DejaVuSans-65" x="183.154297"/>
      <use xlink:href="#DejaVuSans-20" x="244.677734"/>
      <use xlink:href="#DejaVuSans-28" x="276.464844"/>
      <use xlink:href="#DejaVuSans-6d" x="315.478516"/>
      <use xlink:href="#DejaVuSans-73" x="412.890625"/>
      <use xlink:href="#DejaVuSans-29" x="464.990234"/>
     </g>
    </g>
   </g>
   <g id="matplotlib.axis_2">
    <g id="text_2">
     <!-- log-Intensity -->
     <g transform="translate(14.798438 157.907187) rotate(-90) scale(0.1 -0.1)">
      <defs>
       <path id="DejaVuSans-6c" d="M 603 4863 
L 1178 4863 
L 1178 0 
L 603 0 
L 603 4863 
z
" transform="scale(0.015625)"/>
       <path id="DejaVuSans-6f" d="M 1959 3097 
Q 1497 3097 1228 2736 
Q 959 2375 959 1747 
Q 959 1119 1226 758 
Q 1494 397 1959 397 
Q 2419 397 2687 759 
Q 2956 1122 2956 1747 
Q 2956 2369 2687 2733 
Q 2419 3097 1959 3097 
z
M 1959 3584 
Q 2709 3584 3137 3096 
Q 3566 2609 3566 1747 
Q 3566 888 3137 398 
Q 2709 -91 1959 -91 
Q 1206 -91 779 398 
Q 353 888 353 1747 
Q 353 2609 779 3096 
Q 1206 3584 1959 3584 
z
" transform="scale(0.015625)"/>
       <path id="DejaVuSans-67" d="M 2906 1791 
Q 2906 2416 2648 2759 
Q 2391 3103 1925 3103 
Q 1463 3103 1205 2759 
Q 947 2416 947 1791 
Q 947 1169 1205 825 
Q 1463 481 1925 481 
Q 2391 481 2648 825 
Q 2906 1169 2906 1791 
z
M 3481 434 
Q 3481 -459 3084 -895 
Q 2688 -1331 1869 -1331 
Q 1566 -1331 1297 -1286 
Q 1028 -1241 775 -1147 
L 775 -588 
Q 1028 -725 1275 -790 
Q 1522 -856 1778 -856 
Q 2344 -856 2625 -561 
Q 2906 -266 2906 331 
L 2906 616 
Q 2728 306 2450 153 
Q 2172 0 1784 0 
Q 1141 0 747 490 
Q 353 981 353 1791 
Q 353 2603 747 3093 
Q 1141 3584 1784 3584 
Q 2172 3584 2450 3431 
Q 2728 3278 2906 2969 
L 2906 3500 
L 3481 3500 
L 3481 434 
z
" transform="scale(0.015625)"/>
       <path id="DejaVuSans-2d" d="M 313 2009 
L 1997 2009 
L 1997 1497 
L 313 1497 
L 313 2009 
z
" transform="scale(0.015625)"/>
       <path id="DejaVuSans-49" d="M 628 4666 
L 1259 4666 
L 1259 0 
L 628 0 
L 628 4666 
z
" transform="scale(0.015625)"/>
       <path id="DejaVuSans-6e" d="M 3513 2113 
L 3513 0 
L 2938 0 
L 2938 2094 
Q 2938 2591 2744 2837 
Q 2550 3084 2163 3084 
Q 1697 3084 1428 2787 
Q 1159 2491 1159 1978 
L 1159 0 
L 581 0 
L 581 3500 
L 1159 3500 
L 1159 2956 
Q 1366 3272 1645 3428 
Q 1925 3584 2291 3584 
Q 2894 3584 3203 3211 
Q 3513 2838 3513 2113 
z
" transform="scale(0.015625)"/>
       <path id="DejaVuSans-74" d="M 1172 4494 
L 1172 3500 
L 2356 3500 
L 2356 3053 
L 1172 3053 
L 1172 1153 
Q 1172 725 1289 603 
Q 1406 481 1766 481 
L 2356 481 
L 2356 0 
L 1766 0 
Q 1100 0 847 248 
Q 594 497 594 1153 
L 594 3053 
L 172 3053 
L 172 3500 
L 594 3500 
L 594 4494 
L 1172 4494 
z
" transform="scale(0.015625)"/>
       <path id="DejaVuSans-79" d="M 2059 -325 
Q 1816 -950 1584 -1140 
Q 1353 -1331 966 -1331 
L 506 -1331 
L 506 -850 
L 844 -850 
Q 1081 -850 1212 -737 
Q 1344 -625 1503 -206 
L 1606 56 
L 191 3500 
L 800 3500 
L 1894 763 
L 2988 3500 
L 3597 3500 
L 2059 -325 
z
" transform="scale(0.015625)"/>
      </defs>
      <use xlink:href="#DejaVuSans-6c"/>
      <use xlink:href="#DejaVuSans-6f" x="27.783203"/>
      <use xlink:href="#DejaVuSans-67" x="88.964844"/>
      <use xlink:href="#DejaVuSans-2d" x="152.441406"/>
      <use xlink:href="#DejaVuSans-49" x="188.525391"/>
      <use xlink:href="#DejaVuSans-6e" x="218.017578"/>
      <use xlink:href="#DejaVuSans-74" x="281.396484"/>
      <use xlink:href="#DejaVuSans-65" x="320.605469"/>
      <use xlink:href="#DejaVuSans-6e" x="382.128906"/>
      <use xlink:href="#DejaVuSans-73" x="445.507812"/>
      <use xlink:href="#DejaVuSans-69" x="497.607422"/>
      <use xlink:href="#DejaVuSans-74" x="525.390625"/>
      <use xlink:href="#DejaVuSans-79" x="564.599609"/>
     </g>
    </g>
   </g>
   <g id="line2d_1">
    <path d="M 43.034776 129.501824 
L 44.758843 130.377732 
L 46.48291 132.166349 
L 48.206978 133.3773 
L 49.931045 133.817649 
L 53.37918 134.253916 
L 55.103247 135.641445 
L 58.551382 141.698109 
L 60.275449 142.742022 
L 63.723583 142.178287 
L 65.447651 141.710471 
L 68.895785 140.329191 
L 70.619853 139.989818 
L 72.34392 139.869012 
L 74.067987 140.046155 
L 75.792054 141.03237 
L 77.516122 142.667474 
L 79.240189 143.535045 
L 80.964256 143.475699 
L 82.688324 142.961149 
L 86.136458 141.452713 
L 87.860525 140.654439 
L 89.584593 139.661187 
L 91.30866 138.464903 
L 93.032727 137.500479 
L 94.756795 137.010127 
L 96.480862 136.386901 
L 98.204929 134.962152 
L 99.928996 133.150732 
L 101.653064 131.872885 
L 103.377131 131.373082 
L 105.101198 131.581532 
L 106.825266 132.775099 
L 108.549333 133.57929 
L 110.2734 133.875137 
L 111.997467 134.813946 
L 113.721535 136.022034 
L 115.445602 136.053663 
L 117.169669 134.742646 
L 118.893737 133.114428 
L 120.617804 132.070752 
L 122.341871 131.691731 
L 124.065938 131.694606 
L 125.790006 131.889836 
L 129.23814 132.598676 
L 130.962208 133.181513 
L 134.410342 135.104017 
L 136.13441 135.58469 
L 137.858477 135.303476 
L 139.582544 134.064518 
L 146.478813 130.044908 
L 148.202881 129.929852 
L 149.926948 130.761524 
L 151.651015 132.105198 
L 153.375082 133.013173 
L 155.09915 133.333603 
L 156.823217 133.006985 
L 161.995419 132.740309 
L 163.719486 133.203291 
L 165.443553 135.055722 
L 167.167621 137.291178 
L 168.891688 137.269483 
L 170.615755 134.282954 
L 172.339823 130.560678 
L 174.06389 126.426335 
L 175.787957 120.443426 
L 180.960159 98.609453 
L 182.684226 85.891329 
L 184.408294 60.378568 
L 186.132361 32.947863 
L 187.856428 32.260982 
L 189.580495 57.880771 
L 191.304563 81.573278 
L 193.02863 91.935738 
L 194.752697 94.817526 
L 196.476765 96.822057 
L 198.200832 101.592524 
L 199.924899 107.915758 
L 201.648966 112.274382 
L 203.373034 113.134842 
L 205.097101 113.837987 
L 206.821168 118.724518 
L 208.545236 124.586676 
L 210.269303 128.190367 
L 211.99337 126.639187 
L 213.717437 120.814796 
L 217.165572 104.367044 
L 218.889639 101.370802 
L 220.613707 105.103209 
L 222.337774 111.66507 
L 224.061841 116.481546 
L 225.785909 119.156459 
L 227.509976 119.728228 
L 229.234043 118.169845 
L 230.95811 114.581782 
L 232.682178 111.675364 
L 234.406245 115.695147 
L 236.130312 130.919024 
L 239.578447 182.174501 
L 241.302514 195.459264 
L 243.026581 199.748219 
L 244.750649 199.715993 
L 246.474716 198.199595 
L 248.198783 196.186971 
L 249.922851 194.362709 
L 251.646918 193.991731 
L 253.370985 195.658768 
L 255.095052 198.045041 
L 256.81912 199.376974 
L 258.543187 199.123004 
L 260.267254 198.378914 
L 261.991322 198.2877 
L 263.715389 199.374805 
L 265.439456 201.016777 
L 267.163523 202.006116 
L 268.887591 201.782503 
L 272.335725 200.078725 
L 274.059793 199.600004 
L 275.78386 199.658163 
L 277.507927 200.04904 
L 279.231994 200.054441 
L 280.956062 199.10721 
L 282.680129 197.489301 
L 284.404196 196.287802 
L 287.852331 195.239901 
L 289.576398 193.962111 
L 291.300465 192.081962 
L 293.024533 190.813554 
L 294.7486 191.22059 
L 296.472667 192.618287 
L 298.196735 193.825801 
L 299.920802 194.075512 
L 301.644869 193.74171 
L 303.368937 193.626513 
L 305.093004 193.837621 
L 306.817071 194.287967 
L 308.541138 195.542471 
L 310.265206 197.11413 
L 311.989273 197.912351 
L 313.71334 197.852188 
L 315.437408 197.265067 
L 317.161475 196.22538 
L 318.885542 194.996925 
L 320.609609 194.05619 
L 322.333677 193.298297 
L 324.057744 192.927014 
L 325.781811 192.709535 
L 327.505879 192.777595 
L 329.229946 193.116372 
L 332.67808 194.124781 
L 334.402148 193.877965 
L 337.850282 192.869682 
L 339.57435 191.998354 
L 341.298417 190.94862 
L 343.022484 190.339634 
L 344.746551 190.358423 
L 346.470619 191.172437 
L 348.194686 192.573713 
L 349.918753 193.614067 
L 351.642821 193.6208 
L 353.366888 193.011055 
L 355.090955 192.756102 
L 356.815022 192.822135 
L 358.53909 193.102385 
L 360.263157 194.079883 
L 361.987224 195.427663 
L 363.711292 195.566878 
L 365.435359 194.31342 
L 367.159426 191.454888 
L 368.883493 186.527658 
L 370.607561 176.832057 
L 372.331628 157.744548 
L 374.055695 134.460612 
L 375.779763 120.840464 
L 377.50383 116.679116 
L 379.227897 116.357486 
L 380.951964 115.823621 
L 382.676032 114.145637 
L 384.400099 112.741231 
L 386.124166 114.293138 
L 386.124166 114.293138 
" clip-path="url(#p2832dfe56e)" style="fill: none; stroke: #1f77b4; stroke-width: 1.5; stroke-linecap: square"/>
   </g>
   <g id="line2d_2">
    <path d="M 43.034776 231.118125 
L 387.848234 231.118125 
" clip-path="url(#p2832dfe56e)" style="fill: none; stroke: #000000; stroke-width: 0.2; stroke-linecap: square"/>
   </g>
   <g id="line2d_3">
    <path d="M 43.034776 220.128651 
L 387.848234 220.128651 
" clip-path="url(#p2832dfe56e)" style="fill: none; stroke: #000000; stroke-width: 0.2; stroke-linecap: square"/>
   </g>
   <g id="line2d_4">
    <path d="M 43.034776 209.139178 
L 387.848234 209.139178 
" clip-path="url(#p2832dfe56e)" style="fill: none; stroke: #000000; stroke-width: 0.2; stroke-linecap: square"/>
   </g>
   <g id="line2d_5">
    <path d="M 43.034776 198.149704 
L 387.848234 198.149704 
" clip-path="url(#p2832dfe56e)" style="fill: none; stroke: #000000; stroke-width: 0.2; stroke-linecap: square"/>
   </g>
   <g id="line2d_6">
    <path d="M 43.034776 187.16023 
L 387.848234 187.16023 
" clip-path="url(#p2832dfe56e)" style="fill: none; stroke: #000000; stroke-width: 0.2; stroke-linecap: square"/>
   </g>
   <g id="line2d_7">
    <path d="M 43.034776 176.170757 
L 387.848234 176.170757 
" clip-path="url(#p2832dfe56e)" style="fill: none; stroke: #000000; stroke-width: 0.2; stroke-linecap: square"/>
   </g>
   <g id="line2d_8">
    <path d="M 43.034776 165.181283 
L 387.848234 165.181283 
" clip-path="url(#p2832dfe56e)" style="fill: none; stroke: #000000; stroke-width: 0.2; stroke-linecap: square"/>
   </g>
   <g id="line2d_9">
    <path d="M 43.034776 154.191809 
L 387.848234 154.191809 
" clip-path="url(#p2832dfe56e)" style="fill: none; stroke: #000000; stroke-width: 0.2; stroke-linecap: square"/>
   </g>
   <g id="line2d_10">
    <path d="M 43.034776 143.202336 
L 387.848234 143.202336 
" clip-path="url(#p2832dfe56e)" style="fill: none; stroke: #000000; stroke-width: 0.2; stroke-linecap: square"/>
   </g>
   <g id="line2d_11">
    <path d="M 43.034776 132.212862 
L 387.848234 132.212862 
" clip-path="url(#p2832dfe56e)" style="fill: none; stroke: #000000; stroke-width: 0.2; stroke-linecap: square"/>
   </g>
   <g id="line2d_12">
    <path d="M 43.034776 121.223388 
L 387.848234 121.223388 
" clip-path="url(#p2832dfe56e)" style="fill: none; stroke: #000000; stroke-width: 0.2; stroke-linecap: square"/>
   </g>
   <g id="line2d_13">
    <path d="M 43.034776 110.233914 
L 387.848234 110.233914 
" clip-path="url(#p2832dfe56e)" style="fill: none; stroke: #000000; stroke-width: 0.2; stroke-linecap: square"/>
   </g>
   <g id="line2d_14">
    <path d="M 43.034776 99.244441 
L 387.848234 99.244441 
" clip-path="url(#p2832dfe56e)" style="fill: none; stroke: #000000; stroke-width: 0.2; stroke-linecap: square"/>
   </g>
   <g id="line2d_15">
    <path d="M 43.034776 88.254967 
L 387.848234 88.254967 
" clip-path="url(#p2832dfe56e)" style="fill: none; stroke: #000000; stroke-width: 0.2; stroke-linecap: square"/>
   </g>
   <g id="line2d_16">
    <path d="M 43.034776 77.265493 
L 387.848234 77.265493 
" clip-path="url(#p2832dfe56e)" style="fill: none; stroke: #000000; stroke-width: 0.2; stroke-linecap: square"/>
   </g>
   <g id="line2d_17">
    <path d="M 43.034776 66.27602 
L 387.848234 66.27602 
" clip-path="url(#p2832dfe56e)" style="fill: none; stroke: #000000; stroke-width: 0.2; stroke-linecap: square"/>
   </g>
   <g id="line2d_18">
    <path d="M 43.034776 55.286546 
L 387.848234 55.286546 
" clip-path="url(#p2832dfe56e)" style="fill: none; stroke: #000000; stroke-width: 0.2; stroke-linecap: square"/>
   </g>
   <g id="line2d_19">
    <path d="M 43.034776 44.297072 
L 387.848234 44.297072 
" clip-path="url(#p2832dfe56e)" style="fill: none; stroke: #000000; stroke-width: 0.2; stroke-linecap: square"/>
   </g>
   <g id="line2d_20">
    <path d="M 43.034776 33.307599 
L 387.848234 33.307599 
" clip-path="url(#p2832dfe56e)" style="fill: none; stroke: #000000; stroke-width: 0.2; stroke-linecap: square"/>
   </g>
   <g id="line2d_21">
    <path d="M 43.034776 22.318125 
L 387.848234 22.318125 
" clip-path="url(#p2832dfe56e)" style="fill: none; stroke: #000000; stroke-width: 0.2; stroke-linecap: square"/>
   </g>
   <g id="line2d_22">
    <defs>
     <path id="m74868e9e90" d="M -0 3 
L 3 -3 
L -3 -3 
z
" style="stroke: #0000ff; stroke-opacity: 0.4; stroke-linejoin: miter"/>
    </defs>
    <g clip-path="url(#p2832dfe56e)">
     <use xlink:href="#m74868e9e90" x="79.240189" y="143.202336" style="fill: #0000ff; fill-opacity: 0.4; stroke: #0000ff; stroke-opacity: 0.4; stroke-linejoin: miter"/>
    </g>
   </g>
   <g id="line2d_23">
    <defs>
     <path id="m3539acd037" d="M 0 -3 
L -3 3 
L 3 3 
z
" style="stroke: #ff0000; stroke-opacity: 0.4; stroke-linejoin: miter"/>
    </defs>
    <g clip-path="url(#p2832dfe56e)">
     <use xlink:href="#m3539acd037" x="101.653064" y="132.212862" style="fill: #ff0000; fill-opacity: 0.4; stroke: #ff0000; stroke-opacity: 0.4; stroke-linejoin: miter"/>
    </g>
   </g>
   <g id="line2d_24">
    <g clip-path="url(#p2832dfe56e)">
     <use xlink:href="#m3539acd037" x="175.787957" y="121.223388" style="fill: #ff0000; fill-opacity: 0.4; stroke: #ff0000; stroke-opacity: 0.4; stroke-linejoin: miter"/>
    </g>
   </g>
   <g id="line2d_25">
    <g clip-path="url(#p2832dfe56e)">
     <use xlink:href="#m3539acd037" x="179.236092" y="110.233914" style="fill: #ff0000; fill-opacity: 0.4; stroke: #ff0000; stroke-opacity: 0.4; stroke-linejoin: miter"/>
    </g>
   </g>
   <g id="line2d_26">
    <g clip-path="url(#p2832dfe56e)">
     <use xlink:href="#m3539acd037" x="180.960159" y="99.244441" style="fill: #ff0000; fill-opacity: 0.4; stroke: #ff0000; stroke-opacity: 0.4; stroke-linejoin: miter"/>
    </g>
   </g>
   <g id="line2d_27">
    <g clip-path="url(#p2832dfe56e)">
     <use xlink:href="#m3539acd037" x="182.684226" y="88.254967" style="fill: #ff0000; fill-opacity: 0.4; stroke: #ff0000; stroke-opacity: 0.4; stroke-linejoin: miter"/>
    </g>
   </g>
   <g id="line2d_28">
    <g clip-path="url(#p2832dfe56e)">
     <use xlink:href="#m3539acd037" x="184.408294" y="77.265493" style="fill: #ff0000; fill-opacity: 0.4; stroke: #ff0000; stroke-opacity: 0.4; stroke-linejoin: miter"/>
    </g>
   </g>
   <g id="line2d_29">
    <g clip-path="url(#p2832dfe56e)">
     <use xlink:href="#m3539acd037" x="184.408294" y="66.27602" style="fill: #ff0000; fill-opacity: 0.4; stroke: #ff0000; stroke-opacity: 0.4; stroke-linejoin: miter"/>
    </g>
   </g>
   <g id="line2d_30">
    <g clip-path="url(#p2832dfe56e)">
     <use xlink:href="#m3539acd037" x="186.132361" y="55.286546" style="fill: #ff0000; fill-opacity: 0.4; stroke: #ff0000; stroke-opacity: 0.4; stroke-linejoin: miter"/>
    </g>
   </g>
   <g id="line2d_31">
    <g clip-path="url(#p2832dfe56e)">
     <use xlink:href="#m3539acd037" x="186.132361" y="44.297072" style="fill: #ff0000; fill-opacity: 0.4; stroke: #ff0000; stroke-opacity: 0.4; stroke-linejoin: miter"/>
    </g>
   </g>
   <g id="line2d_32">
    <g clip-path="url(#p2832dfe56e)">
     <use xlink:href="#m3539acd037" x="186.132361" y="33.307599" style="fill: #ff0000; fill-opacity: 0.4; stroke: #ff0000; stroke-opacity: 0.4; stroke-linejoin: miter"/>
    </g>
   </g>
   <g id="line2d_33">
    <g clip-path="url(#p2832dfe56e)">
     <use xlink:href="#m74868e9e90" x="189.580495" y="44.297072" style="fill: #0000ff; fill-opacity: 0.4; stroke: #0000ff; stroke-opacity: 0.4; stroke-linejoin: miter"/>
    </g>
   </g>
   <g id="line2d_34">
    <g clip-path="url(#p2832dfe56e)">
     <use xlink:href="#m74868e9e90" x="189.580495" y="55.286546" style="fill: #0000ff; fill-opacity: 0.4; stroke: #0000ff; stroke-opacity: 0.4; stroke-linejoin: miter"/>
    </g>
   </g>
   <g id="line2d_35">
    <g clip-path="url(#p2832dfe56e)">
     <use xlink:href="#m74868e9e90" x="191.304563" y="66.27602" style="fill: #0000ff; fill-opacity: 0.4; stroke: #0000ff; stroke-opacity: 0.4; stroke-linejoin: miter"/>
    </g>
   </g>
   <g id="line2d_36">
    <g clip-path="url(#p2832dfe56e)">
     <use xlink:href="#m74868e9e90" x="191.304563" y="77.265493" style="fill: #0000ff; fill-opacity: 0.4; stroke: #0000ff; stroke-opacity: 0.4; stroke-linejoin: miter"/>
    </g>
   </g>
   <g id="line2d_37">
    <g clip-path="url(#p2832dfe56e)">
     <use xlink:href="#m74868e9e90" x="193.02863" y="88.254967" style="fill: #0000ff; fill-opacity: 0.4; stroke: #0000ff; stroke-opacity: 0.4; stroke-linejoin: miter"/>
    </g>
   </g>
   <g id="line2d_38">
    <g clip-path="url(#p2832dfe56e)">
     <use xlink:href="#m74868e9e90" x="198.200832" y="99.244441" style="fill: #0000ff; fill-opacity: 0.4; stroke: #0000ff; stroke-opacity: 0.4; stroke-linejoin: miter"/>
    </g>
   </g>
   <g id="line2d_39">
    <g clip-path="url(#p2832dfe56e)">
     <use xlink:href="#m74868e9e90" x="201.648966" y="110.233914" style="fill: #0000ff; fill-opacity: 0.4; stroke: #0000ff; stroke-opacity: 0.4; stroke-linejoin: miter"/>
    </g>
   </g>
   <g id="line2d_40">
    <g clip-path="url(#p2832dfe56e)">
     <use xlink:href="#m74868e9e90" x="208.545236" y="121.223388" style="fill: #0000ff; fill-opacity: 0.4; stroke: #0000ff; stroke-opacity: 0.4; stroke-linejoin: miter"/>
    </g>
   </g>
   <g id="line2d_41">
    <g clip-path="url(#p2832dfe56e)">
     <use xlink:href="#m3539acd037" x="217.165572" y="110.233914" style="fill: #ff0000; fill-opacity: 0.4; stroke: #ff0000; stroke-opacity: 0.4; stroke-linejoin: miter"/>
    </g>
   </g>
   <g id="line2d_42">
    <g clip-path="url(#p2832dfe56e)">
     <use xlink:href="#m74868e9e90" x="236.130312" y="121.223388" style="fill: #0000ff; fill-opacity: 0.4; stroke: #0000ff; stroke-opacity: 0.4; stroke-linejoin: miter"/>
    </g>
   </g>
   <g id="line2d_43">
    <g clip-path="url(#p2832dfe56e)">
     <use xlink:href="#m74868e9e90" x="237.85438" y="132.212862" style="fill: #0000ff; fill-opacity: 0.4; stroke: #0000ff; stroke-opacity: 0.4; stroke-linejoin: miter"/>
    </g>
   </g>
   <g id="line2d_44">
    <g clip-path="url(#p2832dfe56e)">
     <use xlink:href="#m74868e9e90" x="237.85438" y="143.202336" style="fill: #0000ff; fill-opacity: 0.4; stroke: #0000ff; stroke-opacity: 0.4; stroke-linejoin: miter"/>
    </g>
   </g>
   <g id="line2d_45">
    <g clip-path="url(#p2832dfe56e)">
     <use xlink:href="#m74868e9e90" x="237.85438" y="154.191809" style="fill: #0000ff; fill-opacity: 0.4; stroke: #0000ff; stroke-opacity: 0.4; stroke-linejoin: miter"/>
    </g>
   </g>
   <g id="line2d_46">
    <g clip-path="url(#p2832dfe56e)">
     <use xlink:href="#m74868e9e90" x="239.578447" y="165.181283" style="fill: #0000ff; fill-opacity: 0.4; stroke: #0000ff; stroke-opacity: 0.4; stroke-linejoin: miter"/>
    </g>
   </g>
   <g id="line2d_47">
    <g clip-path="url(#p2832dfe56e)">
     <use xlink:href="#m74868e9e90" x="239.578447" y="176.170757" style="fill: #0000ff; fill-opacity: 0.4; stroke: #0000ff; stroke-opacity: 0.4; stroke-linejoin: miter"/>
    </g>
   </g>
   <g id="line2d_48">
    <g clip-path="url(#p2832dfe56e)">
     <use xlink:href="#m74868e9e90" x="241.302514" y="187.16023" style="fill: #0000ff; fill-opacity: 0.4; stroke: #0000ff; stroke-opacity: 0.4; stroke-linejoin: miter"/>
    </g>
   </g>
   <g id="line2d_49">
    <g clip-path="url(#p2832dfe56e)">
     <use xlink:href="#m74868e9e90" x="243.026581" y="198.149704" style="fill: #0000ff; fill-opacity: 0.4; stroke: #0000ff; stroke-opacity: 0.4; stroke-linejoin: miter"/>
    </g>
   </g>
   <g id="line2d_50">
    <g clip-path="url(#p2832dfe56e)">
     <use xlink:href="#m3539acd037" x="368.883493" y="187.16023" style="fill: #ff0000; fill-opacity: 0.4; stroke: #ff0000; stroke-opacity: 0.4; stroke-linejoin: miter"/>
    </g>
   </g>
   <g id="line2d_51">
    <g clip-path="url(#p2832dfe56e)">
     <use xlink:href="#m3539acd037" x="372.331628" y="176.170757" style="fill: #ff0000; fill-opacity: 0.4; stroke: #ff0000; stroke-opacity: 0.4; stroke-linejoin: miter"/>
    </g>
   </g>
   <g id="line2d_52">
    <g clip-path="url(#p2832dfe56e)">
     <use xlink:href="#m3539acd037" x="372.331628" y="165.181283" style="fill: #ff0000; fill-opacity: 0.4; stroke: #ff0000; stroke-opacity: 0.4; stroke-linejoin: miter"/>
    </g>
   </g>
   <g id="line2d_53">
    <g clip-path="url(#p2832dfe56e)">
     <use xlink:href="#m3539acd037" x="374.055695" y="154.191809" style="fill: #ff0000; fill-opacity: 0.4; stroke: #ff0000; stroke-opacity: 0.4; stroke-linejoin: miter"/>
    </g>
   </g>
   <g id="line2d_54">
    <g clip-path="url(#p2832dfe56e)">
     <use xlink:href="#m3539acd037" x="374.055695" y="143.202336" style="fill: #ff0000; fill-opacity: 0.4; stroke: #ff0000; stroke-opacity: 0.4; stroke-linejoin: miter"/>
    </g>
   </g>
   <g id="line2d_55">
    <g clip-path="url(#p2832dfe56e)">
     <use xlink:href="#m3539acd037" x="375.779763" y="132.212862" style="fill: #ff0000; fill-opacity: 0.4; stroke: #ff0000; stroke-opacity: 0.4; stroke-linejoin: miter"/>
    </g>
   </g>
   <g id="line2d_56">
    <g clip-path="url(#p2832dfe56e)">
     <use xlink:href="#m3539acd037" x="375.779763" y="121.223388" style="fill: #ff0000; fill-opacity: 0.4; stroke: #ff0000; stroke-opacity: 0.4; stroke-linejoin: miter"/>
    </g>
   </g>
   <g id="text_3">
    <!-- Event-based signal -->
    <g transform="translate(155.979625 16.318125) scale(0.12 -0.12)">
     <defs>
      <path id="DejaVuSans-45" d="M 628 4666 
L 3578 4666 
L 3578 4134 
L 1259 4134 
L 1259 2753 
L 3481 2753 
L 3481 2222 
L 1259 2222 
L 1259 531 
L 3634 531 
L 3634 0 
L 628 0 
L 628 4666 
z
" transform="scale(0.015625)"/>
      <path id="DejaVuSans-76" d="M 191 3500 
L 800 3500 
L 1894 563 
L 2988 3500 
L 3597 3500 
L 2284 0 
L 1503 0 
L 191 3500 
z
" transform="scale(0.015625)"/>
      <path id="DejaVuSans-62" d="M 3116 1747 
Q 3116 2381 2855 2742 
Q 2594 3103 2138 3103 
Q 1681 3103 1420 2742 
Q 1159 2381 1159 1747 
Q 1159 1113 1420 752 
Q 1681 391 2138 391 
Q 2594 391 2855 752 
Q 3116 1113 3116 1747 
z
M 1159 2969 
Q 1341 3281 1617 3432 
Q 1894 3584 2278 3584 
Q 2916 3584 3314 3078 
Q 3713 2572 3713 1747 
Q 3713 922 3314 415 
Q 2916 -91 2278 -91 
Q 1894 -91 1617 61 
Q 1341 213 1159 525 
L 1159 0 
L 581 0 
L 581 4863 
L 1159 4863 
L 1159 2969 
z
" transform="scale(0.015625)"/>
      <path id="DejaVuSans-61" d="M 2194 1759 
Q 1497 1759 1228 1600 
Q 959 1441 959 1056 
Q 959 750 1161 570 
Q 1363 391 1709 391 
Q 2188 391 2477 730 
Q 2766 1069 2766 1631 
L 2766 1759 
L 2194 1759 
z
M 3341 1997 
L 3341 0 
L 2766 0 
L 2766 531 
Q 2569 213 2275 61 
Q 1981 -91 1556 -91 
Q 1019 -91 701 211 
Q 384 513 384 1019 
Q 384 1609 779 1909 
Q 1175 2209 1959 2209 
L 2766 2209 
L 2766 2266 
Q 2766 2663 2505 2880 
Q 2244 3097 1772 3097 
Q 1472 3097 1187 3025 
Q 903 2953 641 2809 
L 641 3341 
Q 956 3463 1253 3523 
Q 1550 3584 1831 3584 
Q 2591 3584 2966 3190 
Q 3341 2797 3341 1997 
z
" transform="scale(0.015625)"/>
      <path id="DejaVuSans-64" d="M 2906 2969 
L 2906 4863 
L 3481 4863 
L 3481 0 
L 2906 0 
L 2906 525 
Q 2725 213 2448 61 
Q 2172 -91 1784 -91 
Q 1150 -91 751 415 
Q 353 922 353 1747 
Q 353 2572 751 3078 
Q 1150 3584 1784 3584 
Q 2172 3584 2448 3432 
Q 2725 3281 2906 2969 
z
M 947 1747 
Q 947 1113 1208 752 
Q 1469 391 1925 391 
Q 2381 391 2643 752 
Q 2906 1113 2906 1747 
Q 2906 2381 2643 2742 
Q 2381 3103 1925 3103 
Q 1469 3103 1208 2742 
Q 947 2381 947 1747 
z
" transform="scale(0.015625)"/>
     </defs>
     <use xlink:href="#DejaVuSans-45"/>
     <use xlink:href="#DejaVuSans-76" x="63.183594"/>
     <use xlink:href="#DejaVuSans-65" x="122.363281"/>
     <use xlink:href="#DejaVuSans-6e" x="183.886719"/>
     <use xlink:href="#DejaVuSans-74" x="247.265625"/>
     <use xlink:href="#DejaVuSans-2d" x="286.474609"/>
     <use xlink:href="#DejaVuSans-62" x="322.558594"/>
     <use xlink:href="#DejaVuSans-61" x="386.035156"/>
     <use xlink:href="#DejaVuSans-73" x="447.314453"/>
     <use xlink:href="#DejaVuSans-65" x="499.414062"/>
     <use xlink:href="#DejaVuSans-64" x="560.9375"/>
     <use xlink:href="#DejaVuSans-20" x="624.414062"/>
     <use xlink:href="#DejaVuSans-73" x="656.201172"/>
     <use xlink:href="#DejaVuSans-69" x="708.300781"/>
     <use xlink:href="#DejaVuSans-67" x="736.083984"/>
     <use xlink:href="#DejaVuSans-6e" x="799.560547"/>
     <use xlink:href="#DejaVuSans-61" x="862.939453"/>
     <use xlink:href="#DejaVuSans-6c" x="924.21875"/>
    </g>
   </g>
  </g>
 </g>
 <defs>
  <clipPath id="p2832dfe56e">
   <rect x="20.878125" y="22.318125" width="384.444876" height="208.8"/>
  </clipPath>
 </defs>
</svg>
