<?xml version="1.0" encoding="utf-8" standalone="no"?>
<!DOCTYPE svg PUBLIC "-//W3C//DTD SVG 1.1//EN"
  "http://www.w3.org/Graphics/SVG/1.1/DTD/svg11.dtd">
<svg xmlns:xlink="http://www.w3.org/1999/xlink" width="412.523001pt" height="251.99625pt" viewBox="0 0 412.523001 251.99625" xmlns="http://www.w3.org/2000/svg" version="1.1">
 <metadata>
  <rdf:RDF xmlns:dc="http://purl.org/dc/elements/1.1/" xmlns:cc="http://creativecommons.org/ns#" xmlns:rdf="http://www.w3.org/1999/02/22-rdf-syntax-ns#">
   <cc:Work>
    <dc:type rdf:resource="http://purl.org/dc/dcmitype/StillImage"/>
    <dc:date>2023-09-06T18:32:49.048766</dc:date>
    <dc:format>image/svg+xml</dc:format>
    <dc:creator>
     <cc:Agent>
      <dc:title>Matplotlib v3.7.1, https://matplotlib.org/</dc:title>
     </cc:Agent>
    </dc:creator>
   </cc:Work>
  </rdf:RDF>
 </metadata>
 <defs>
  <style type="text/css">*{stroke-linejoin: round; stroke-linecap: butt}</style>
 </defs>
 <g id="figure_1">
  <g id="patch_1">
   <path d="M 0 251.99625 
L 412.523001 251.99625 
L 412.523001 0 
L 0 0 
L 0 251.99625 
z
" style="fill: none"/>
  </g>
  <g id="axes_1">
   <g id="patch_2">
    <path d="M 20.878125 231.118125 
L 405.323001 231.118125 
L 405.323001 22.318125 
L 20.878125 22.318125 
L 20.878125 231.118125 
z
" style="fill: none"/>
   </g>
   <g id="patch_3">
    <path d="M 387.848234 231.118125 
L 369.798091 236.338125 
L 375.213134 231.240249 
L 43.254596 231.240249 
L 43.254596 230.996001 
L 375.213134 230.996001 
L 369.798091 225.898125 
z
" style="stroke: #000000; stroke-linejoin: miter"/>
   </g>
   <g id="patch_4">
    <path d="M 43.254596 22.318125 
L 48.1563 41.540369 
L 43.254925 35.773696 
L 43.254925 231.118125 
L 43.254267 231.118125 
L 43.254267 35.773696 
L 38.352892 41.540369 
z
" style="stroke: #000000; stroke-linejoin: miter"/>
   </g>
   <g id="matplotlib.axis_1">
    <g id="text_1">
     <!-- Time (ms) -->
     <g transform="translate(187.901344 242.716563) scale(0.1 -0.1)">
      <defs>
       <path id="DejaVuSans-54" d="M -19 4666 
L 3928 4666 
L 3928 4134 
L 2272 4134 
L 2272 0 
L 1638 0 
L 1638 4134 
L -19 4134 
L -19 4666 
z
" transform="scale(0.015625)"/>
       <path id="DejaVuSans-69" d="M 603 3500 
L 1178 3500 
L 1178 0 
L 603 0 
L 603 3500 
z
M 603 4863 
L 1178 4863 
L 1178 4134 
L 603 4134 
L 603 4863 
z
" transform="scale(0.015625)"/>
       <path id="DejaVuSans-6d" d="M 3328 2828 
Q 3544 3216 3844 3400 
Q 4144 3584 4550 3584 
Q 5097 3584 5394 3201 
Q 5691 2819 5691 2113 
L 5691 0 
L 5113 0 
L 5113 2094 
Q 5113 2597 4934 2840 
Q 4756 3084 4391 3084 
Q 3944 3084 3684 2787 
Q 3425 2491 3425 1978 
L 3425 0 
L 2847 0 
L 2847 2094 
Q 2847 2600 2669 2842 
Q 2491 3084 2119 3084 
Q 1678 3084 1418 2786 
Q 1159 2488 1159 1978 
L 1159 0 
L 581 0 
L 581 3500 
L 1159 3500 
L 1159 2956 
Q 1356 3278 1631 3431 
Q 1906 3584 2284 3584 
Q 2666 3584 2933 3390 
Q 3200 3197 3328 2828 
z
" transform="scale(0.015625)"/>
       <path id="DejaVuSans-65" d="M 3597 1894 
L 3597 1613 
L 953 1613 
Q 991 1019 1311 708 
Q 1631 397 2203 397 
Q 2534 397 2845 478 
Q 3156 559 3463 722 
L 3463 178 
Q 3153 47 2828 -22 
Q 2503 -91 2169 -91 
Q 1331 -91 842 396 
Q 353 884 353 1716 
Q 353 2575 817 3079 
Q 1281 3584 2069 3584 
Q 2775 3584 3186 3129 
Q 3597 2675 3597 1894 
z
M 3022 2063 
Q 3016 2534 2758 2815 
Q 2500 3097 2075 3097 
Q 1594 3097 1305 2825 
Q 1016 2553 972 2059 
L 3022 2063 
z
" transform="scale(0.015625)"/>
       <path id="DejaVuSans-20" transform="scale(0.015625)"/>
       <path id="DejaVuSans-28" d="M 1984 4856 
Q 1566 4138 1362 3434 
Q 1159 2731 1159 2009 
Q 1159 1288 1364 580 
Q 1569 -128 1984 -844 
L 1484 -844 
Q 1016 -109 783 600 
Q 550 1309 550 2009 
Q 550 2706 781 3412 
Q 1013 4119 1484 4856 
L 1984 4856 
z
" transform="scale(0.015625)"/>
       <path id="DejaVuSans-73" d="M 2834 3397 
L 2834 2853 
Q 2591 2978 2328 3040 
Q 2066 3103 1784 3103 
Q 1356 3103 1142 2972 
Q 928 2841 928 2578 
Q 928 2378 1081 2264 
Q 1234 2150 1697 2047 
L 1894 2003 
Q 2506 1872 2764 1633 
Q 3022 1394 3022 966 
Q 3022 478 2636 193 
Q 2250 -91 1575 -91 
Q 1294 -91 989 -36 
Q 684 19 347 128 
L 347 722 
Q 666 556 975 473 
Q 1284 391 1588 391 
Q 1994 391 2212 530 
Q 2431 669 2431 922 
Q 2431 1156 2273 1281 
Q 2116 1406 1581 1522 
L 1381 1569 
Q 847 1681 609 1914 
Q 372 2147 372 2553 
Q 372 3047 722 3315 
Q 1072 3584 1716 3584 
Q 2034 3584 2315 3537 
Q 2597 3491 2834 3397 
z
" transform="scale(0.015625)"/>
       <path id="DejaVuSans-29" d="M 513 4856 
L 1013 4856 
Q 1481 4119 1714 3412 
Q 1947 2706 1947 2009 
Q 1947 1309 1714 600 
Q 1481 -109 1013 -844 
L 513 -844 
Q 928 -128 1133 580 
Q 1338 1288 1338 2009 
Q 1338 2731 1133 3434 
Q 928 4138 513 4856 
z
" transform="scale(0.015625)"/>
      </defs>
      <use xlink:href="#DejaVuSans-54"/>
      <use xlink:href="#DejaVuSans-69" x="57.958984"/>
      <use xlink:href="#DejaVuSans-6d" x="85.742188"/>
      <use xlink:href="#DejaVuSans-65" x="183.154297"/>
      <use xlink:href="#DejaVuSans-20" x="244.677734"/>
      <use xlink:href="#DejaVuSans-28" x="276.464844"/>
      <use xlink:href="#DejaVuSans-6d" x="315.478516"/>
      <use xlink:href="#DejaVuSans-73" x="412.890625"/>
      <use xlink:href="#DejaVuSans-29" x="464.990234"/>
     </g>
    </g>
   </g>
   <g id="matplotlib.axis_2">
    <g id="text_2">
     <!-- log-Intensity -->
     <g transform="translate(14.798438 157.907187) rotate(-90) scale(0.1 -0.1)">
      <defs>
       <path id="DejaVuSans-6c" d="M 603 4863 
L 1178 4863 
L 1178 0 
L 603 0 
L 603 4863 
z
" transform="scale(0.015625)"/>
       <path id="DejaVuSans-6f" d="M 1959 3097 
Q 1497 3097 1228 2736 
Q 959 2375 959 1747 
Q 959 1119 1226 758 
Q 1494 397 1959 397 
Q 2419 397 2687 759 
Q 2956 1122 2956 1747 
Q 2956 2369 2687 2733 
Q 2419 3097 1959 3097 
z
M 1959 3584 
Q 2709 3584 3137 3096 
Q 3566 2609 3566 1747 
Q 3566 888 3137 398 
Q 2709 -91 1959 -91 
Q 1206 -91 779 398 
Q 353 888 353 1747 
Q 353 2609 779 3096 
Q 1206 3584 1959 3584 
z
" transform="scale(0.015625)"/>
       <path id="DejaVuSans-67" d="M 2906 1791 
Q 2906 2416 2648 2759 
Q 2391 3103 1925 3103 
Q 1463 3103 1205 2759 
Q 947 2416 947 1791 
Q 947 1169 1205 825 
Q 1463 481 1925 481 
Q 2391 481 2648 825 
Q 2906 1169 2906 1791 
z
M 3481 434 
Q 3481 -459 3084 -895 
Q 2688 -1331 1869 -1331 
Q 1566 -1331 1297 -1286 
Q 1028 -1241 775 -1147 
L 775 -588 
Q 1028 -725 1275 -790 
Q 1522 -856 1778 -856 
Q 2344 -856 2625 -561 
Q 2906 -266 2906 331 
L 2906 616 
Q 2728 306 2450 153 
Q 2172 0 1784 0 
Q 1141 0 747 490 
Q 353 981 353 1791 
Q 353 2603 747 3093 
Q 1141 3584 1784 3584 
Q 2172 3584 2450 3431 
Q 2728 3278 2906 2969 
L 2906 3500 
L 3481 3500 
L 3481 434 
z
" transform="scale(0.015625)"/>
       <path id="DejaVuSans-2d" d="M 313 2009 
L 1997 2009 
L 1997 1497 
L 313 1497 
L 313 2009 
z
" transform="scale(0.015625)"/>
       <path id="DejaVuSans-49" d="M 628 4666 
L 1259 4666 
L 1259 0 
L 628 0 
L 628 4666 
z
" transform="scale(0.015625)"/>
       <path id="DejaVuSans-6e" d="M 3513 2113 
L 3513 0 
L 2938 0 
L 2938 2094 
Q 2938 2591 2744 2837 
Q 2550 3084 2163 3084 
Q 1697 3084 1428 2787 
Q 1159 2491 1159 1978 
L 1159 0 
L 581 0 
L 581 3500 
L 1159 3500 
L 1159 2956 
Q 1366 3272 1645 3428 
Q 1925 3584 2291 3584 
Q 2894 3584 3203 3211 
Q 3513 2838 3513 2113 
z
" transform="scale(0.015625)"/>
       <path id="DejaVuSans-74" d="M 1172 4494 
L 1172 3500 
L 2356 3500 
L 2356 3053 
L 1172 3053 
L 1172 1153 
Q 1172 725 1289 603 
Q 1406 481 1766 481 
L 2356 481 
L 2356 0 
L 1766 0 
Q 1100 0 847 248 
Q 594 497 594 1153 
L 594 3053 
L 172 3053 
L 172 3500 
L 594 3500 
L 594 4494 
L 1172 4494 
z
" transform="scale(0.015625)"/>
       <path id="DejaVuSans-79" d="M 2059 -325 
Q 1816 -950 1584 -1140 
Q 1353 -1331 966 -1331 
L 506 -1331 
L 506 -850 
L 844 -850 
Q 1081 -850 1212 -737 
Q 1344 -625 1503 -206 
L 1606 56 
L 191 3500 
L 800 3500 
L 1894 763 
L 2988 3500 
L 3597 3500 
L 2059 -325 
z
" transform="scale(0.015625)"/>
      </defs>
      <use xlink:href="#DejaVuSans-6c"/>
      <use xlink:href="#DejaVuSans-6f" x="27.783203"/>
      <use xlink:href="#DejaVuSans-67" x="88.964844"/>
      <use xlink:href="#DejaVuSans-2d" x="152.441406"/>
      <use xlink:href="#DejaVuSans-49" x="188.525391"/>
      <use xlink:href="#DejaVuSans-6e" x="218.017578"/>
      <use xlink:href="#DejaVuSans-74" x="281.396484"/>
      <use xlink:href="#DejaVuSans-65" x="320.605469"/>
      <use xlink:href="#DejaVuSans-6e" x="382.128906"/>
      <use xlink:href="#DejaVuSans-73" x="445.507812"/>
      <use xlink:href="#DejaVuSans-69" x="497.607422"/>
      <use xlink:href="#DejaVuSans-74" x="525.390625"/>
      <use xlink:href="#DejaVuSans-79" x="564.599609"/>
     </g>
    </g>
   </g>
   <g id="line2d_1">
    <path d="M 43.254596 83.501405 
L 44.569964 51.453778 
L 45.227649 44.775613 
L 45.885333 43.603644 
L 46.543017 43.012686 
L 47.858385 38.472756 
L 48.51607 37.767061 
L 49.173754 39.01756 
L 49.831438 40.937143 
L 50.489122 41.737782 
L 51.146806 41.463816 
L 51.804491 40.703948 
L 52.462175 40.303013 
L 53.119859 41.062648 
L 53.777543 41.525859 
L 54.435227 41.177159 
L 55.750596 43.353422 
L 56.40828 42.591429 
L 57.065964 41.474568 
L 57.723648 40.955366 
L 58.381333 41.900914 
L 59.039017 44.954005 
L 59.696701 48.99416 
L 60.354385 50.849846 
L 61.012069 49.088944 
L 61.669754 46.704642 
L 62.327438 46.600763 
L 62.985122 47.283644 
L 63.642806 46.824572 
L 64.30049 44.34856 
L 64.958175 42.776966 
L 65.615859 47.802909 
L 66.273543 61.912633 
L 66.931227 69.27261 
L 67.588911 54.924844 
L 68.246596 37.057101 
L 68.90428 29.99986 
L 69.561964 29.107807 
L 70.219648 30.007274 
L 70.877332 31.537295 
L 72.192701 33.372769 
L 72.850385 34.5075 
L 73.508069 34.96825 
L 74.165753 34.246315 
L 74.823438 33.775863 
L 75.481122 34.910015 
L 76.138806 35.331238 
L 76.79649 33.750222 
L 77.454174 32.614863 
L 78.111859 32.810986 
L 78.769543 35.506715 
L 79.427227 43.623909 
L 80.742595 71.642574 
L 81.40028 82.348906 
L 82.057964 88.478743 
L 82.715648 89.97919 
L 83.373332 88.226269 
L 84.031016 85.302344 
L 84.688701 83.519002 
L 85.346385 85.1805 
L 86.004069 89.541688 
L 87.977122 106.345969 
L 88.634806 108.479633 
L 89.29249 104.654926 
L 89.950174 98.297422 
L 90.607858 95.005366 
L 91.265543 89.51652 
L 91.923227 79.79538 
L 92.580911 74.611826 
L 93.238595 77.290144 
L 93.896279 83.238956 
L 94.553964 94.781082 
L 95.211648 109.166397 
L 95.869332 117.933008 
L 96.527016 120.352344 
L 97.1847 119.825967 
L 97.842385 118.601776 
L 98.500069 117.647922 
L 99.157753 117.098864 
L 99.815437 117.60053 
L 100.473122 118.877938 
L 101.78849 118.755909 
L 103.103858 119.137904 
L 103.761543 118.865599 
L 104.419227 118.850041 
L 106.392279 119.495932 
L 107.049964 119.851606 
L 107.707648 119.876715 
L 108.365332 119.662685 
L 109.023016 119.625161 
L 110.338385 121.368798 
L 110.996069 119.339482 
L 111.653753 111.320113 
L 112.969121 80.933237 
L 113.626806 70.946813 
L 114.28449 65.640862 
L 114.942174 63.178812 
L 115.599858 62.897237 
L 116.257542 64.719289 
L 116.915227 67.954986 
L 117.572911 70.233149 
L 118.230595 70.673256 
L 118.888279 69.467502 
L 120.203648 65.821413 
L 121.519016 59.858621 
L 122.1767 58.566045 
L 122.834384 59.323679 
L 123.492069 61.403715 
L 124.149753 62.912285 
L 124.807437 61.088757 
L 125.465121 54.956329 
L 126.122805 46.550948 
L 126.78049 41.243096 
L 127.438174 40.51517 
L 128.095858 43.591538 
L 128.753542 48.035407 
L 129.411226 50.493949 
L 130.068911 51.325731 
L 131.384279 54.084435 
L 132.041963 54.832648 
L 132.699647 55.134695 
L 133.357332 55.894508 
L 134.015016 57.203062 
L 134.6727 57.727463 
L 135.330384 55.522223 
L 137.303437 41.923116 
L 137.961121 38.062191 
L 138.618805 37.37913 
L 139.276489 40.557447 
L 139.934174 44.525148 
L 140.591858 47.490014 
L 141.249542 49.773958 
L 142.56491 55.583599 
L 143.222595 57.28908 
L 143.880279 58.51176 
L 144.537963 58.19283 
L 145.195647 53.948745 
L 146.511016 41.202213 
L 147.1687 40.120309 
L 147.826384 43.247423 
L 149.141752 54.473281 
L 149.799437 56.922758 
L 150.457121 55.185139 
L 151.114805 52.756995 
L 151.772489 53.75864 
L 152.430173 57.321364 
L 153.745542 65.622196 
L 154.403226 67.911908 
L 155.06091 67.334481 
L 155.718594 63.239762 
L 157.033963 50.036647 
L 157.691647 45.498274 
L 158.349331 42.948706 
L 159.007015 42.19731 
L 159.6647 42.40171 
L 160.980068 41.554289 
L 161.637752 41.497666 
L 162.953121 39.611038 
L 163.610805 40.330744 
L 165.583858 48.520947 
L 166.241542 49.865473 
L 166.899226 49.894472 
L 167.55691 51.161659 
L 169.529963 59.865829 
L 170.187647 60.704276 
L 170.845331 60.69782 
L 171.503015 61.45311 
L 173.476068 65.661474 
L 174.133752 66.33969 
L 174.791436 66.374095 
L 175.449121 66.166307 
L 176.764489 65.991337 
L 177.422173 65.299108 
L 178.079857 63.610798 
L 178.737542 60.765838 
L 179.395226 57.121662 
L 180.05291 54.795179 
L 180.710594 54.51997 
L 181.368278 55.010411 
L 182.025963 54.699009 
L 182.683647 53.995594 
L 183.341331 55.124694 
L 183.999015 57.653734 
L 184.656699 59.311645 
L 185.314384 59.706023 
L 185.972068 60.653089 
L 186.629752 61.173564 
L 187.287436 60.120896 
L 187.94512 58.538218 
L 188.602805 57.748525 
L 189.918173 58.398909 
L 191.233541 58.812834 
L 191.891226 59.255371 
L 192.54891 61.066636 
L 193.864278 69.441961 
L 194.521962 72.483705 
L 195.179647 74.209493 
L 195.837331 74.372161 
L 196.495015 73.219019 
L 197.152699 71.712812 
L 197.810383 69.405557 
L 199.125752 63.432401 
L 201.098804 57.455873 
L 201.756489 56.572395 
L 202.414173 55.960253 
L 203.729541 52.690237 
L 205.04491 48.433835 
L 205.702594 47.050189 
L 206.360278 45.306081 
L 207.675646 39.958886 
L 208.333331 38.894272 
L 208.991015 39.812771 
L 209.648699 40.215315 
L 210.306383 39.693501 
L 211.621752 39.834977 
L 212.279436 40.433401 
L 212.93712 40.765614 
L 213.594804 41.274299 
L 214.910173 43.020811 
L 215.567857 43.596562 
L 216.225541 43.166019 
L 217.540909 39.698847 
L 218.198594 41.251885 
L 219.513962 47.476587 
L 220.171646 49.043293 
L 220.829331 51.976056 
L 221.487015 58.947126 
L 222.144699 67.471823 
L 222.802383 72.98102 
L 223.460067 76.455951 
L 224.117752 81.060554 
L 224.775436 84.205902 
L 225.43312 82.72587 
L 226.090804 77.28931 
L 226.748488 69.054956 
L 227.406173 63.6 
L 228.063857 63.202677 
L 228.721541 65.465787 
L 230.036909 73.247763 
L 230.694594 75.052144 
L 231.352278 74.131354 
L 232.667646 69.612291 
L 233.32533 67.094979 
L 233.983015 65.410751 
L 234.640699 64.251613 
L 235.298383 64.173914 
L 236.613751 66.48919 
L 237.271436 68.186966 
L 237.92912 68.374347 
L 238.586804 66.722928 
L 239.244488 65.961661 
L 239.902172 65.906623 
L 240.559857 66.526869 
L 241.217541 68.472912 
L 241.875225 72.596206 
L 242.532909 77.825194 
L 243.190593 82.09921 
L 243.848278 82.884795 
L 245.163646 78.072578 
L 245.82133 76.428408 
L 246.479014 76.431082 
L 247.136699 78.108611 
L 247.794383 80.094365 
L 248.452067 80.209151 
L 249.109751 77.267225 
L 249.767435 73.477141 
L 250.42512 70.640981 
L 251.740488 67.133827 
L 252.398172 66.077711 
L 253.055856 68.070466 
L 253.713541 74.629136 
L 254.371225 83.487387 
L 255.028909 88.449525 
L 255.686593 86.741729 
L 257.001962 76.193844 
L 257.659646 72.574921 
L 258.31733 71.096114 
L 258.975014 71.479609 
L 259.632698 72.045101 
L 260.290383 72.126212 
L 260.948067 71.601619 
L 261.605751 70.783321 
L 262.263435 69.609546 
L 263.578804 66.7562 
L 264.236488 66.021517 
L 264.894172 65.959891 
L 266.20954 66.169149 
L 266.867225 66.358504 
L 267.524909 67.579126 
L 268.182593 69.70404 
L 268.840277 70.634266 
L 269.497961 70.705109 
L 270.81333 69.774685 
L 271.471014 69.982159 
L 272.786382 71.868842 
L 273.444067 71.222579 
L 274.759435 68.555621 
L 275.417119 66.736495 
L 277.390172 60.016236 
L 278.047856 59.647069 
L 278.70554 60.787136 
L 279.363224 62.15628 
L 280.678593 63.798276 
L 282.651646 69.028561 
L 283.30933 69.173032 
L 284.624698 67.035467 
L 285.282382 67.018082 
L 287.255435 68.933131 
L 287.913119 69.019324 
L 288.570803 69.384422 
L 289.228488 70.047121 
L 289.886172 71.043698 
L 290.543856 73.026591 
L 291.859224 78.202487 
L 292.516909 79.717845 
L 293.174593 80.484145 
L 293.832277 80.836966 
L 294.489961 80.767382 
L 295.147645 80.317732 
L 295.80533 79.091221 
L 296.463014 73.347991 
L 297.778382 46.557543 
L 298.436066 39.572257 
L 299.751435 33.462283 
L 300.409119 29.468593 
L 301.066803 28.499129 
L 301.724487 31.227425 
L 302.382172 36.391828 
L 303.039856 38.425666 
L 303.69754 37.442947 
L 304.355224 37.162423 
L 305.012908 36.674562 
L 306.985961 30.827601 
L 307.643645 28.311586 
L 308.301329 28.508357 
L 309.616698 34.672817 
L 310.274382 36.130295 
L 310.932066 36.008345 
L 311.58975 35.40942 
L 312.247435 32.747583 
L 312.905119 28.988776 
L 313.562803 27.42551 
L 314.220487 27.478205 
L 314.878171 26.759211 
L 315.535856 28.282282 
L 316.19354 32.037467 
L 316.851224 33.126229 
L 317.508908 30.844508 
L 318.166592 27.403149 
L 318.824277 25.215886 
L 319.481961 24.366118 
L 320.139645 25.228973 
L 321.455013 29.693568 
L 322.112698 32.001481 
L 322.770382 33.255844 
L 323.428066 32.42976 
L 324.08575 30.32227 
L 324.743434 29.347039 
L 325.401119 29.702031 
L 326.058803 29.903717 
L 326.716487 29.373202 
L 327.374171 28.192151 
L 328.031855 26.605542 
L 328.68954 25.372091 
L 329.347224 25.941529 
L 330.004908 28.063696 
L 330.662592 29.218053 
L 331.320276 29.60816 
L 331.977961 30.212438 
L 332.635645 28.61359 
L 333.293329 26.120885 
L 333.951013 25.719215 
L 334.608697 27.44119 
L 335.924066 34.686597 
L 336.58175 37.334951 
L 337.239434 38.429356 
L 337.897118 37.573744 
L 338.554803 33.531524 
L 339.212487 27.62311 
L 339.870171 25.069911 
L 341.18554 28.068843 
L 341.843224 26.882718 
L 342.500908 26.186679 
L 343.158592 26.377859 
L 343.816276 26.219856 
L 344.473961 26.786429 
L 345.131645 30.394465 
L 345.789329 32.529254 
L 346.447013 32.390526 
L 347.104697 31.769949 
L 347.762382 30.748885 
L 348.420066 30.527301 
L 349.735434 35.310966 
L 350.393118 35.762474 
L 351.050803 32.617003 
L 351.708487 27.874756 
L 352.366171 24.725223 
L 353.023855 23.57442 
L 353.681539 23.078502 
L 354.339224 23.58857 
L 354.996908 25.73375 
L 355.654592 29.334832 
L 356.312276 32.276479 
L 356.96996 33.035244 
L 358.285329 31.751267 
L 358.943013 32.894944 
L 359.600697 33.238416 
L 360.258381 31.809246 
L 360.916066 31.585636 
L 361.57375 32.462051 
L 362.231434 31.968084 
L 362.889118 33.207579 
L 363.546802 36.179264 
L 364.204487 37.93176 
L 364.862171 37.551154 
L 365.519855 36.094949 
L 366.177539 32.718567 
L 366.835223 26.745917 
L 367.492908 22.318125 
L 368.150592 23.214935 
L 368.808276 25.753245 
L 369.46596 27.709152 
L 370.123644 31.602686 
L 370.781329 36.672576 
L 371.439013 36.679697 
L 371.439013 36.679697 
" clip-path="url(#pe3703f8b47)" style="fill: none; stroke: #1f77b4; stroke-width: 1.5; stroke-linecap: square"/>
   </g>
   <g id="line2d_2">
    <path d="M 43.254596 231.118125 
L 43.254596 22.318125 
" clip-path="url(#pe3703f8b47)" style="fill: none; stroke-dasharray: 0.74,0.32; stroke-dashoffset: 0; stroke: #000000; stroke-width: 0.2"/>
   </g>
   <g id="line2d_3">
    <defs>
     <path id="m93e635fcfa" d="M 0 3 
C 0.795609 3 1.55874 2.683901 2.12132 2.12132 
C 2.683901 1.55874 3 0.795609 3 0 
C 3 -0.795609 2.683901 -1.55874 2.12132 -2.12132 
C 1.55874 -2.683901 0.795609 -3 0 -3 
C -0.795609 -3 -1.55874 -2.683901 -2.12132 -2.12132 
C -2.683901 -1.55874 -3 -0.795609 -3 0 
C -3 0.795609 -2.683901 1.55874 -2.12132 2.12132 
C -1.55874 2.683901 -0.795609 3 0 3 
z
" style="stroke: #ff0000"/>
    </defs>
    <g clip-path="url(#pe3703f8b47)">
     <use xlink:href="#m93e635fcfa" x="43.254596" y="83.501405" style="fill: #ff0000; stroke: #ff0000"/>
    </g>
   </g>
   <g id="line2d_4">
    <path d="M 54.435227 231.118125 
L 54.435227 22.318125 
" clip-path="url(#pe3703f8b47)" style="fill: none; stroke-dasharray: 0.74,0.32; stroke-dashoffset: 0; stroke: #000000; stroke-width: 0.2"/>
   </g>
   <g id="line2d_5">
    <g clip-path="url(#pe3703f8b47)">
     <use xlink:href="#m93e635fcfa" x="54.435227" y="41.177159" style="fill: #ff0000; stroke: #ff0000"/>
    </g>
   </g>
   <g id="line2d_6">
    <path d="M 65.615859 231.118125 
L 65.615859 22.318125 
" clip-path="url(#pe3703f8b47)" style="fill: none; stroke-dasharray: 0.74,0.32; stroke-dashoffset: 0; stroke: #000000; stroke-width: 0.2"/>
   </g>
   <g id="line2d_7">
    <g clip-path="url(#pe3703f8b47)">
     <use xlink:href="#m93e635fcfa" x="65.615859" y="47.802909" style="fill: #ff0000; stroke: #ff0000"/>
    </g>
   </g>
   <g id="line2d_8">
    <path d="M 76.79649 231.118125 
L 76.79649 22.318125 
" clip-path="url(#pe3703f8b47)" style="fill: none; stroke-dasharray: 0.74,0.32; stroke-dashoffset: 0; stroke: #000000; stroke-width: 0.2"/>
   </g>
   <g id="line2d_9">
    <g clip-path="url(#pe3703f8b47)">
     <use xlink:href="#m93e635fcfa" x="76.79649" y="33.750222" style="fill: #ff0000; stroke: #ff0000"/>
    </g>
   </g>
   <g id="line2d_10">
    <path d="M 87.977122 231.118125 
L 87.977122 22.318125 
" clip-path="url(#pe3703f8b47)" style="fill: none; stroke-dasharray: 0.74,0.32; stroke-dashoffset: 0; stroke: #000000; stroke-width: 0.2"/>
   </g>
   <g id="line2d_11">
    <g clip-path="url(#pe3703f8b47)">
     <use xlink:href="#m93e635fcfa" x="87.977122" y="106.345969" style="fill: #ff0000; stroke: #ff0000"/>
    </g>
   </g>
   <g id="line2d_12">
    <path d="M 99.157753 231.118125 
L 99.157753 22.318125 
" clip-path="url(#pe3703f8b47)" style="fill: none; stroke-dasharray: 0.74,0.32; stroke-dashoffset: 0; stroke: #000000; stroke-width: 0.2"/>
   </g>
   <g id="line2d_13">
    <g clip-path="url(#pe3703f8b47)">
     <use xlink:href="#m93e635fcfa" x="99.157753" y="117.098864" style="fill: #ff0000; stroke: #ff0000"/>
    </g>
   </g>
   <g id="line2d_14">
    <path d="M 110.338385 231.118125 
L 110.338385 22.318125 
" clip-path="url(#pe3703f8b47)" style="fill: none; stroke-dasharray: 0.74,0.32; stroke-dashoffset: 0; stroke: #000000; stroke-width: 0.2"/>
   </g>
   <g id="line2d_15">
    <g clip-path="url(#pe3703f8b47)">
     <use xlink:href="#m93e635fcfa" x="110.338385" y="121.368798" style="fill: #ff0000; stroke: #ff0000"/>
    </g>
   </g>
   <g id="line2d_16">
    <path d="M 121.519016 231.118125 
L 121.519016 22.318125 
" clip-path="url(#pe3703f8b47)" style="fill: none; stroke-dasharray: 0.74,0.32; stroke-dashoffset: 0; stroke: #000000; stroke-width: 0.2"/>
   </g>
   <g id="line2d_17">
    <g clip-path="url(#pe3703f8b47)">
     <use xlink:href="#m93e635fcfa" x="121.519016" y="59.858621" style="fill: #ff0000; stroke: #ff0000"/>
    </g>
   </g>
   <g id="line2d_18">
    <path d="M 133.357332 231.118125 
L 133.357332 22.318125 
" clip-path="url(#pe3703f8b47)" style="fill: none; stroke-dasharray: 0.74,0.32; stroke-dashoffset: 0; stroke: #000000; stroke-width: 0.2"/>
   </g>
   <g id="line2d_19">
    <g clip-path="url(#pe3703f8b47)">
     <use xlink:href="#m93e635fcfa" x="133.357332" y="55.894508" style="fill: #ff0000; stroke: #ff0000"/>
    </g>
   </g>
   <g id="line2d_20">
    <path d="M 144.537963 231.118125 
L 144.537963 22.318125 
" clip-path="url(#pe3703f8b47)" style="fill: none; stroke-dasharray: 0.74,0.32; stroke-dashoffset: 0; stroke: #000000; stroke-width: 0.2"/>
   </g>
   <g id="line2d_21">
    <g clip-path="url(#pe3703f8b47)">
     <use xlink:href="#m93e635fcfa" x="144.537963" y="58.19283" style="fill: #ff0000; stroke: #ff0000"/>
    </g>
   </g>
   <g id="line2d_22">
    <path d="M 155.718594 231.118125 
L 155.718594 22.318125 
" clip-path="url(#pe3703f8b47)" style="fill: none; stroke-dasharray: 0.74,0.32; stroke-dashoffset: 0; stroke: #000000; stroke-width: 0.2"/>
   </g>
   <g id="line2d_23">
    <g clip-path="url(#pe3703f8b47)">
     <use xlink:href="#m93e635fcfa" x="155.718594" y="63.239762" style="fill: #ff0000; stroke: #ff0000"/>
    </g>
   </g>
   <g id="line2d_24">
    <path d="M 166.899226 231.118125 
L 166.899226 22.318125 
" clip-path="url(#pe3703f8b47)" style="fill: none; stroke-dasharray: 0.74,0.32; stroke-dashoffset: 0; stroke: #000000; stroke-width: 0.2"/>
   </g>
   <g id="line2d_25">
    <g clip-path="url(#pe3703f8b47)">
     <use xlink:href="#m93e635fcfa" x="166.899226" y="49.894472" style="fill: #ff0000; stroke: #ff0000"/>
    </g>
   </g>
   <g id="line2d_26">
    <path d="M 178.079857 231.118125 
L 178.079857 22.318125 
" clip-path="url(#pe3703f8b47)" style="fill: none; stroke-dasharray: 0.74,0.32; stroke-dashoffset: 0; stroke: #000000; stroke-width: 0.2"/>
   </g>
   <g id="line2d_27">
    <g clip-path="url(#pe3703f8b47)">
     <use xlink:href="#m93e635fcfa" x="178.079857" y="63.610798" style="fill: #ff0000; stroke: #ff0000"/>
    </g>
   </g>
   <g id="line2d_28">
    <path d="M 189.260489 231.118125 
L 189.260489 22.318125 
" clip-path="url(#pe3703f8b47)" style="fill: none; stroke-dasharray: 0.74,0.32; stroke-dashoffset: 0; stroke: #000000; stroke-width: 0.2"/>
   </g>
   <g id="line2d_29">
    <g clip-path="url(#pe3703f8b47)">
     <use xlink:href="#m93e635fcfa" x="189.260489" y="58.105469" style="fill: #ff0000; stroke: #ff0000"/>
    </g>
   </g>
   <g id="line2d_30">
    <path d="M 200.44112 231.118125 
L 200.44112 22.318125 
" clip-path="url(#pe3703f8b47)" style="fill: none; stroke-dasharray: 0.74,0.32; stroke-dashoffset: 0; stroke: #000000; stroke-width: 0.2"/>
   </g>
   <g id="line2d_31">
    <g clip-path="url(#pe3703f8b47)">
     <use xlink:href="#m93e635fcfa" x="200.44112" y="59.488271" style="fill: #ff0000; stroke: #ff0000"/>
    </g>
   </g>
   <g id="line2d_32">
    <path d="M 212.279436 231.118125 
L 212.279436 22.318125 
" clip-path="url(#pe3703f8b47)" style="fill: none; stroke-dasharray: 0.74,0.32; stroke-dashoffset: 0; stroke: #000000; stroke-width: 0.2"/>
   </g>
   <g id="line2d_33">
    <g clip-path="url(#pe3703f8b47)">
     <use xlink:href="#m93e635fcfa" x="212.279436" y="40.433401" style="fill: #ff0000; stroke: #ff0000"/>
    </g>
   </g>
   <g id="line2d_34">
    <path d="M 223.460067 231.118125 
L 223.460067 22.318125 
" clip-path="url(#pe3703f8b47)" style="fill: none; stroke-dasharray: 0.74,0.32; stroke-dashoffset: 0; stroke: #000000; stroke-width: 0.2"/>
   </g>
   <g id="line2d_35">
    <g clip-path="url(#pe3703f8b47)">
     <use xlink:href="#m93e635fcfa" x="223.460067" y="76.455951" style="fill: #ff0000; stroke: #ff0000"/>
    </g>
   </g>
   <g id="line2d_36">
    <path d="M 234.640699 231.118125 
L 234.640699 22.318125 
" clip-path="url(#pe3703f8b47)" style="fill: none; stroke-dasharray: 0.74,0.32; stroke-dashoffset: 0; stroke: #000000; stroke-width: 0.2"/>
   </g>
   <g id="line2d_37">
    <g clip-path="url(#pe3703f8b47)">
     <use xlink:href="#m93e635fcfa" x="234.640699" y="64.251613" style="fill: #ff0000; stroke: #ff0000"/>
    </g>
   </g>
   <g id="line2d_38">
    <path d="M 245.82133 231.118125 
L 245.82133 22.318125 
" clip-path="url(#pe3703f8b47)" style="fill: none; stroke-dasharray: 0.74,0.32; stroke-dashoffset: 0; stroke: #000000; stroke-width: 0.2"/>
   </g>
   <g id="line2d_39">
    <g clip-path="url(#pe3703f8b47)">
     <use xlink:href="#m93e635fcfa" x="245.82133" y="76.428408" style="fill: #ff0000; stroke: #ff0000"/>
    </g>
   </g>
   <g id="line2d_40">
    <path d="M 257.001962 231.118125 
L 257.001962 22.318125 
" clip-path="url(#pe3703f8b47)" style="fill: none; stroke-dasharray: 0.74,0.32; stroke-dashoffset: 0; stroke: #000000; stroke-width: 0.2"/>
   </g>
   <g id="line2d_41">
    <g clip-path="url(#pe3703f8b47)">
     <use xlink:href="#m93e635fcfa" x="257.001962" y="76.193844" style="fill: #ff0000; stroke: #ff0000"/>
    </g>
   </g>
   <g id="line2d_42">
    <path d="M 268.182593 231.118125 
L 268.182593 22.318125 
" clip-path="url(#pe3703f8b47)" style="fill: none; stroke-dasharray: 0.74,0.32; stroke-dashoffset: 0; stroke: #000000; stroke-width: 0.2"/>
   </g>
   <g id="line2d_43">
    <g clip-path="url(#pe3703f8b47)">
     <use xlink:href="#m93e635fcfa" x="268.182593" y="69.70404" style="fill: #ff0000; stroke: #ff0000"/>
    </g>
   </g>
   <g id="line2d_44">
    <path d="M 279.363224 231.118125 
L 279.363224 22.318125 
" clip-path="url(#pe3703f8b47)" style="fill: none; stroke-dasharray: 0.74,0.32; stroke-dashoffset: 0; stroke: #000000; stroke-width: 0.2"/>
   </g>
   <g id="line2d_45">
    <g clip-path="url(#pe3703f8b47)">
     <use xlink:href="#m93e635fcfa" x="279.363224" y="62.15628" style="fill: #ff0000; stroke: #ff0000"/>
    </g>
   </g>
   <g id="line2d_46">
    <path d="M 291.20154 231.118125 
L 291.20154 22.318125 
" clip-path="url(#pe3703f8b47)" style="fill: none; stroke-dasharray: 0.74,0.32; stroke-dashoffset: 0; stroke: #000000; stroke-width: 0.2"/>
   </g>
   <g id="line2d_47">
    <g clip-path="url(#pe3703f8b47)">
     <use xlink:href="#m93e635fcfa" x="291.20154" y="75.782992" style="fill: #ff0000; stroke: #ff0000"/>
    </g>
   </g>
   <g id="line2d_48">
    <path d="M 302.382172 231.118125 
L 302.382172 22.318125 
" clip-path="url(#pe3703f8b47)" style="fill: none; stroke-dasharray: 0.74,0.32; stroke-dashoffset: 0; stroke: #000000; stroke-width: 0.2"/>
   </g>
   <g id="line2d_49">
    <g clip-path="url(#pe3703f8b47)">
     <use xlink:href="#m93e635fcfa" x="302.382172" y="36.391828" style="fill: #ff0000; stroke: #ff0000"/>
    </g>
   </g>
   <g id="line2d_50">
    <path d="M 313.562803 231.118125 
L 313.562803 22.318125 
" clip-path="url(#pe3703f8b47)" style="fill: none; stroke-dasharray: 0.74,0.32; stroke-dashoffset: 0; stroke: #000000; stroke-width: 0.2"/>
   </g>
   <g id="line2d_51">
    <g clip-path="url(#pe3703f8b47)">
     <use xlink:href="#m93e635fcfa" x="313.562803" y="27.42551" style="fill: #ff0000; stroke: #ff0000"/>
    </g>
   </g>
   <g id="line2d_52">
    <path d="M 324.743434 231.118125 
L 324.743434 22.318125 
" clip-path="url(#pe3703f8b47)" style="fill: none; stroke-dasharray: 0.74,0.32; stroke-dashoffset: 0; stroke: #000000; stroke-width: 0.2"/>
   </g>
   <g id="line2d_53">
    <g clip-path="url(#pe3703f8b47)">
     <use xlink:href="#m93e635fcfa" x="324.743434" y="29.347039" style="fill: #ff0000; stroke: #ff0000"/>
    </g>
   </g>
   <g id="line2d_54">
    <path d="M 335.924066 231.118125 
L 335.924066 22.318125 
" clip-path="url(#pe3703f8b47)" style="fill: none; stroke-dasharray: 0.74,0.32; stroke-dashoffset: 0; stroke: #000000; stroke-width: 0.2"/>
   </g>
   <g id="line2d_55">
    <g clip-path="url(#pe3703f8b47)">
     <use xlink:href="#m93e635fcfa" x="335.924066" y="34.686597" style="fill: #ff0000; stroke: #ff0000"/>
    </g>
   </g>
   <g id="line2d_56">
    <path d="M 347.104697 231.118125 
L 347.104697 22.318125 
" clip-path="url(#pe3703f8b47)" style="fill: none; stroke-dasharray: 0.74,0.32; stroke-dashoffset: 0; stroke: #000000; stroke-width: 0.2"/>
   </g>
   <g id="line2d_57">
    <g clip-path="url(#pe3703f8b47)">
     <use xlink:href="#m93e635fcfa" x="347.104697" y="31.769949" style="fill: #ff0000; stroke: #ff0000"/>
    </g>
   </g>
   <g id="line2d_58">
    <path d="M 358.285329 231.118125 
L 358.285329 22.318125 
" clip-path="url(#pe3703f8b47)" style="fill: none; stroke-dasharray: 0.74,0.32; stroke-dashoffset: 0; stroke: #000000; stroke-width: 0.2"/>
   </g>
   <g id="line2d_59">
    <g clip-path="url(#pe3703f8b47)">
     <use xlink:href="#m93e635fcfa" x="358.285329" y="31.751267" style="fill: #ff0000; stroke: #ff0000"/>
    </g>
   </g>
   <g id="line2d_60">
    <path d="M 370.123644 231.118125 
L 370.123644 22.318125 
" clip-path="url(#pe3703f8b47)" style="fill: none; stroke-dasharray: 0.74,0.32; stroke-dashoffset: 0; stroke: #000000; stroke-width: 0.2"/>
   </g>
   <g id="line2d_61">
    <g clip-path="url(#pe3703f8b47)">
     <use xlink:href="#m93e635fcfa" x="370.123644" y="31.602686" style="fill: #ff0000; stroke: #ff0000"/>
    </g>
   </g>
   <g id="text_3">
    <!-- Frame-based signal -->
    <g transform="translate(154.473063 16.318125) scale(0.12 -0.12)">
     <defs>
      <path id="DejaVuSans-46" d="M 628 4666 
L 3309 4666 
L 3309 4134 
L 1259 4134 
L 1259 2759 
L 3109 2759 
L 3109 2228 
L 1259 2228 
L 1259 0 
L 628 0 
L 628 4666 
z
" transform="scale(0.015625)"/>
      <path id="DejaVuSans-72" d="M 2631 2963 
Q 2534 3019 2420 3045 
Q 2306 3072 2169 3072 
Q 1681 3072 1420 2755 
Q 1159 2438 1159 1844 
L 1159 0 
L 581 0 
L 581 3500 
L 1159 3500 
L 1159 2956 
Q 1341 3275 1631 3429 
Q 1922 3584 2338 3584 
Q 2397 3584 2469 3576 
Q 2541 3569 2628 3553 
L 2631 2963 
z
" transform="scale(0.015625)"/>
      <path id="DejaVuSans-61" d="M 2194 1759 
Q 1497 1759 1228 1600 
Q 959 1441 959 1056 
Q 959 750 1161 570 
Q 1363 391 1709 391 
Q 2188 391 2477 730 
Q 2766 1069 2766 1631 
L 2766 1759 
L 2194 1759 
z
M 3341 1997 
L 3341 0 
L 2766 0 
L 2766 531 
Q 2569 213 2275 61 
Q 1981 -91 1556 -91 
Q 1019 -91 701 211 
Q 384 513 384 1019 
Q 384 1609 779 1909 
Q 1175 2209 1959 2209 
L 2766 2209 
L 2766 2266 
Q 2766 2663 2505 2880 
Q 2244 3097 1772 3097 
Q 1472 3097 1187 3025 
Q 903 2953 641 2809 
L 641 3341 
Q 956 3463 1253 3523 
Q 1550 3584 1831 3584 
Q 2591 3584 2966 3190 
Q 3341 2797 3341 1997 
z
" transform="scale(0.015625)"/>
      <path id="DejaVuSans-62" d="M 3116 1747 
Q 3116 2381 2855 2742 
Q 2594 3103 2138 3103 
Q 1681 3103 1420 2742 
Q 1159 2381 1159 1747 
Q 1159 1113 1420 752 
Q 1681 391 2138 391 
Q 2594 391 2855 752 
Q 3116 1113 3116 1747 
z
M 1159 2969 
Q 1341 3281 1617 3432 
Q 1894 3584 2278 3584 
Q 2916 3584 3314 3078 
Q 3713 2572 3713 1747 
Q 3713 922 3314 415 
Q 2916 -91 2278 -91 
Q 1894 -91 1617 61 
Q 1341 213 1159 525 
L 1159 0 
L 581 0 
L 581 4863 
L 1159 4863 
L 1159 2969 
z
" transform="scale(0.015625)"/>
      <path id="DejaVuSans-64" d="M 2906 2969 
L 2906 4863 
L 3481 4863 
L 3481 0 
L 2906 0 
L 2906 525 
Q 2725 213 2448 61 
Q 2172 -91 1784 -91 
Q 1150 -91 751 415 
Q 353 922 353 1747 
Q 353 2572 751 3078 
Q 1150 3584 1784 3584 
Q 2172 3584 2448 3432 
Q 2725 3281 2906 2969 
z
M 947 1747 
Q 947 1113 1208 752 
Q 1469 391 1925 391 
Q 2381 391 2643 752 
Q 2906 1113 2906 1747 
Q 2906 2381 2643 2742 
Q 2381 3103 1925 3103 
Q 1469 3103 1208 2742 
Q 947 2381 947 1747 
z
" transform="scale(0.015625)"/>
     </defs>
     <use xlink:href="#DejaVuSans-46"/>
     <use xlink:href="#DejaVuSans-72" x="50.269531"/>
     <use xlink:href="#DejaVuSans-61" x="91.382812"/>
     <use xlink:href="#DejaVuSans-6d" x="152.662109"/>
     <use xlink:href="#DejaVuSans-65" x="250.074219"/>
     <use xlink:href="#DejaVuSans-2d" x="311.597656"/>
     <use xlink:href="#DejaVuSans-62" x="347.681641"/>
     <use xlink:href="#DejaVuSans-61" x="411.158203"/>
     <use xlink:href="#DejaVuSans-73" x="472.4375"/>
     <use xlink:href="#DejaVuSans-65" x="524.537109"/>
     <use xlink:href="#DejaVuSans-64" x="586.060547"/>
     <use xlink:href="#DejaVuSans-20" x="649.537109"/>
     <use xlink:href="#DejaVuSans-73" x="681.324219"/>
     <use xlink:href="#DejaVuSans-69" x="733.423828"/>
     <use xlink:href="#DejaVuSans-67" x="761.207031"/>
     <use xlink:href="#DejaVuSans-6e" x="824.683594"/>
     <use xlink:href="#DejaVuSans-61" x="888.0625"/>
     <use xlink:href="#DejaVuSans-6c" x="949.341797"/>
    </g>
   </g>
  </g>
 </g>
 <defs>
  <clipPath id="pe3703f8b47">
   <rect x="20.878125" y="22.318125" width="384.444876" height="208.8"/>
  </clipPath>
 </defs>
</svg>
