<?xml version="1.0" encoding="utf-8" standalone="no"?>
<!DOCTYPE svg PUBLIC "-//W3C//DTD SVG 1.1//EN"
  "http://www.w3.org/Graphics/SVG/1.1/DTD/svg11.dtd">
<svg xmlns:xlink="http://www.w3.org/1999/xlink" width="412.523001pt" height="251.99625pt" viewBox="0 0 412.523001 251.99625" xmlns="http://www.w3.org/2000/svg" version="1.1">
 <metadata>
  <rdf:RDF xmlns:dc="http://purl.org/dc/elements/1.1/" xmlns:cc="http://creativecommons.org/ns#" xmlns:rdf="http://www.w3.org/1999/02/22-rdf-syntax-ns#">
   <cc:Work>
    <dc:type rdf:resource="http://purl.org/dc/dcmitype/StillImage"/>
    <dc:date>2023-11-29T18:44:43.022686</dc:date>
    <dc:format>image/svg+xml</dc:format>
    <dc:creator>
     <cc:Agent>
      <dc:title>Matplotlib v3.8.1, https://matplotlib.org/</dc:title>
     </cc:Agent>
    </dc:creator>
   </cc:Work>
  </rdf:RDF>
 </metadata>
 <defs>
  <style type="text/css">*{stroke-linejoin: round; stroke-linecap: butt}</style>
 </defs>
 <g id="figure_1">
  <g id="patch_1">
   <path d="M 0 251.99625 
L 412.523001 251.99625 
L 412.523001 0 
L 0 0 
L 0 251.99625 
z
" style="fill: none"/>
  </g>
  <g id="axes_1">
   <g id="patch_2">
    <path d="M 20.878125 231.118125 
L 405.323001 231.118125 
L 405.323001 22.318125 
L 20.878125 22.318125 
L 20.878125 231.118125 
z
" style="fill: none"/>
   </g>
   <g id="patch_3">
    <path d="M 387.848234 231.118125 
L 370.607561 236.338125 
L 375.779763 231.207987 
L 43.034776 231.207987 
L 43.034776 231.028263 
L 375.779763 231.028263 
L 370.607561 225.898125 
z
" style="stroke: #000000; stroke-linejoin: miter"/>
   </g>
   <g id="patch_4">
    <path d="M 43.034776 22.318125 
L 47.71666 41.540369 
L 43.035121 35.773696 
L 43.035121 231.118125 
L 43.034431 231.118125 
L 43.034431 35.773696 
L 38.352892 41.540369 
z
" style="stroke: #000000; stroke-linejoin: miter"/>
   </g>
   <g id="matplotlib.axis_1">
    <g id="text_1">
     <!-- Time (ms) -->
     <g transform="translate(187.901344 242.716563) scale(0.1 -0.1)">
      <defs>
       <path id="DejaVuSans-54" d="M -19 4666 
L 3928 4666 
L 3928 4134 
L 2272 4134 
L 2272 0 
L 1638 0 
L 1638 4134 
L -19 4134 
L -19 4666 
z
" transform="scale(0.015625)"/>
       <path id="DejaVuSans-69" d="M 603 3500 
L 1178 3500 
L 1178 0 
L 603 0 
L 603 3500 
z
M 603 4863 
L 1178 4863 
L 1178 4134 
L 603 4134 
L 603 4863 
z
" transform="scale(0.015625)"/>
       <path id="DejaVuSans-6d" d="M 3328 2828 
Q 3544 3216 3844 3400 
Q 4144 3584 4550 3584 
Q 5097 3584 5394 3201 
Q 5691 2819 5691 2113 
L 5691 0 
L 5113 0 
L 5113 2094 
Q 5113 2597 4934 2840 
Q 4756 3084 4391 3084 
Q 3944 3084 3684 2787 
Q 3425 2491 3425 1978 
L 3425 0 
L 2847 0 
L 2847 2094 
Q 2847 2600 2669 2842 
Q 2491 3084 2119 3084 
Q 1678 3084 1418 2786 
Q 1159 2488 1159 1978 
L 1159 0 
L 581 0 
L 581 3500 
L 1159 3500 
L 1159 2956 
Q 1356 3278 1631 3431 
Q 1906 3584 2284 3584 
Q 2666 3584 2933 3390 
Q 3200 3197 3328 2828 
z
" transform="scale(0.015625)"/>
       <path id="DejaVuSans-65" d="M 3597 1894 
L 3597 1613 
L 953 1613 
Q 991 1019 1311 708 
Q 1631 397 2203 397 
Q 2534 397 2845 478 
Q 3156 559 3463 722 
L 3463 178 
Q 3153 47 2828 -22 
Q 2503 -91 2169 -91 
Q 1331 -91 842 396 
Q 353 884 353 1716 
Q 353 2575 817 3079 
Q 1281 3584 2069 3584 
Q 2775 3584 3186 3129 
Q 3597 2675 3597 1894 
z
M 3022 2063 
Q 3016 2534 2758 2815 
Q 2500 3097 2075 3097 
Q 1594 3097 1305 2825 
Q 1016 2553 972 2059 
L 3022 2063 
z
" transform="scale(0.015625)"/>
       <path id="DejaVuSans-20" transform="scale(0.015625)"/>
       <path id="DejaVuSans-28" d="M 1984 4856 
Q 1566 4138 1362 3434 
Q 1159 2731 1159 2009 
Q 1159 1288 1364 580 
Q 1569 -128 1984 -844 
L 1484 -844 
Q 1016 -109 783 600 
Q 550 1309 550 2009 
Q 550 2706 781 3412 
Q 1013 4119 1484 4856 
L 1984 4856 
z
" transform="scale(0.015625)"/>
       <path id="DejaVuSans-73" d="M 2834 3397 
L 2834 2853 
Q 2591 2978 2328 3040 
Q 2066 3103 1784 3103 
Q 1356 3103 1142 2972 
Q 928 2841 928 2578 
Q 928 2378 1081 2264 
Q 1234 2150 1697 2047 
L 1894 2003 
Q 2506 1872 2764 1633 
Q 3022 1394 3022 966 
Q 3022 478 2636 193 
Q 2250 -91 1575 -91 
Q 1294 -91 989 -36 
Q 684 19 347 128 
L 347 722 
Q 666 556 975 473 
Q 1284 391 1588 391 
Q 1994 391 2212 530 
Q 2431 669 2431 922 
Q 2431 1156 2273 1281 
Q 2116 1406 1581 1522 
L 1381 1569 
Q 847 1681 609 1914 
Q 372 2147 372 2553 
Q 372 3047 722 3315 
Q 1072 3584 1716 3584 
Q 2034 3584 2315 3537 
Q 2597 3491 2834 3397 
z
" transform="scale(0.015625)"/>
       <path id="DejaVuSans-29" d="M 513 4856 
L 1013 4856 
Q 1481 4119 1714 3412 
Q 1947 2706 1947 2009 
Q 1947 1309 1714 600 
Q 1481 -109 1013 -844 
L 513 -844 
Q 928 -128 1133 580 
Q 1338 1288 1338 2009 
Q 1338 2731 1133 3434 
Q 928 4138 513 4856 
z
" transform="scale(0.015625)"/>
      </defs>
      <use xlink:href="#DejaVuSans-54"/>
      <use xlink:href="#DejaVuSans-69" x="57.958984"/>
      <use xlink:href="#DejaVuSans-6d" x="85.742188"/>
      <use xlink:href="#DejaVuSans-65" x="183.154297"/>
      <use xlink:href="#DejaVuSans-20" x="244.677734"/>
      <use xlink:href="#DejaVuSans-28" x="276.464844"/>
      <use xlink:href="#DejaVuSans-6d" x="315.478516"/>
      <use xlink:href="#DejaVuSans-73" x="412.890625"/>
      <use xlink:href="#DejaVuSans-29" x="464.990234"/>
     </g>
    </g>
   </g>
   <g id="matplotlib.axis_2">
    <g id="text_2">
     <!-- log-Intensity -->
     <g transform="translate(14.798438 157.907187) rotate(-90) scale(0.1 -0.1)">
      <defs>
       <path id="DejaVuSans-6c" d="M 603 4863 
L 1178 4863 
L 1178 0 
L 603 0 
L 603 4863 
z
" transform="scale(0.015625)"/>
       <path id="DejaVuSans-6f" d="M 1959 3097 
Q 1497 3097 1228 2736 
Q 959 2375 959 1747 
Q 959 1119 1226 758 
Q 1494 397 1959 397 
Q 2419 397 2687 759 
Q 2956 1122 2956 1747 
Q 2956 2369 2687 2733 
Q 2419 3097 1959 3097 
z
M 1959 3584 
Q 2709 3584 3137 3096 
Q 3566 2609 3566 1747 
Q 3566 888 3137 398 
Q 2709 -91 1959 -91 
Q 1206 -91 779 398 
Q 353 888 353 1747 
Q 353 2609 779 3096 
Q 1206 3584 1959 3584 
z
" transform="scale(0.015625)"/>
       <path id="DejaVuSans-67" d="M 2906 1791 
Q 2906 2416 2648 2759 
Q 2391 3103 1925 3103 
Q 1463 3103 1205 2759 
Q 947 2416 947 1791 
Q 947 1169 1205 825 
Q 1463 481 1925 481 
Q 2391 481 2648 825 
Q 2906 1169 2906 1791 
z
M 3481 434 
Q 3481 -459 3084 -895 
Q 2688 -1331 1869 -1331 
Q 1566 -1331 1297 -1286 
Q 1028 -1241 775 -1147 
L 775 -588 
Q 1028 -725 1275 -790 
Q 1522 -856 1778 -856 
Q 2344 -856 2625 -561 
Q 2906 -266 2906 331 
L 2906 616 
Q 2728 306 2450 153 
Q 2172 0 1784 0 
Q 1141 0 747 490 
Q 353 981 353 1791 
Q 353 2603 747 3093 
Q 1141 3584 1784 3584 
Q 2172 3584 2450 3431 
Q 2728 3278 2906 2969 
L 2906 3500 
L 3481 3500 
L 3481 434 
z
" transform="scale(0.015625)"/>
       <path id="DejaVuSans-2d" d="M 313 2009 
L 1997 2009 
L 1997 1497 
L 313 1497 
L 313 2009 
z
" transform="scale(0.015625)"/>
       <path id="DejaVuSans-49" d="M 628 4666 
L 1259 4666 
L 1259 0 
L 628 0 
L 628 4666 
z
" transform="scale(0.015625)"/>
       <path id="DejaVuSans-6e" d="M 3513 2113 
L 3513 0 
L 2938 0 
L 2938 2094 
Q 2938 2591 2744 2837 
Q 2550 3084 2163 3084 
Q 1697 3084 1428 2787 
Q 1159 2491 1159 1978 
L 1159 0 
L 581 0 
L 581 3500 
L 1159 3500 
L 1159 2956 
Q 1366 3272 1645 3428 
Q 1925 3584 2291 3584 
Q 2894 3584 3203 3211 
Q 3513 2838 3513 2113 
z
" transform="scale(0.015625)"/>
       <path id="DejaVuSans-74" d="M 1172 4494 
L 1172 3500 
L 2356 3500 
L 2356 3053 
L 1172 3053 
L 1172 1153 
Q 1172 725 1289 603 
Q 1406 481 1766 481 
L 2356 481 
L 2356 0 
L 1766 0 
Q 1100 0 847 248 
Q 594 497 594 1153 
L 594 3053 
L 172 3053 
L 172 3500 
L 594 3500 
L 594 4494 
L 1172 4494 
z
" transform="scale(0.015625)"/>
       <path id="DejaVuSans-79" d="M 2059 -325 
Q 1816 -950 1584 -1140 
Q 1353 -1331 966 -1331 
L 506 -1331 
L 506 -850 
L 844 -850 
Q 1081 -850 1212 -737 
Q 1344 -625 1503 -206 
L 1606 56 
L 191 3500 
L 800 3500 
L 1894 763 
L 2988 3500 
L 3597 3500 
L 2059 -325 
z
" transform="scale(0.015625)"/>
      </defs>
      <use xlink:href="#DejaVuSans-6c"/>
      <use xlink:href="#DejaVuSans-6f" x="27.783203"/>
      <use xlink:href="#DejaVuSans-67" x="88.964844"/>
      <use xlink:href="#DejaVuSans-2d" x="152.441406"/>
      <use xlink:href="#DejaVuSans-49" x="188.525391"/>
      <use xlink:href="#DejaVuSans-6e" x="218.017578"/>
      <use xlink:href="#DejaVuSans-74" x="281.396484"/>
      <use xlink:href="#DejaVuSans-65" x="320.605469"/>
      <use xlink:href="#DejaVuSans-6e" x="382.128906"/>
      <use xlink:href="#DejaVuSans-73" x="445.507812"/>
      <use xlink:href="#DejaVuSans-69" x="497.607422"/>
      <use xlink:href="#DejaVuSans-74" x="525.390625"/>
      <use xlink:href="#DejaVuSans-79" x="564.599609"/>
     </g>
    </g>
   </g>
   <g id="line2d_1">
    <path d="M 43.034776 101.603365 
L 43.724403 102.146555 
L 44.41403 103.255756 
L 45.103657 104.006722 
L 45.793284 104.279802 
L 47.172537 104.550351 
L 47.862164 105.41082 
L 49.241418 109.16683 
L 49.931045 109.814207 
L 51.310299 109.46461 
L 51.999926 109.174496 
L 53.37918 108.317902 
L 54.068807 108.107442 
L 54.758433 108.032524 
L 55.44806 108.142379 
L 56.137687 108.753975 
L 56.827314 109.767977 
L 57.516941 110.305997 
L 58.206568 110.269193 
L 58.896195 109.950098 
L 60.965076 108.519603 
L 63.033956 106.563691 
L 64.41321 105.873111 
L 65.102837 104.98956 
L 65.792464 103.866217 
L 66.482091 103.073766 
L 67.171718 102.763816 
L 67.861345 102.893085 
L 68.550972 103.63327 
L 69.240599 104.131985 
L 69.930226 104.315453 
L 70.619853 104.897651 
L 71.309479 105.64684 
L 71.999106 105.666455 
L 72.688733 104.853434 
L 73.37836 103.843703 
L 74.067987 103.196473 
L 74.757614 102.961425 
L 75.447241 102.963207 
L 76.826495 103.30085 
L 77.516122 103.523862 
L 78.205749 103.885305 
L 79.585002 105.077537 
L 80.274629 105.375624 
L 80.964256 105.20123 
L 82.34351 103.81685 
L 83.722764 102.553247 
L 84.412391 101.940156 
L 85.102018 101.868804 
L 85.791645 102.384561 
L 86.481272 103.217834 
L 87.170899 103.78091 
L 87.860525 103.979623 
L 88.550152 103.777073 
L 90.619033 103.611695 
L 91.30866 103.898811 
L 91.998287 105.047587 
L 92.687914 106.433894 
L 93.377541 106.42044 
L 94.067168 104.568358 
L 95.446421 99.696116 
L 96.136048 95.985844 
L 98.204929 82.445616 
L 98.894556 74.558534 
L 100.27381 41.725909 
L 100.963437 41.299943 
L 102.342691 71.880717 
L 103.032318 78.306945 
L 103.721944 80.094071 
L 104.411571 81.337171 
L 105.101198 84.295552 
L 105.790825 88.216874 
L 106.480452 90.919853 
L 107.859706 91.889514 
L 108.549333 94.919873 
L 109.23896 98.55526 
L 109.928587 100.790071 
L 110.618214 99.828115 
L 111.307841 96.216148 
L 112.687094 86.016157 
L 113.376721 84.158052 
L 114.066348 86.472686 
L 114.755975 90.541991 
L 115.445602 93.528904 
L 116.135229 95.187739 
L 116.824856 95.542318 
L 117.514483 94.575895 
L 118.20411 92.350776 
L 118.893737 90.548375 
L 119.583364 93.041223 
L 120.27299 102.482234 
L 121.652244 134.268062 
L 122.341871 142.506541 
L 123.031498 145.166315 
L 123.721125 145.146331 
L 124.410752 144.205944 
L 125.790006 141.826518 
L 126.479633 141.596458 
L 127.16926 142.630263 
L 127.858887 144.110098 
L 128.548513 144.93609 
L 129.23814 144.778591 
L 129.927767 144.317148 
L 130.617394 144.260582 
L 131.307021 144.934744 
L 131.996648 145.953005 
L 132.686275 146.566539 
L 133.375902 146.427867 
L 134.755156 145.371277 
L 135.444783 145.074401 
L 136.13441 145.110468 
L 136.824036 145.352868 
L 137.513663 145.356217 
L 138.20329 144.768797 
L 138.892917 143.765459 
L 139.582544 143.020355 
L 140.961798 142.370504 
L 141.651425 141.578089 
L 142.341052 140.412124 
L 143.030679 139.625528 
L 143.720306 139.877949 
L 145.099559 141.493557 
L 145.789186 141.648415 
L 146.478813 141.441409 
L 147.16844 141.36997 
L 147.858067 141.500887 
L 148.547694 141.780167 
L 149.237321 142.558142 
L 149.926948 143.532798 
L 150.616575 144.027811 
L 151.306202 143.990501 
L 151.995829 143.626401 
L 154.754336 141.166429 
L 156.13359 140.801311 
L 156.823217 140.843518 
L 158.202471 141.370171 
L 158.892098 141.678969 
L 159.581725 141.525907 
L 160.960978 140.900625 
L 163.029859 139.331628 
L 163.719486 139.34328 
L 164.409113 139.848087 
L 165.09874 140.717081 
L 165.788367 141.362252 
L 166.477994 141.366427 
L 167.167621 140.988297 
L 167.857248 140.830189 
L 168.546875 140.871139 
L 169.236501 141.044935 
L 169.926128 141.651125 
L 170.615755 142.486944 
L 171.305382 142.573278 
L 171.995009 141.795952 
L 172.684636 140.023248 
L 173.374263 136.96765 
L 174.06389 130.954972 
L 174.753517 119.117949 
L 175.443144 104.678533 
L 176.132771 96.232066 
L 176.822398 93.651427 
L 177.512024 93.451969 
L 178.201651 93.120896 
L 179.580905 91.209367 
L 180.270532 92.171774 
L 180.960159 97.027772 
L 181.649786 108.057778 
L 182.339413 122.400291 
L 183.02904 131.719123 
L 183.718667 134.789933 
L 184.408294 134.513228 
L 185.097921 133.794366 
L 185.787547 133.639032 
L 186.477174 133.813997 
L 187.166801 134.415715 
L 187.856428 135.264194 
L 188.546055 135.567685 
L 190.614936 134.034696 
L 191.304563 132.68409 
L 191.99419 127.494234 
L 192.683817 115.54521 
L 193.373443 100.292495 
L 194.06307 90.831601 
L 194.752697 87.107312 
L 195.442324 85.306497 
L 196.131951 82.806718 
L 196.821578 78.260879 
L 197.511205 70.044632 
L 198.200832 59.886736 
L 198.890459 57.822844 
L 199.580086 76.758929 
L 200.269713 103.321584 
L 200.95934 122.630022 
L 201.648966 129.681884 
L 202.338593 125.534776 
L 203.02822 111.606208 
L 204.407474 72.541756 
L 205.097101 67.747136 
L 205.786728 75.513457 
L 206.476355 84.836011 
L 207.165982 90.239116 
L 207.855609 89.681464 
L 209.924489 77.009629 
L 210.614116 75.32047 
L 211.303743 75.12989 
L 211.99337 75.143777 
L 212.682997 76.037175 
L 213.372624 79.26407 
L 214.751878 88.707746 
L 215.441505 88.954164 
L 216.131132 89.575699 
L 216.820759 98.790087 
L 218.200012 130.669808 
L 218.889639 138.759791 
L 219.579266 140.658488 
L 220.268893 139.653977 
L 220.95852 139.319582 
L 222.337774 142.52151 
L 223.027401 141.032469 
L 223.717028 133.935789 
L 225.096282 102.393626 
L 225.785909 92.188479 
L 226.475535 87.860407 
L 227.165162 86.487058 
L 227.854789 86.160831 
L 228.544416 86.563808 
L 229.92367 88.59849 
L 230.613297 89.094447 
L 231.302924 88.239784 
L 231.992551 87.788406 
L 232.682178 89.414624 
L 233.371805 91.781946 
L 234.061431 92.083935 
L 234.751058 90.685841 
L 235.440685 88.94635 
L 236.130312 88.394332 
L 237.509566 88.201651 
L 238.88882 87.154068 
L 239.578447 86.993546 
L 240.268074 86.350536 
L 240.957701 85.911771 
L 242.336954 86.240041 
L 243.716208 85.246455 
L 244.405835 85.435499 
L 245.785089 86.353867 
L 246.474716 87.080546 
L 247.164343 88.138575 
L 247.85397 88.616181 
L 248.543597 87.813693 
L 249.233224 86.645206 
L 249.922851 86.50154 
L 250.612477 88.078665 
L 251.302104 92.082266 
L 251.991731 100.644684 
L 253.370985 131.964232 
L 254.060612 140.661096 
L 254.750239 143.350432 
L 255.439866 143.278678 
L 256.129493 142.693554 
L 257.508747 141.827409 
L 258.198374 141.052262 
L 258.888 139.821558 
L 259.577627 137.828383 
L 260.267254 134.859806 
L 260.956881 131.280715 
L 261.646508 129.125746 
L 262.336135 127.934142 
L 263.025762 124.161592 
L 263.715389 118.337223 
L 264.405016 114.916496 
L 265.094643 115.130225 
L 265.78427 118.251035 
L 266.473897 122.841673 
L 267.163523 125.789082 
L 267.85315 126.22566 
L 268.542777 126.033289 
L 269.232404 126.957454 
L 271.990912 132.516499 
L 272.680539 131.915052 
L 273.370166 128.244351 
L 274.74942 113.836581 
L 275.439046 109.441526 
L 276.128673 109.787035 
L 278.197554 120.474191 
L 278.887181 122.520775 
L 279.576808 123.583275 
L 280.266435 124.153216 
L 280.956062 124.294214 
L 282.335316 123.909952 
L 283.024942 123.976494 
L 284.404196 124.436827 
L 285.78345 124.643332 
L 286.473077 124.92455 
L 287.162704 125.443615 
L 287.852331 126.154597 
L 289.921212 129.045349 
L 290.610839 129.31129 
L 291.990092 128.494469 
L 292.679719 128.087495 
L 293.369346 127.893121 
L 294.058973 127.988924 
L 296.817481 129.597284 
L 298.196735 129.813062 
L 298.886362 130.081717 
L 299.575988 129.970551 
L 300.955242 128.961768 
L 302.334496 127.872808 
L 303.024123 127.793629 
L 303.71375 128.214821 
L 304.403377 129.027525 
L 305.093004 129.638883 
L 305.782631 129.564638 
L 307.161885 128.228388 
L 307.851511 127.520052 
L 308.541138 127.034248 
L 309.230765 126.844568 
L 309.920392 125.912015 
L 311.299646 120.379159 
L 311.989273 117.716896 
L 312.6789 115.797766 
L 313.368527 115.235017 
L 314.058154 115.177384 
L 314.747781 115.328996 
L 315.437408 115.150582 
L 318.195915 110.399814 
L 318.885542 110.100016 
L 320.954423 110.961307 
L 321.64405 112.104187 
L 322.333677 115.195251 
L 323.023304 120.271435 
L 323.712931 126.577897 
L 324.402557 131.614968 
L 325.092184 133.813284 
L 325.781811 134.605974 
L 326.471438 136.265227 
L 327.161065 139.242078 
L 327.850692 141.328224 
L 328.540319 141.909624 
L 329.229946 141.508484 
L 329.919573 140.843158 
L 330.6092 141.298851 
L 331.988453 144.257448 
L 333.367707 145.699847 
L 334.057334 144.994829 
L 334.746961 139.296205 
L 335.436588 124.624394 
L 336.126215 105.351608 
L 336.815842 93.372833 
L 337.505469 89.486673 
L 340.263976 86.689465 
L 340.953603 86.652207 
L 342.332857 90.245046 
L 343.022484 89.065064 
L 343.712111 83.013249 
L 344.401738 73.696158 
L 345.091365 71.935516 
L 346.470619 88.567256 
L 347.160246 92.415154 
L 347.849873 92.07871 
L 348.539499 88.84247 
L 349.229126 84.491417 
L 349.918753 81.255597 
L 350.60838 80.348002 
L 351.298007 81.982912 
L 352.677261 86.988413 
L 353.366888 88.312399 
L 354.056515 87.741369 
L 354.746142 85.967227 
L 355.435769 84.93932 
L 356.125396 86.191084 
L 356.815022 91.6066 
L 358.194276 110.071282 
L 358.883903 114.175785 
L 359.57353 115.587873 
L 360.263157 115.995675 
L 360.952784 115.953297 
L 361.642411 115.188153 
L 363.021665 112.563182 
L 363.711292 112.027299 
L 364.400919 112.298089 
L 365.090545 113.113989 
L 366.469799 115.657812 
L 367.159426 116.389414 
L 367.849053 116.351841 
L 368.53868 115.949499 
L 369.228307 115.795551 
L 369.917934 116.352869 
L 371.297188 118.498938 
L 371.986815 119.232255 
L 372.676442 119.734415 
L 374.745322 120.881716 
L 375.434949 121.635518 
L 376.814203 123.583367 
L 377.50383 123.952924 
L 378.193457 124.138124 
L 378.883084 124.04417 
L 380.951964 123.02349 
L 381.641591 123.046182 
L 382.331218 122.93022 
L 383.020845 121.810114 
L 383.710472 119.289538 
L 385.089726 112.994368 
L 385.779353 110.509611 
L 386.46898 109.113263 
L 387.158607 108.890369 
L 387.158607 108.890369 
" clip-path="url(#p30bb101e61)" style="fill: none; stroke: #0000ff; stroke-opacity: 0.2; stroke-width: 1.5; stroke-linecap: square"/>
   </g>
   <g id="line2d_2">
    <path d="M 43.034776 101.603365 
L 43.724403 102.146555 
L 44.41403 103.255756 
L 45.103657 104.006722 
L 45.793284 104.279802 
L 47.172537 104.550351 
L 47.862164 105.41082 
L 49.241418 109.16683 
L 49.931045 109.814207 
L 51.310299 109.46461 
L 51.999926 109.174496 
L 53.37918 108.317902 
L 54.068807 108.107442 
L 54.758433 108.032524 
L 55.44806 108.142379 
L 56.137687 108.753975 
L 56.827314 109.767977 
L 57.516941 110.305997 
L 58.206568 110.269193 
L 58.896195 109.950098 
L 60.965076 108.519603 
L 63.033956 106.563691 
L 64.41321 105.873111 
L 65.102837 104.98956 
L 65.792464 103.866217 
L 66.482091 103.073766 
L 67.171718 102.763816 
L 67.861345 102.893085 
L 68.550972 103.63327 
L 69.240599 104.131985 
L 69.930226 104.315453 
L 70.619853 104.897651 
L 71.309479 105.64684 
L 71.999106 105.666455 
L 72.688733 104.853434 
L 73.37836 103.843703 
L 74.067987 103.196473 
L 74.757614 102.961425 
L 75.447241 102.963207 
L 76.826495 103.30085 
L 77.516122 103.523862 
L 78.205749 103.885305 
L 79.585002 105.077537 
L 80.274629 105.375624 
L 80.964256 105.20123 
L 82.34351 103.81685 
L 83.722764 102.553247 
L 84.412391 101.940156 
L 85.102018 101.868804 
L 85.791645 102.384561 
L 86.481272 103.217834 
L 87.170899 103.78091 
L 87.860525 103.979623 
L 88.550152 103.777073 
L 90.619033 103.611695 
L 91.30866 103.898811 
L 91.998287 105.047587 
L 92.687914 106.433894 
L 93.377541 106.42044 
L 94.067168 104.568358 
L 95.446421 99.696116 
L 96.136048 95.985844 
L 98.204929 82.445616 
L 98.894556 74.558534 
L 100.27381 41.725909 
L 100.963437 41.299943 
L 102.342691 71.880717 
L 103.032318 78.306945 
L 103.721944 80.094071 
L 104.411571 81.337171 
L 105.101198 84.295552 
L 105.790825 88.216874 
L 106.480452 90.919853 
L 107.859706 91.889514 
L 108.549333 94.919873 
L 109.23896 98.55526 
L 109.928587 100.790071 
L 110.618214 99.828115 
L 111.307841 96.216148 
L 112.687094 86.016157 
L 113.376721 84.158052 
L 114.066348 86.472686 
L 114.755975 90.541991 
L 115.445602 93.528904 
L 116.135229 95.187739 
L 116.824856 95.542318 
L 117.514483 94.575895 
L 118.20411 92.350776 
L 118.893737 90.548375 
L 119.583364 93.041223 
L 120.27299 102.482234 
L 121.652244 134.268062 
L 122.341871 142.506541 
L 123.031498 145.166315 
L 123.721125 145.146331 
L 124.410752 144.205944 
L 125.790006 141.826518 
L 126.479633 141.596458 
L 127.16926 142.630263 
L 127.858887 144.110098 
L 128.548513 144.93609 
L 129.23814 144.778591 
L 129.927767 144.317148 
L 130.617394 144.260582 
L 131.307021 144.934744 
L 131.996648 145.953005 
L 132.686275 146.566539 
L 133.375902 146.427867 
L 134.755156 145.371277 
L 135.444783 145.074401 
L 136.13441 145.110468 
L 136.824036 145.352868 
L 137.513663 145.356217 
L 138.20329 144.768797 
L 138.892917 143.765459 
L 139.582544 143.020355 
L 140.961798 142.370504 
L 141.651425 141.578089 
L 142.341052 140.412124 
L 143.030679 139.625528 
L 143.720306 139.877949 
L 145.099559 141.493557 
L 145.789186 141.648415 
L 146.478813 141.441409 
L 147.16844 141.36997 
L 147.858067 141.500887 
L 148.547694 141.780167 
L 149.237321 142.558142 
L 149.926948 143.532798 
L 150.616575 144.027811 
L 151.306202 143.990501 
L 151.995829 143.626401 
L 154.754336 141.166429 
L 156.13359 140.801311 
L 156.823217 140.843518 
L 158.202471 141.370171 
L 158.892098 141.678969 
L 159.581725 141.525907 
L 160.960978 140.900625 
L 163.029859 139.331628 
L 163.719486 139.34328 
L 164.409113 139.848087 
L 165.09874 140.717081 
L 165.788367 141.362252 
L 166.477994 141.366427 
L 167.167621 140.988297 
L 167.857248 140.830189 
L 168.546875 140.871139 
L 169.236501 141.044935 
L 169.926128 141.651125 
L 170.615755 142.486944 
L 171.305382 142.573278 
L 171.995009 141.795952 
L 172.684636 140.023248 
L 173.374263 136.96765 
L 174.06389 130.954972 
L 174.753517 119.117949 
L 175.443144 104.678533 
L 176.132771 96.232066 
L 176.822398 93.651427 
L 177.512024 93.451969 
L 178.201651 93.120896 
L 179.580905 91.209367 
L 180.270532 92.171774 
L 180.960159 97.027772 
L 181.649786 108.057778 
L 182.339413 122.400291 
L 183.02904 131.719123 
L 183.718667 134.789933 
L 184.408294 134.513228 
L 185.097921 133.794366 
L 185.787547 133.639032 
L 186.477174 133.813997 
L 187.166801 134.415715 
L 187.856428 135.264194 
L 188.546055 135.567685 
L 190.614936 134.034696 
L 191.304563 132.68409 
L 191.99419 127.494234 
L 192.683817 115.54521 
L 193.373443 100.292495 
L 194.06307 90.831601 
L 194.752697 87.107312 
L 195.442324 85.306497 
L 196.131951 82.806718 
L 196.821578 78.260879 
L 197.511205 70.044632 
L 198.200832 59.886736 
L 198.890459 57.822844 
L 199.580086 76.758929 
L 200.269713 103.321584 
L 200.95934 122.630022 
L 201.648966 129.681884 
L 202.338593 125.534776 
L 203.02822 111.606208 
L 204.407474 72.541756 
L 205.097101 67.747136 
L 205.786728 75.513457 
L 206.476355 84.836011 
L 207.165982 90.239116 
L 207.855609 89.681464 
L 209.924489 77.009629 
L 210.614116 75.32047 
L 211.303743 75.12989 
L 211.99337 75.143777 
L 212.682997 76.037175 
L 213.372624 79.26407 
L 214.751878 88.707746 
L 215.441505 88.954164 
L 216.131132 89.575699 
L 216.820759 98.790087 
L 218.200012 130.669808 
L 218.889639 138.759791 
L 219.579266 140.658488 
L 220.268893 139.653977 
L 220.95852 139.319582 
L 222.337774 142.52151 
L 223.027401 141.032469 
L 223.717028 133.935789 
L 225.096282 102.393626 
L 225.785909 92.188479 
L 226.475535 87.860407 
L 227.165162 86.487058 
L 227.854789 86.160831 
L 228.544416 86.563808 
L 229.92367 88.59849 
L 230.613297 89.094447 
L 231.302924 88.239784 
L 231.992551 87.788406 
L 232.682178 89.414624 
L 233.371805 91.781946 
L 234.061431 92.083935 
L 234.751058 90.685841 
L 235.440685 88.94635 
L 236.130312 88.394332 
L 237.509566 88.201651 
L 238.88882 87.154068 
L 239.578447 86.993546 
L 240.268074 86.350536 
L 240.957701 85.911771 
L 242.336954 86.240041 
L 243.716208 85.246455 
L 244.405835 85.435499 
L 245.785089 86.353867 
L 246.474716 87.080546 
L 247.164343 88.138575 
L 247.85397 88.616181 
L 248.543597 87.813693 
L 249.233224 86.645206 
L 249.922851 86.50154 
L 250.612477 88.078665 
L 251.302104 92.082266 
L 251.991731 100.644684 
L 253.370985 131.964232 
L 254.060612 140.661096 
L 254.750239 143.350432 
L 255.439866 143.278678 
L 256.129493 142.693554 
L 257.508747 141.827409 
L 258.198374 141.052262 
L 258.888 139.821558 
L 259.577627 137.828383 
L 260.267254 134.859806 
L 260.956881 131.280715 
L 261.646508 129.125746 
L 262.336135 127.934142 
L 263.025762 124.161592 
L 263.715389 118.337223 
L 264.405016 114.916496 
L 265.094643 115.130225 
L 265.78427 118.251035 
L 266.473897 122.841673 
L 267.163523 125.789082 
L 267.85315 126.22566 
L 268.542777 126.033289 
L 269.232404 126.957454 
L 271.990912 132.516499 
L 272.680539 131.915052 
L 273.370166 128.244351 
L 274.74942 113.836581 
L 275.439046 109.441526 
L 276.128673 109.787035 
L 278.197554 120.474191 
L 278.887181 122.520775 
L 279.576808 123.583275 
L 280.266435 124.153216 
L 280.956062 124.294214 
L 282.335316 123.909952 
L 283.024942 123.976494 
L 284.404196 124.436827 
L 285.78345 124.643332 
L 286.473077 124.92455 
L 287.162704 125.443615 
L 287.852331 126.154597 
L 289.921212 129.045349 
L 290.610839 129.31129 
L 291.990092 128.494469 
L 292.679719 128.087495 
L 293.369346 127.893121 
L 294.058973 127.988924 
L 296.817481 129.597284 
L 298.196735 129.813062 
L 298.886362 130.081717 
L 299.575988 129.970551 
L 300.955242 128.961768 
L 302.334496 127.872808 
L 303.024123 127.793629 
L 303.71375 128.214821 
L 304.403377 129.027525 
L 305.093004 129.638883 
L 305.782631 129.564638 
L 307.161885 128.228388 
L 307.851511 127.520052 
L 308.541138 127.034248 
L 309.230765 126.844568 
L 309.920392 125.912015 
L 311.299646 120.379159 
L 311.989273 117.716896 
L 312.6789 115.797766 
L 313.368527 115.235017 
L 314.058154 115.177384 
L 314.747781 115.328996 
L 315.437408 115.150582 
L 318.195915 110.399814 
L 318.885542 110.100016 
L 320.954423 110.961307 
L 321.64405 112.104187 
L 322.333677 115.195251 
L 323.023304 120.271435 
L 323.712931 126.577897 
L 324.402557 131.614968 
L 325.092184 133.813284 
L 325.781811 134.605974 
L 326.471438 136.265227 
L 327.161065 139.242078 
L 327.850692 141.328224 
L 328.540319 141.909624 
L 329.229946 141.508484 
L 329.919573 140.843158 
L 330.6092 141.298851 
L 331.988453 144.257448 
L 333.367707 145.699847 
L 334.057334 144.994829 
L 334.746961 139.296205 
L 335.436588 124.624394 
L 336.126215 105.351608 
L 336.815842 93.372833 
L 337.505469 89.486673 
L 340.263976 86.689465 
L 340.953603 86.652207 
L 342.332857 90.245046 
L 343.022484 89.065064 
L 343.712111 83.013249 
L 344.401738 73.696158 
L 345.091365 71.935516 
L 346.470619 88.567256 
L 347.160246 92.415154 
L 347.849873 92.07871 
L 348.539499 88.84247 
L 349.229126 84.491417 
L 349.918753 81.255597 
L 350.60838 80.348002 
L 351.298007 81.982912 
L 352.677261 86.988413 
L 353.366888 88.312399 
L 354.056515 87.741369 
L 354.746142 85.967227 
L 355.435769 84.93932 
L 356.125396 86.191084 
L 356.815022 91.6066 
L 358.194276 110.071282 
L 358.883903 114.175785 
L 359.57353 115.587873 
L 360.263157 115.995675 
L 360.952784 115.953297 
L 361.642411 115.188153 
L 363.021665 112.563182 
L 363.711292 112.027299 
L 364.400919 112.298089 
L 365.090545 113.113989 
L 366.469799 115.657812 
L 367.159426 116.389414 
L 367.849053 116.351841 
L 368.53868 115.949499 
L 369.228307 115.795551 
L 369.917934 116.352869 
L 371.297188 118.498938 
L 371.986815 119.232255 
L 372.676442 119.734415 
L 374.745322 120.881716 
L 375.434949 121.635518 
L 376.814203 123.583367 
L 377.50383 123.952924 
L 378.193457 124.138124 
L 378.883084 124.04417 
L 380.951964 123.02349 
L 381.641591 123.046182 
L 382.331218 122.93022 
L 383.020845 121.810114 
L 383.710472 119.289538 
L 385.089726 112.994368 
L 385.779353 110.509611 
L 386.46898 109.113263 
L 387.158607 108.890369 
L 387.158607 108.890369 
" clip-path="url(#p30bb101e61)" style="fill: none; stroke: #0000ff; stroke-width: 1.5; stroke-linecap: square"/>
   </g>
   <g id="line2d_3">
    <path d="M 43.034776 231.118125 
L 43.034776 22.318125 
" clip-path="url(#p30bb101e61)" style="fill: none; stroke-dasharray: 0.2,0.33; stroke-dashoffset: 0; stroke: #000000; stroke-width: 0.2"/>
   </g>
   <g id="line2d_4">
    <defs>
     <path id="mb7890404f2" d="M 0 3 
C 0.795609 3 1.55874 2.683901 2.12132 2.12132 
C 2.683901 1.55874 3 0.795609 3 0 
C 3 -0.795609 2.683901 -1.55874 2.12132 -2.12132 
C 1.55874 -2.683901 0.795609 -3 0 -3 
C -0.795609 -3 -1.55874 -2.683901 -2.12132 -2.12132 
C -2.683901 -1.55874 -3 -0.795609 -3 0 
C -3 0.795609 -2.683901 1.55874 -2.12132 2.12132 
C -1.55874 2.683901 -0.795609 3 0 3 
z
" style="stroke: #ff4500"/>
    </defs>
    <g clip-path="url(#p30bb101e61)">
     <use xlink:href="#mb7890404f2" x="43.034776" y="101.603365" style="fill-opacity: 0; stroke: #ff4500"/>
    </g>
   </g>
   <g id="line2d_5">
    <path d="M 54.068807 231.118125 
L 54.068807 22.318125 
" clip-path="url(#p30bb101e61)" style="fill: none; stroke-dasharray: 0.2,0.33; stroke-dashoffset: 0; stroke: #000000; stroke-width: 0.2"/>
   </g>
   <g id="line2d_6">
    <g clip-path="url(#p30bb101e61)">
     <use xlink:href="#mb7890404f2" x="54.068807" y="108.107442" style="fill-opacity: 0; stroke: #ff4500"/>
    </g>
   </g>
   <g id="line2d_7">
    <path d="M 65.102837 231.118125 
L 65.102837 22.318125 
" clip-path="url(#p30bb101e61)" style="fill: none; stroke-dasharray: 0.2,0.33; stroke-dashoffset: 0; stroke: #000000; stroke-width: 0.2"/>
   </g>
   <g id="line2d_8">
    <g clip-path="url(#p30bb101e61)">
     <use xlink:href="#mb7890404f2" x="65.102837" y="104.98956" style="fill-opacity: 0; stroke: #ff4500"/>
    </g>
   </g>
   <g id="line2d_9">
    <path d="M 76.826495 231.118125 
L 76.826495 22.318125 
" clip-path="url(#p30bb101e61)" style="fill: none; stroke-dasharray: 0.2,0.33; stroke-dashoffset: 0; stroke: #000000; stroke-width: 0.2"/>
   </g>
   <g id="line2d_10">
    <g clip-path="url(#p30bb101e61)">
     <use xlink:href="#mb7890404f2" x="76.826495" y="103.30085" style="fill-opacity: 0; stroke: #ff4500"/>
    </g>
   </g>
   <g id="line2d_11">
    <path d="M 87.860525 231.118125 
L 87.860525 22.318125 
" clip-path="url(#p30bb101e61)" style="fill: none; stroke-dasharray: 0.2,0.33; stroke-dashoffset: 0; stroke: #000000; stroke-width: 0.2"/>
   </g>
   <g id="line2d_12">
    <g clip-path="url(#p30bb101e61)">
     <use xlink:href="#mb7890404f2" x="87.860525" y="103.979623" style="fill-opacity: 0; stroke: #ff4500"/>
    </g>
   </g>
   <g id="line2d_13">
    <path d="M 98.894556 231.118125 
L 98.894556 22.318125 
" clip-path="url(#p30bb101e61)" style="fill: none; stroke-dasharray: 0.2,0.33; stroke-dashoffset: 0; stroke: #000000; stroke-width: 0.2"/>
   </g>
   <g id="line2d_14">
    <g clip-path="url(#p30bb101e61)">
     <use xlink:href="#mb7890404f2" x="98.894556" y="74.558534" style="fill-opacity: 0; stroke: #ff4500"/>
    </g>
   </g>
   <g id="line2d_15">
    <path d="M 110.618214 231.118125 
L 110.618214 22.318125 
" clip-path="url(#p30bb101e61)" style="fill: none; stroke-dasharray: 0.2,0.33; stroke-dashoffset: 0; stroke: #000000; stroke-width: 0.2"/>
   </g>
   <g id="line2d_16">
    <g clip-path="url(#p30bb101e61)">
     <use xlink:href="#mb7890404f2" x="110.618214" y="99.828115" style="fill-opacity: 0; stroke: #ff4500"/>
    </g>
   </g>
   <g id="line2d_17">
    <path d="M 121.652244 231.118125 
L 121.652244 22.318125 
" clip-path="url(#p30bb101e61)" style="fill: none; stroke-dasharray: 0.2,0.33; stroke-dashoffset: 0; stroke: #000000; stroke-width: 0.2"/>
   </g>
   <g id="line2d_18">
    <g clip-path="url(#p30bb101e61)">
     <use xlink:href="#mb7890404f2" x="121.652244" y="134.268062" style="fill-opacity: 0; stroke: #ff4500"/>
    </g>
   </g>
   <g id="line2d_19">
    <path d="M 133.375902 231.118125 
L 133.375902 22.318125 
" clip-path="url(#p30bb101e61)" style="fill: none; stroke-dasharray: 0.2,0.33; stroke-dashoffset: 0; stroke: #000000; stroke-width: 0.2"/>
   </g>
   <g id="line2d_20">
    <g clip-path="url(#p30bb101e61)">
     <use xlink:href="#mb7890404f2" x="133.375902" y="146.427867" style="fill-opacity: 0; stroke: #ff4500"/>
    </g>
   </g>
   <g id="line2d_21">
    <path d="M 144.409932 231.118125 
L 144.409932 22.318125 
" clip-path="url(#p30bb101e61)" style="fill: none; stroke-dasharray: 0.2,0.33; stroke-dashoffset: 0; stroke: #000000; stroke-width: 0.2"/>
   </g>
   <g id="line2d_22">
    <g clip-path="url(#p30bb101e61)">
     <use xlink:href="#mb7890404f2" x="144.409932" y="140.744724" style="fill-opacity: 0; stroke: #ff4500"/>
    </g>
   </g>
   <g id="line2d_23">
    <path d="M 155.443963 231.118125 
L 155.443963 22.318125 
" clip-path="url(#p30bb101e61)" style="fill: none; stroke-dasharray: 0.2,0.33; stroke-dashoffset: 0; stroke: #000000; stroke-width: 0.2"/>
   </g>
   <g id="line2d_24">
    <g clip-path="url(#p30bb101e61)">
     <use xlink:href="#mb7890404f2" x="155.443963" y="140.936179" style="fill-opacity: 0; stroke: #ff4500"/>
    </g>
   </g>
   <g id="line2d_25">
    <path d="M 167.167621 231.118125 
L 167.167621 22.318125 
" clip-path="url(#p30bb101e61)" style="fill: none; stroke-dasharray: 0.2,0.33; stroke-dashoffset: 0; stroke: #000000; stroke-width: 0.2"/>
   </g>
   <g id="line2d_26">
    <g clip-path="url(#p30bb101e61)">
     <use xlink:href="#mb7890404f2" x="167.167621" y="140.988297" style="fill-opacity: 0; stroke: #ff4500"/>
    </g>
   </g>
   <g id="line2d_27">
    <path d="M 178.201651 231.118125 
L 178.201651 22.318125 
" clip-path="url(#p30bb101e61)" style="fill: none; stroke-dasharray: 0.2,0.33; stroke-dashoffset: 0; stroke: #000000; stroke-width: 0.2"/>
   </g>
   <g id="line2d_28">
    <g clip-path="url(#p30bb101e61)">
     <use xlink:href="#mb7890404f2" x="178.201651" y="93.120896" style="fill-opacity: 0; stroke: #ff4500"/>
    </g>
   </g>
   <g id="line2d_29">
    <path d="M 189.235682 231.118125 
L 189.235682 22.318125 
" clip-path="url(#p30bb101e61)" style="fill: none; stroke-dasharray: 0.2,0.33; stroke-dashoffset: 0; stroke: #000000; stroke-width: 0.2"/>
   </g>
   <g id="line2d_30">
    <g clip-path="url(#p30bb101e61)">
     <use xlink:href="#mb7890404f2" x="189.235682" y="135.052518" style="fill-opacity: 0; stroke: #ff4500"/>
    </g>
   </g>
   <g id="line2d_31">
    <path d="M 200.95934 231.118125 
L 200.95934 22.318125 
" clip-path="url(#p30bb101e61)" style="fill: none; stroke-dasharray: 0.2,0.33; stroke-dashoffset: 0; stroke: #000000; stroke-width: 0.2"/>
   </g>
   <g id="line2d_32">
    <g clip-path="url(#p30bb101e61)">
     <use xlink:href="#mb7890404f2" x="200.95934" y="122.630022" style="fill-opacity: 0; stroke: #ff4500"/>
    </g>
   </g>
   <g id="line2d_33">
    <path d="M 211.99337 231.118125 
L 211.99337 22.318125 
" clip-path="url(#p30bb101e61)" style="fill: none; stroke-dasharray: 0.2,0.33; stroke-dashoffset: 0; stroke: #000000; stroke-width: 0.2"/>
   </g>
   <g id="line2d_34">
    <g clip-path="url(#p30bb101e61)">
     <use xlink:href="#mb7890404f2" x="211.99337" y="75.143777" style="fill-opacity: 0; stroke: #ff4500"/>
    </g>
   </g>
   <g id="line2d_35">
    <path d="M 223.717028 231.118125 
L 223.717028 22.318125 
" clip-path="url(#p30bb101e61)" style="fill: none; stroke-dasharray: 0.2,0.33; stroke-dashoffset: 0; stroke: #000000; stroke-width: 0.2"/>
   </g>
   <g id="line2d_36">
    <g clip-path="url(#p30bb101e61)">
     <use xlink:href="#mb7890404f2" x="223.717028" y="133.935789" style="fill-opacity: 0; stroke: #ff4500"/>
    </g>
   </g>
   <g id="line2d_37">
    <path d="M 234.751058 231.118125 
L 234.751058 22.318125 
" clip-path="url(#p30bb101e61)" style="fill: none; stroke-dasharray: 0.2,0.33; stroke-dashoffset: 0; stroke: #000000; stroke-width: 0.2"/>
   </g>
   <g id="line2d_38">
    <g clip-path="url(#p30bb101e61)">
     <use xlink:href="#mb7890404f2" x="234.751058" y="90.685841" style="fill-opacity: 0; stroke: #ff4500"/>
    </g>
   </g>
   <g id="line2d_39">
    <path d="M 245.785089 231.118125 
L 245.785089 22.318125 
" clip-path="url(#p30bb101e61)" style="fill: none; stroke-dasharray: 0.2,0.33; stroke-dashoffset: 0; stroke: #000000; stroke-width: 0.2"/>
   </g>
   <g id="line2d_40">
    <g clip-path="url(#p30bb101e61)">
     <use xlink:href="#mb7890404f2" x="245.785089" y="86.353867" style="fill-opacity: 0; stroke: #ff4500"/>
    </g>
   </g>
   <g id="line2d_41">
    <path d="M 257.508747 231.118125 
L 257.508747 22.318125 
" clip-path="url(#p30bb101e61)" style="fill: none; stroke-dasharray: 0.2,0.33; stroke-dashoffset: 0; stroke: #000000; stroke-width: 0.2"/>
   </g>
   <g id="line2d_42">
    <g clip-path="url(#p30bb101e61)">
     <use xlink:href="#mb7890404f2" x="257.508747" y="141.827409" style="fill-opacity: 0; stroke: #ff4500"/>
    </g>
   </g>
   <g id="line2d_43">
    <path d="M 268.542777 231.118125 
L 268.542777 22.318125 
" clip-path="url(#p30bb101e61)" style="fill: none; stroke-dasharray: 0.2,0.33; stroke-dashoffset: 0; stroke: #000000; stroke-width: 0.2"/>
   </g>
   <g id="line2d_44">
    <g clip-path="url(#p30bb101e61)">
     <use xlink:href="#mb7890404f2" x="268.542777" y="126.033289" style="fill-opacity: 0; stroke: #ff4500"/>
    </g>
   </g>
   <g id="line2d_45">
    <path d="M 279.576808 231.118125 
L 279.576808 22.318125 
" clip-path="url(#p30bb101e61)" style="fill: none; stroke-dasharray: 0.2,0.33; stroke-dashoffset: 0; stroke: #000000; stroke-width: 0.2"/>
   </g>
   <g id="line2d_46">
    <g clip-path="url(#p30bb101e61)">
     <use xlink:href="#mb7890404f2" x="279.576808" y="123.583275" style="fill-opacity: 0; stroke: #ff4500"/>
    </g>
   </g>
   <g id="line2d_47">
    <path d="M 291.300465 231.118125 
L 291.300465 22.318125 
" clip-path="url(#p30bb101e61)" style="fill: none; stroke-dasharray: 0.2,0.33; stroke-dashoffset: 0; stroke: #000000; stroke-width: 0.2"/>
   </g>
   <g id="line2d_48">
    <g clip-path="url(#p30bb101e61)">
     <use xlink:href="#mb7890404f2" x="291.300465" y="128.961331" style="fill-opacity: 0; stroke: #ff4500"/>
    </g>
   </g>
   <g id="line2d_49">
    <path d="M 302.334496 231.118125 
L 302.334496 22.318125 
" clip-path="url(#p30bb101e61)" style="fill: none; stroke-dasharray: 0.2,0.33; stroke-dashoffset: 0; stroke: #000000; stroke-width: 0.2"/>
   </g>
   <g id="line2d_50">
    <g clip-path="url(#p30bb101e61)">
     <use xlink:href="#mb7890404f2" x="302.334496" y="127.872808" style="fill-opacity: 0; stroke: #ff4500"/>
    </g>
   </g>
   <g id="line2d_51">
    <path d="M 314.058154 231.118125 
L 314.058154 22.318125 
" clip-path="url(#p30bb101e61)" style="fill: none; stroke-dasharray: 0.2,0.33; stroke-dashoffset: 0; stroke: #000000; stroke-width: 0.2"/>
   </g>
   <g id="line2d_52">
    <g clip-path="url(#p30bb101e61)">
     <use xlink:href="#mb7890404f2" x="314.058154" y="115.177384" style="fill-opacity: 0; stroke: #ff4500"/>
    </g>
   </g>
   <g id="line2d_53">
    <path d="M 325.092184 231.118125 
L 325.092184 22.318125 
" clip-path="url(#p30bb101e61)" style="fill: none; stroke-dasharray: 0.2,0.33; stroke-dashoffset: 0; stroke: #000000; stroke-width: 0.2"/>
   </g>
   <g id="line2d_54">
    <g clip-path="url(#p30bb101e61)">
     <use xlink:href="#mb7890404f2" x="325.092184" y="133.813284" style="fill-opacity: 0; stroke: #ff4500"/>
    </g>
   </g>
   <g id="line2d_55">
    <path d="M 336.126215 231.118125 
L 336.126215 22.318125 
" clip-path="url(#p30bb101e61)" style="fill: none; stroke-dasharray: 0.2,0.33; stroke-dashoffset: 0; stroke: #000000; stroke-width: 0.2"/>
   </g>
   <g id="line2d_56">
    <g clip-path="url(#p30bb101e61)">
     <use xlink:href="#mb7890404f2" x="336.126215" y="105.351608" style="fill-opacity: 0; stroke: #ff4500"/>
    </g>
   </g>
   <g id="line2d_57">
    <path d="M 347.849873 231.118125 
L 347.849873 22.318125 
" clip-path="url(#p30bb101e61)" style="fill: none; stroke-dasharray: 0.2,0.33; stroke-dashoffset: 0; stroke: #000000; stroke-width: 0.2"/>
   </g>
   <g id="line2d_58">
    <g clip-path="url(#p30bb101e61)">
     <use xlink:href="#mb7890404f2" x="347.849873" y="92.07871" style="fill-opacity: 0; stroke: #ff4500"/>
    </g>
   </g>
   <g id="line2d_59">
    <path d="M 358.883903 231.118125 
L 358.883903 22.318125 
" clip-path="url(#p30bb101e61)" style="fill: none; stroke-dasharray: 0.2,0.33; stroke-dashoffset: 0; stroke: #000000; stroke-width: 0.2"/>
   </g>
   <g id="line2d_60">
    <g clip-path="url(#p30bb101e61)">
     <use xlink:href="#mb7890404f2" x="358.883903" y="114.175785" style="fill-opacity: 0; stroke: #ff4500"/>
    </g>
   </g>
   <g id="line2d_61">
    <path d="M 370.607561 231.118125 
L 370.607561 22.318125 
" clip-path="url(#p30bb101e61)" style="fill: none; stroke-dasharray: 0.2,0.33; stroke-dashoffset: 0; stroke: #000000; stroke-width: 0.2"/>
   </g>
   <g id="line2d_62">
    <g clip-path="url(#p30bb101e61)">
     <use xlink:href="#mb7890404f2" x="370.607561" y="117.499058" style="fill-opacity: 0; stroke: #ff4500"/>
    </g>
   </g>
   <g id="text_3">
    <!-- Frame-based signal -->
    <g transform="translate(154.473063 16.318125) scale(0.12 -0.12)">
     <defs>
      <path id="DejaVuSans-46" d="M 628 4666 
L 3309 4666 
L 3309 4134 
L 1259 4134 
L 1259 2759 
L 3109 2759 
L 3109 2228 
L 1259 2228 
L 1259 0 
L 628 0 
L 628 4666 
z
" transform="scale(0.015625)"/>
      <path id="DejaVuSans-72" d="M 2631 2963 
Q 2534 3019 2420 3045 
Q 2306 3072 2169 3072 
Q 1681 3072 1420 2755 
Q 1159 2438 1159 1844 
L 1159 0 
L 581 0 
L 581 3500 
L 1159 3500 
L 1159 2956 
Q 1341 3275 1631 3429 
Q 1922 3584 2338 3584 
Q 2397 3584 2469 3576 
Q 2541 3569 2628 3553 
L 2631 2963 
z
" transform="scale(0.015625)"/>
      <path id="DejaVuSans-61" d="M 2194 1759 
Q 1497 1759 1228 1600 
Q 959 1441 959 1056 
Q 959 750 1161 570 
Q 1363 391 1709 391 
Q 2188 391 2477 730 
Q 2766 1069 2766 1631 
L 2766 1759 
L 2194 1759 
z
M 3341 1997 
L 3341 0 
L 2766 0 
L 2766 531 
Q 2569 213 2275 61 
Q 1981 -91 1556 -91 
Q 1019 -91 701 211 
Q 384 513 384 1019 
Q 384 1609 779 1909 
Q 1175 2209 1959 2209 
L 2766 2209 
L 2766 2266 
Q 2766 2663 2505 2880 
Q 2244 3097 1772 3097 
Q 1472 3097 1187 3025 
Q 903 2953 641 2809 
L 641 3341 
Q 956 3463 1253 3523 
Q 1550 3584 1831 3584 
Q 2591 3584 2966 3190 
Q 3341 2797 3341 1997 
z
" transform="scale(0.015625)"/>
      <path id="DejaVuSans-62" d="M 3116 1747 
Q 3116 2381 2855 2742 
Q 2594 3103 2138 3103 
Q 1681 3103 1420 2742 
Q 1159 2381 1159 1747 
Q 1159 1113 1420 752 
Q 1681 391 2138 391 
Q 2594 391 2855 752 
Q 3116 1113 3116 1747 
z
M 1159 2969 
Q 1341 3281 1617 3432 
Q 1894 3584 2278 3584 
Q 2916 3584 3314 3078 
Q 3713 2572 3713 1747 
Q 3713 922 3314 415 
Q 2916 -91 2278 -91 
Q 1894 -91 1617 61 
Q 1341 213 1159 525 
L 1159 0 
L 581 0 
L 581 4863 
L 1159 4863 
L 1159 2969 
z
" transform="scale(0.015625)"/>
      <path id="DejaVuSans-64" d="M 2906 2969 
L 2906 4863 
L 3481 4863 
L 3481 0 
L 2906 0 
L 2906 525 
Q 2725 213 2448 61 
Q 2172 -91 1784 -91 
Q 1150 -91 751 415 
Q 353 922 353 1747 
Q 353 2572 751 3078 
Q 1150 3584 1784 3584 
Q 2172 3584 2448 3432 
Q 2725 3281 2906 2969 
z
M 947 1747 
Q 947 1113 1208 752 
Q 1469 391 1925 391 
Q 2381 391 2643 752 
Q 2906 1113 2906 1747 
Q 2906 2381 2643 2742 
Q 2381 3103 1925 3103 
Q 1469 3103 1208 2742 
Q 947 2381 947 1747 
z
" transform="scale(0.015625)"/>
     </defs>
     <use xlink:href="#DejaVuSans-46"/>
     <use xlink:href="#DejaVuSans-72" x="50.269531"/>
     <use xlink:href="#DejaVuSans-61" x="91.382812"/>
     <use xlink:href="#DejaVuSans-6d" x="152.662109"/>
     <use xlink:href="#DejaVuSans-65" x="250.074219"/>
     <use xlink:href="#DejaVuSans-2d" x="311.597656"/>
     <use xlink:href="#DejaVuSans-62" x="347.681641"/>
     <use xlink:href="#DejaVuSans-61" x="411.158203"/>
     <use xlink:href="#DejaVuSans-73" x="472.4375"/>
     <use xlink:href="#DejaVuSans-65" x="524.537109"/>
     <use xlink:href="#DejaVuSans-64" x="586.060547"/>
     <use xlink:href="#DejaVuSans-20" x="649.537109"/>
     <use xlink:href="#DejaVuSans-73" x="681.324219"/>
     <use xlink:href="#DejaVuSans-69" x="733.423828"/>
     <use xlink:href="#DejaVuSans-67" x="761.207031"/>
     <use xlink:href="#DejaVuSans-6e" x="824.683594"/>
     <use xlink:href="#DejaVuSans-61" x="888.0625"/>
     <use xlink:href="#DejaVuSans-6c" x="949.341797"/>
    </g>
   </g>
  </g>
 </g>
 <defs>
  <clipPath id="p30bb101e61">
   <rect x="20.878125" y="22.318125" width="384.444876" height="208.8"/>
  </clipPath>
 </defs>
</svg>
