<?xml version="1.0" encoding="utf-8" standalone="no"?>
<!DOCTYPE svg PUBLIC "-//W3C//DTD SVG 1.1//EN"
  "http://www.w3.org/Graphics/SVG/1.1/DTD/svg11.dtd">
<svg xmlns:xlink="http://www.w3.org/1999/xlink" width="412.523001pt" height="251.99625pt" viewBox="0 0 412.523001 251.99625" xmlns="http://www.w3.org/2000/svg" version="1.1">
 <metadata>
  <rdf:RDF xmlns:dc="http://purl.org/dc/elements/1.1/" xmlns:cc="http://creativecommons.org/ns#" xmlns:rdf="http://www.w3.org/1999/02/22-rdf-syntax-ns#">
   <cc:Work>
    <dc:type rdf:resource="http://purl.org/dc/dcmitype/StillImage"/>
    <dc:date>2023-09-06T11:32:55.271214</dc:date>
    <dc:format>image/svg+xml</dc:format>
    <dc:creator>
     <cc:Agent>
      <dc:title>Matplotlib v3.7.1, https://matplotlib.org/</dc:title>
     </cc:Agent>
    </dc:creator>
   </cc:Work>
  </rdf:RDF>
 </metadata>
 <defs>
  <style type="text/css">*{stroke-linejoin: round; stroke-linecap: butt}</style>
 </defs>
 <g id="figure_1">
  <g id="patch_1">
   <path d="M 0 251.99625 
L 412.523001 251.99625 
L 412.523001 0 
L 0 0 
L 0 251.99625 
z
" style="fill: none"/>
  </g>
  <g id="axes_1">
   <g id="patch_2">
    <path d="M 20.878125 231.118125 
L 405.323001 231.118125 
L 405.323001 22.318125 
L 20.878125 22.318125 
L 20.878125 231.118125 
z
" style="fill: none"/>
   </g>
   <g id="patch_3">
    <path d="M 387.848234 219.238759 
L 369.798091 221.627216 
L 375.213134 219.345844 
L 43.254596 219.345844 
L 43.254596 219.131675 
L 375.213134 219.131675 
L 369.798091 216.850303 
z
" style="stroke: #000000; stroke-linejoin: miter"/>
   </g>
   <g id="patch_4">
    <path d="M 43.254596 31.809034 
L 48.1563 40.604339 
L 43.254925 37.965748 
L 43.254925 219.238759 
L 43.254267 219.238759 
L 43.254267 37.965748 
L 38.352892 40.604339 
z
" style="stroke: #000000; stroke-linejoin: miter"/>
   </g>
   <g id="matplotlib.axis_1">
    <g id="text_1">
     <!-- Time (ms) -->
     <g transform="translate(187.901344 242.716563) scale(0.1 -0.1)">
      <defs>
       <path id="DejaVuSans-54" d="M -19 4666 
L 3928 4666 
L 3928 4134 
L 2272 4134 
L 2272 0 
L 1638 0 
L 1638 4134 
L -19 4134 
L -19 4666 
z
" transform="scale(0.015625)"/>
       <path id="DejaVuSans-69" d="M 603 3500 
L 1178 3500 
L 1178 0 
L 603 0 
L 603 3500 
z
M 603 4863 
L 1178 4863 
L 1178 4134 
L 603 4134 
L 603 4863 
z
" transform="scale(0.015625)"/>
       <path id="DejaVuSans-6d" d="M 3328 2828 
Q 3544 3216 3844 3400 
Q 4144 3584 4550 3584 
Q 5097 3584 5394 3201 
Q 5691 2819 5691 2113 
L 5691 0 
L 5113 0 
L 5113 2094 
Q 5113 2597 4934 2840 
Q 4756 3084 4391 3084 
Q 3944 3084 3684 2787 
Q 3425 2491 3425 1978 
L 3425 0 
L 2847 0 
L 2847 2094 
Q 2847 2600 2669 2842 
Q 2491 3084 2119 3084 
Q 1678 3084 1418 2786 
Q 1159 2488 1159 1978 
L 1159 0 
L 581 0 
L 581 3500 
L 1159 3500 
L 1159 2956 
Q 1356 3278 1631 3431 
Q 1906 3584 2284 3584 
Q 2666 3584 2933 3390 
Q 3200 3197 3328 2828 
z
" transform="scale(0.015625)"/>
       <path id="DejaVuSans-65" d="M 3597 1894 
L 3597 1613 
L 953 1613 
Q 991 1019 1311 708 
Q 1631 397 2203 397 
Q 2534 397 2845 478 
Q 3156 559 3463 722 
L 3463 178 
Q 3153 47 2828 -22 
Q 2503 -91 2169 -91 
Q 1331 -91 842 396 
Q 353 884 353 1716 
Q 353 2575 817 3079 
Q 1281 3584 2069 3584 
Q 2775 3584 3186 3129 
Q 3597 2675 3597 1894 
z
M 3022 2063 
Q 3016 2534 2758 2815 
Q 2500 3097 2075 3097 
Q 1594 3097 1305 2825 
Q 1016 2553 972 2059 
L 3022 2063 
z
" transform="scale(0.015625)"/>
       <path id="DejaVuSans-20" transform="scale(0.015625)"/>
       <path id="DejaVuSans-28" d="M 1984 4856 
Q 1566 4138 1362 3434 
Q 1159 2731 1159 2009 
Q 1159 1288 1364 580 
Q 1569 -128 1984 -844 
L 1484 -844 
Q 1016 -109 783 600 
Q 550 1309 550 2009 
Q 550 2706 781 3412 
Q 1013 4119 1484 4856 
L 1984 4856 
z
" transform="scale(0.015625)"/>
       <path id="DejaVuSans-73" d="M 2834 3397 
L 2834 2853 
Q 2591 2978 2328 3040 
Q 2066 3103 1784 3103 
Q 1356 3103 1142 2972 
Q 928 2841 928 2578 
Q 928 2378 1081 2264 
Q 1234 2150 1697 2047 
L 1894 2003 
Q 2506 1872 2764 1633 
Q 3022 1394 3022 966 
Q 3022 478 2636 193 
Q 2250 -91 1575 -91 
Q 1294 -91 989 -36 
Q 684 19 347 128 
L 347 722 
Q 666 556 975 473 
Q 1284 391 1588 391 
Q 1994 391 2212 530 
Q 2431 669 2431 922 
Q 2431 1156 2273 1281 
Q 2116 1406 1581 1522 
L 1381 1569 
Q 847 1681 609 1914 
Q 372 2147 372 2553 
Q 372 3047 722 3315 
Q 1072 3584 1716 3584 
Q 2034 3584 2315 3537 
Q 2597 3491 2834 3397 
z
" transform="scale(0.015625)"/>
       <path id="DejaVuSans-29" d="M 513 4856 
L 1013 4856 
Q 1481 4119 1714 3412 
Q 1947 2706 1947 2009 
Q 1947 1309 1714 600 
Q 1481 -109 1013 -844 
L 513 -844 
Q 928 -128 1133 580 
Q 1338 1288 1338 2009 
Q 1338 2731 1133 3434 
Q 928 4138 513 4856 
z
" transform="scale(0.015625)"/>
      </defs>
      <use xlink:href="#DejaVuSans-54"/>
      <use xlink:href="#DejaVuSans-69" x="57.958984"/>
      <use xlink:href="#DejaVuSans-6d" x="85.742188"/>
      <use xlink:href="#DejaVuSans-65" x="183.154297"/>
      <use xlink:href="#DejaVuSans-20" x="244.677734"/>
      <use xlink:href="#DejaVuSans-28" x="276.464844"/>
      <use xlink:href="#DejaVuSans-6d" x="315.478516"/>
      <use xlink:href="#DejaVuSans-73" x="412.890625"/>
      <use xlink:href="#DejaVuSans-29" x="464.990234"/>
     </g>
    </g>
   </g>
   <g id="matplotlib.axis_2">
    <g id="text_2">
     <!-- log-Intensity -->
     <g transform="translate(14.798438 157.907187) rotate(-90) scale(0.1 -0.1)">
      <defs>
       <path id="DejaVuSans-6c" d="M 603 4863 
L 1178 4863 
L 1178 0 
L 603 0 
L 603 4863 
z
" transform="scale(0.015625)"/>
       <path id="DejaVuSans-6f" d="M 1959 3097 
Q 1497 3097 1228 2736 
Q 959 2375 959 1747 
Q 959 1119 1226 758 
Q 1494 397 1959 397 
Q 2419 397 2687 759 
Q 2956 1122 2956 1747 
Q 2956 2369 2687 2733 
Q 2419 3097 1959 3097 
z
M 1959 3584 
Q 2709 3584 3137 3096 
Q 3566 2609 3566 1747 
Q 3566 888 3137 398 
Q 2709 -91 1959 -91 
Q 1206 -91 779 398 
Q 353 888 353 1747 
Q 353 2609 779 3096 
Q 1206 3584 1959 3584 
z
" transform="scale(0.015625)"/>
       <path id="DejaVuSans-67" d="M 2906 1791 
Q 2906 2416 2648 2759 
Q 2391 3103 1925 3103 
Q 1463 3103 1205 2759 
Q 947 2416 947 1791 
Q 947 1169 1205 825 
Q 1463 481 1925 481 
Q 2391 481 2648 825 
Q 2906 1169 2906 1791 
z
M 3481 434 
Q 3481 -459 3084 -895 
Q 2688 -1331 1869 -1331 
Q 1566 -1331 1297 -1286 
Q 1028 -1241 775 -1147 
L 775 -588 
Q 1028 -725 1275 -790 
Q 1522 -856 1778 -856 
Q 2344 -856 2625 -561 
Q 2906 -266 2906 331 
L 2906 616 
Q 2728 306 2450 153 
Q 2172 0 1784 0 
Q 1141 0 747 490 
Q 353 981 353 1791 
Q 353 2603 747 3093 
Q 1141 3584 1784 3584 
Q 2172 3584 2450 3431 
Q 2728 3278 2906 2969 
L 2906 3500 
L 3481 3500 
L 3481 434 
z
" transform="scale(0.015625)"/>
       <path id="DejaVuSans-2d" d="M 313 2009 
L 1997 2009 
L 1997 1497 
L 313 1497 
L 313 2009 
z
" transform="scale(0.015625)"/>
       <path id="DejaVuSans-49" d="M 628 4666 
L 1259 4666 
L 1259 0 
L 628 0 
L 628 4666 
z
" transform="scale(0.015625)"/>
       <path id="DejaVuSans-6e" d="M 3513 2113 
L 3513 0 
L 2938 0 
L 2938 2094 
Q 2938 2591 2744 2837 
Q 2550 3084 2163 3084 
Q 1697 3084 1428 2787 
Q 1159 2491 1159 1978 
L 1159 0 
L 581 0 
L 581 3500 
L 1159 3500 
L 1159 2956 
Q 1366 3272 1645 3428 
Q 1925 3584 2291 3584 
Q 2894 3584 3203 3211 
Q 3513 2838 3513 2113 
z
" transform="scale(0.015625)"/>
       <path id="DejaVuSans-74" d="M 1172 4494 
L 1172 3500 
L 2356 3500 
L 2356 3053 
L 1172 3053 
L 1172 1153 
Q 1172 725 1289 603 
Q 1406 481 1766 481 
L 2356 481 
L 2356 0 
L 1766 0 
Q 1100 0 847 248 
Q 594 497 594 1153 
L 594 3053 
L 172 3053 
L 172 3500 
L 594 3500 
L 594 4494 
L 1172 4494 
z
" transform="scale(0.015625)"/>
       <path id="DejaVuSans-79" d="M 2059 -325 
Q 1816 -950 1584 -1140 
Q 1353 -1331 966 -1331 
L 506 -1331 
L 506 -850 
L 844 -850 
Q 1081 -850 1212 -737 
Q 1344 -625 1503 -206 
L 1606 56 
L 191 3500 
L 800 3500 
L 1894 763 
L 2988 3500 
L 3597 3500 
L 2059 -325 
z
" transform="scale(0.015625)"/>
      </defs>
      <use xlink:href="#DejaVuSans-6c"/>
      <use xlink:href="#DejaVuSans-6f" x="27.783203"/>
      <use xlink:href="#DejaVuSans-67" x="88.964844"/>
      <use xlink:href="#DejaVuSans-2d" x="152.441406"/>
      <use xlink:href="#DejaVuSans-49" x="188.525391"/>
      <use xlink:href="#DejaVuSans-6e" x="218.017578"/>
      <use xlink:href="#DejaVuSans-74" x="281.396484"/>
      <use xlink:href="#DejaVuSans-65" x="320.605469"/>
      <use xlink:href="#DejaVuSans-6e" x="382.128906"/>
      <use xlink:href="#DejaVuSans-73" x="445.507812"/>
      <use xlink:href="#DejaVuSans-69" x="497.607422"/>
      <use xlink:href="#DejaVuSans-74" x="525.390625"/>
      <use xlink:href="#DejaVuSans-79" x="564.599609"/>
     </g>
    </g>
   </g>
   <g id="line2d_1">
    <path d="M 43.254596 89.800475 
L 44.569964 61.699391 
L 45.227649 55.843616 
L 45.885333 54.81597 
L 46.543017 54.297787 
L 47.858385 50.316932 
L 48.51607 49.698141 
L 49.173754 50.794646 
L 49.831438 52.477839 
L 50.489122 53.179882 
L 51.146806 52.939654 
L 51.804491 52.273362 
L 52.462175 51.9218 
L 53.119859 52.587889 
L 53.777543 52.994057 
L 54.435227 52.688298 
L 55.750596 54.596563 
L 56.40828 53.928406 
L 57.065964 52.949082 
L 57.723648 52.493818 
L 58.381333 53.322926 
L 59.039017 56.00004 
L 59.696701 59.542665 
L 60.354385 61.16983 
L 61.012069 59.625777 
L 61.669754 57.535093 
L 62.327438 57.444006 
L 62.985122 58.042793 
L 63.642806 57.640254 
L 64.30049 55.469153 
L 64.958175 54.091095 
L 65.615859 58.498113 
L 66.273543 70.870278 
L 66.931227 77.323902 
L 67.588911 64.743008 
L 68.246596 49.07561 
L 68.90428 42.887441 
L 69.561964 42.105241 
L 70.219648 42.893942 
L 70.877332 44.235546 
L 72.192701 45.844989 
L 72.850385 46.839982 
L 73.508069 47.243993 
L 74.165753 46.610961 
L 74.823438 46.198444 
L 75.481122 47.192929 
L 76.138806 47.56228 
L 76.79649 46.17596 
L 77.454174 45.180417 
L 78.111859 45.352387 
L 78.769543 47.716148 
L 79.427227 54.83374 
L 80.742595 79.402014 
L 81.40028 88.789901 
L 82.057964 94.164873 
L 82.715648 95.480545 
L 83.373332 93.94349 
L 84.031016 91.379635 
L 84.688701 89.815905 
L 85.346385 91.272796 
L 86.004069 95.09692 
L 87.977122 109.831818 
L 88.634806 111.70273 
L 89.29249 108.34902 
L 89.950174 102.774419 
L 90.607858 99.887767 
L 91.265543 95.074852 
L 91.923227 86.550833 
L 92.580911 82.005614 
L 93.238595 84.354107 
L 93.896279 89.570345 
L 94.553964 99.691103 
L 95.211648 112.304921 
L 95.869332 119.991957 
L 96.527016 122.113361 
L 97.1847 121.651806 
L 97.842385 120.57837 
L 98.500069 119.741979 
L 99.157753 119.260535 
L 99.815437 119.700423 
L 100.473122 120.820523 
L 101.78849 120.713522 
L 103.103858 121.048475 
L 103.761543 120.809704 
L 104.419227 120.796062 
L 106.392279 121.362413 
L 107.049964 121.674287 
L 107.707648 121.696305 
L 108.365332 121.508631 
L 109.023016 121.475728 
L 110.338385 123.004643 
L 110.996069 121.22523 
L 111.653753 114.193415 
L 112.969121 87.548567 
L 113.626806 78.791933 
L 114.28449 74.139389 
L 114.942174 71.980531 
L 115.599858 71.733632 
L 116.257542 73.331305 
L 116.915227 76.168538 
L 117.572911 78.166154 
L 118.230595 78.552063 
L 118.888279 77.494794 
L 120.203648 74.297707 
L 121.519016 69.069209 
L 122.1767 67.935809 
L 122.834384 68.600144 
L 123.492069 70.424031 
L 124.149753 71.746826 
L 124.807437 70.147859 
L 125.465121 64.770616 
L 126.122805 57.400326 
L 126.78049 52.746116 
L 127.438174 52.10783 
L 128.095858 54.805356 
L 128.753542 58.701979 
L 129.411226 60.857761 
L 130.068911 61.587113 
L 131.384279 64.006093 
L 132.041963 64.662166 
L 132.699647 64.927017 
L 133.357332 65.593262 
L 134.015016 66.740672 
L 134.6727 67.200495 
L 135.330384 65.266822 
L 137.303437 53.342393 
L 137.961121 49.956927 
L 138.618805 49.357982 
L 139.276489 52.144901 
L 139.934174 55.623995 
L 140.591858 58.223749 
L 141.249542 60.226434 
L 142.56491 65.32064 
L 143.222595 66.816098 
L 143.880279 67.888209 
L 144.537963 67.608554 
L 145.195647 63.887112 
L 146.511016 52.710267 
L 147.1687 51.761595 
L 147.826384 54.503617 
L 149.141752 64.347053 
L 149.799437 66.494887 
L 150.457121 64.971249 
L 151.114805 62.842122 
L 151.772489 63.720418 
L 152.430173 66.844406 
L 153.745542 74.123022 
L 154.403226 76.130765 
L 155.06091 75.624446 
L 155.718594 72.033976 
L 157.033963 60.456774 
L 157.691647 56.477284 
L 158.349331 54.241685 
L 159.007015 53.582822 
L 159.6647 53.762051 
L 160.980068 53.018986 
L 161.637752 52.969336 
L 162.953121 51.315039 
L 163.610805 51.946116 
L 165.583858 59.127726 
L 166.241542 60.306679 
L 166.899226 60.332107 
L 167.55691 61.443245 
L 169.529963 69.07553 
L 170.187647 69.810725 
L 170.845331 69.805064 
L 171.503015 70.467343 
L 173.476068 74.157463 
L 174.133752 74.752159 
L 174.791436 74.782328 
L 175.449121 74.600128 
L 176.764489 74.446705 
L 177.422173 73.839722 
L 178.079857 72.35932 
L 178.737542 69.864706 
L 179.395226 66.669296 
L 180.05291 64.629311 
L 180.710594 64.387993 
L 181.368278 64.818038 
L 182.025963 64.544984 
L 182.683647 63.928192 
L 183.341331 64.918247 
L 183.999015 67.135846 
L 184.656699 68.589591 
L 185.314384 68.935403 
L 185.972068 69.765842 
L 186.629752 70.222222 
L 187.287436 69.299186 
L 187.94512 67.911409 
L 188.602805 67.218964 
L 189.918173 67.789255 
L 191.233541 68.152207 
L 191.891226 68.540247 
L 192.54891 70.128462 
L 193.864278 77.472397 
L 194.521962 80.139562 
L 195.179647 81.652827 
L 195.837331 81.795462 
L 196.495015 80.784326 
L 197.152699 79.463602 
L 197.810383 77.440477 
L 199.125752 72.202892 
L 201.098804 66.962351 
L 201.756489 66.187669 
L 202.414173 65.65091 
L 203.729541 62.783584 
L 205.04491 59.051342 
L 205.702594 57.838087 
L 206.360278 56.308759 
L 207.675646 51.620051 
L 208.333331 50.68654 
L 208.991015 51.491929 
L 209.648699 51.844902 
L 210.306383 51.387347 
L 211.621752 51.511401 
L 212.279436 52.036131 
L 212.93712 52.327433 
L 213.594804 52.773475 
L 214.910173 54.304911 
L 215.567857 54.809761 
L 216.225541 54.432237 
L 217.540909 51.392035 
L 218.198594 52.753822 
L 219.513962 58.211976 
L 220.171646 59.585748 
L 220.829331 62.157352 
L 221.487015 68.269961 
L 222.144699 75.744875 
L 222.802383 80.575635 
L 223.460067 83.622642 
L 224.117752 87.660205 
L 224.775436 90.418216 
L 225.43312 89.120444 
L 226.090804 84.353376 
L 226.748488 77.133051 
L 227.406173 72.349852 
L 228.063857 72.001458 
L 228.721541 73.985874 
L 230.036909 80.80953 
L 230.694594 82.391708 
L 231.352278 81.58431 
L 232.667646 77.621752 
L 233.32533 75.414437 
L 233.983015 73.937616 
L 234.640699 72.921221 
L 235.298383 72.853091 
L 236.613751 74.883249 
L 237.271436 76.37195 
L 237.92912 76.536256 
L 238.586804 75.088203 
L 239.244488 74.420683 
L 239.902172 74.372423 
L 240.559857 74.916288 
L 241.217541 76.622683 
L 241.875225 80.238209 
L 242.532909 84.823267 
L 243.190593 88.570954 
L 243.848278 89.259798 
L 245.163646 85.040187 
L 245.82133 83.59849 
L 246.479014 83.600835 
L 247.794383 86.812999 
L 248.452067 86.913649 
L 249.109751 84.334011 
L 249.767435 81.01066 
L 250.42512 78.523763 
L 251.740488 75.448501 
L 252.398172 74.522442 
L 253.055856 76.269797 
L 253.713541 82.020792 
L 254.371225 89.788183 
L 255.028909 94.139253 
L 255.686593 92.641766 
L 257.001962 83.392812 
L 257.659646 80.219546 
L 258.31733 78.922848 
L 258.975014 79.259117 
L 259.632698 79.754971 
L 260.290383 79.826093 
L 260.948067 79.366102 
L 261.605751 78.648574 
L 262.263435 77.619345 
L 263.578804 75.117378 
L 264.236488 74.473168 
L 265.551856 74.474863 
L 266.867225 74.768656 
L 267.524909 75.838964 
L 268.182593 77.702203 
L 268.840277 78.517875 
L 269.497961 78.579994 
L 270.81333 77.764148 
L 271.471014 77.946072 
L 272.786382 79.600418 
L 273.444067 79.03374 
L 274.759435 76.695207 
L 275.417119 75.100099 
L 277.390172 69.207415 
L 278.047856 68.883709 
L 280.020909 71.794158 
L 280.678593 72.523711 
L 282.651646 77.109906 
L 283.30933 77.236586 
L 284.624698 75.362254 
L 285.282382 75.34701 
L 287.255435 77.026228 
L 287.913119 77.101807 
L 288.570803 77.421944 
L 289.228488 78.003034 
L 289.886172 78.876887 
L 290.543856 80.615594 
L 291.859224 85.154099 
L 292.516909 86.482846 
L 293.174593 87.154779 
L 293.832277 87.464152 
L 294.489961 87.403137 
L 295.147645 87.008859 
L 295.80533 85.933388 
L 296.463014 80.897415 
L 297.778382 57.406109 
L 298.436066 51.281034 
L 299.751435 45.92348 
L 300.409119 42.421597 
L 301.066803 41.571519 
L 301.724487 43.963836 
L 302.382172 48.492262 
L 303.039856 50.275641 
L 303.69754 49.41394 
L 304.355224 49.167962 
L 305.012908 48.740178 
L 306.985961 43.613248 
L 307.643645 41.407072 
L 308.301329 41.579611 
L 309.616698 46.984941 
L 310.274382 48.262936 
L 310.932066 48.156004 
L 311.58975 47.630834 
L 312.247435 45.296792 
L 312.905119 42.000868 
L 313.562803 40.630112 
L 314.220487 40.676318 
L 314.878171 40.045865 
L 315.535856 41.381376 
L 316.19354 44.674124 
L 316.851224 45.628809 
L 317.508908 43.628073 
L 318.166592 40.610505 
L 318.824277 38.692595 
L 319.481961 37.947473 
L 320.139645 38.70407 
L 321.455013 42.618867 
L 322.112698 44.64257 
L 322.770382 45.742463 
L 323.428066 45.018108 
L 324.08575 43.170147 
L 324.743434 42.315013 
L 325.401119 42.626288 
L 326.058803 42.803137 
L 326.716487 42.337953 
L 327.374171 41.302345 
L 328.031855 39.91112 
L 328.68954 38.829564 
L 329.347224 39.328878 
L 330.004908 41.189708 
L 330.662592 42.201911 
L 331.320276 42.543977 
L 331.977961 43.073841 
L 332.635645 41.671885 
L 333.293329 39.486147 
L 333.951013 39.133941 
L 334.608697 40.643861 
L 335.924066 46.997024 
L 336.58175 49.319243 
L 337.239434 50.278876 
L 337.897118 49.52863 
L 338.554803 45.984194 
L 339.212487 40.803378 
L 339.870171 38.564596 
L 341.18554 41.194221 
L 341.843224 40.154163 
L 342.500908 39.543839 
L 343.158592 39.711475 
L 343.816276 39.57293 
L 344.473961 40.069732 
L 345.131645 43.233452 
L 345.789329 45.105349 
L 346.447013 44.983705 
L 347.104697 44.43955 
L 347.762382 43.544227 
L 348.420066 43.34993 
L 349.735434 47.544504 
L 350.393118 47.940411 
L 351.050803 45.182293 
L 351.708487 41.024035 
L 352.366171 38.262355 
L 353.023855 37.253269 
L 353.681539 36.818422 
L 354.339224 37.265677 
L 354.996908 39.146686 
L 355.654592 42.304309 
L 356.312276 44.883703 
L 356.96996 45.549029 
L 358.285329 44.423169 
L 358.943013 45.426007 
L 359.600697 45.727181 
L 360.258381 44.474008 
L 360.916066 44.277934 
L 361.57375 45.046423 
L 362.231434 44.613286 
L 362.889118 45.700142 
L 363.546802 48.305875 
L 364.204487 49.842558 
L 364.862171 49.508822 
L 365.519855 48.231943 
L 366.177539 45.271349 
L 366.835223 40.034209 
L 367.492908 36.151682 
L 368.150592 36.938054 
L 368.808276 39.16378 
L 369.46596 40.878824 
L 370.123644 44.292885 
L 370.781329 48.738437 
L 371.439013 48.744681 
L 371.439013 48.744681 
" clip-path="url(#p41dc718750)" style="fill: none; stroke: #1f77b4; stroke-width: 1.5; stroke-linecap: square"/>
   </g>
   <g id="line2d_2">
    <path d="M 43.254596 219.238759 
L 43.254596 31.809034 
" clip-path="url(#p41dc718750)" style="fill: none; stroke-dasharray: 0.74,0.32; stroke-dashoffset: 0; stroke: #000000; stroke-width: 0.2"/>
   </g>
   <g id="line2d_3">
    <defs>
     <path id="mf8339ca6ae" d="M 0 3 
C 0.795609 3 1.55874 2.683901 2.12132 2.12132 
C 2.683901 1.55874 3 0.795609 3 0 
C 3 -0.795609 2.683901 -1.55874 2.12132 -2.12132 
C 1.55874 -2.683901 0.795609 -3 0 -3 
C -0.795609 -3 -1.55874 -2.683901 -2.12132 -2.12132 
C -2.683901 -1.55874 -3 -0.795609 -3 0 
C -3 0.795609 -2.683901 1.55874 -2.12132 2.12132 
C -1.55874 2.683901 -0.795609 3 0 3 
z
" style="stroke: #ff0000"/>
    </defs>
    <g clip-path="url(#p41dc718750)">
     <use xlink:href="#mf8339ca6ae" x="43.254596" y="89.800475" style="fill: #ff0000; stroke: #ff0000"/>
    </g>
   </g>
   <g id="line2d_4">
    <path d="M 54.435227 219.238759 
L 54.435227 31.809034 
" clip-path="url(#p41dc718750)" style="fill: none; stroke-dasharray: 0.74,0.32; stroke-dashoffset: 0; stroke: #000000; stroke-width: 0.2"/>
   </g>
   <g id="line2d_5">
    <g clip-path="url(#p41dc718750)">
     <use xlink:href="#mf8339ca6ae" x="54.435227" y="52.688298" style="fill: #ff0000; stroke: #ff0000"/>
    </g>
   </g>
   <g id="line2d_6">
    <path d="M 65.615859 219.238759 
L 65.615859 31.809034 
" clip-path="url(#p41dc718750)" style="fill: none; stroke-dasharray: 0.74,0.32; stroke-dashoffset: 0; stroke: #000000; stroke-width: 0.2"/>
   </g>
   <g id="line2d_7">
    <g clip-path="url(#p41dc718750)">
     <use xlink:href="#mf8339ca6ae" x="65.615859" y="58.498113" style="fill: #ff0000; stroke: #ff0000"/>
    </g>
   </g>
   <g id="line2d_8">
    <path d="M 76.79649 219.238759 
L 76.79649 31.809034 
" clip-path="url(#p41dc718750)" style="fill: none; stroke-dasharray: 0.74,0.32; stroke-dashoffset: 0; stroke: #000000; stroke-width: 0.2"/>
   </g>
   <g id="line2d_9">
    <g clip-path="url(#p41dc718750)">
     <use xlink:href="#mf8339ca6ae" x="76.79649" y="46.17596" style="fill: #ff0000; stroke: #ff0000"/>
    </g>
   </g>
   <g id="line2d_10">
    <path d="M 87.977122 219.238759 
L 87.977122 31.809034 
" clip-path="url(#p41dc718750)" style="fill: none; stroke-dasharray: 0.74,0.32; stroke-dashoffset: 0; stroke: #000000; stroke-width: 0.2"/>
   </g>
   <g id="line2d_11">
    <g clip-path="url(#p41dc718750)">
     <use xlink:href="#mf8339ca6ae" x="87.977122" y="109.831818" style="fill: #ff0000; stroke: #ff0000"/>
    </g>
   </g>
   <g id="line2d_12">
    <path d="M 99.157753 219.238759 
L 99.157753 31.809034 
" clip-path="url(#p41dc718750)" style="fill: none; stroke-dasharray: 0.74,0.32; stroke-dashoffset: 0; stroke: #000000; stroke-width: 0.2"/>
   </g>
   <g id="line2d_13">
    <g clip-path="url(#p41dc718750)">
     <use xlink:href="#mf8339ca6ae" x="99.157753" y="119.260535" style="fill: #ff0000; stroke: #ff0000"/>
    </g>
   </g>
   <g id="line2d_14">
    <path d="M 110.338385 219.238759 
L 110.338385 31.809034 
" clip-path="url(#p41dc718750)" style="fill: none; stroke-dasharray: 0.74,0.32; stroke-dashoffset: 0; stroke: #000000; stroke-width: 0.2"/>
   </g>
   <g id="line2d_15">
    <g clip-path="url(#p41dc718750)">
     <use xlink:href="#mf8339ca6ae" x="110.338385" y="123.004643" style="fill: #ff0000; stroke: #ff0000"/>
    </g>
   </g>
   <g id="line2d_16">
    <path d="M 121.519016 219.238759 
L 121.519016 31.809034 
" clip-path="url(#p41dc718750)" style="fill: none; stroke-dasharray: 0.74,0.32; stroke-dashoffset: 0; stroke: #000000; stroke-width: 0.2"/>
   </g>
   <g id="line2d_17">
    <g clip-path="url(#p41dc718750)">
     <use xlink:href="#mf8339ca6ae" x="121.519016" y="69.069209" style="fill: #ff0000; stroke: #ff0000"/>
    </g>
   </g>
   <g id="line2d_18">
    <path d="M 133.357332 219.238759 
L 133.357332 31.809034 
" clip-path="url(#p41dc718750)" style="fill: none; stroke-dasharray: 0.74,0.32; stroke-dashoffset: 0; stroke: #000000; stroke-width: 0.2"/>
   </g>
   <g id="line2d_19">
    <g clip-path="url(#p41dc718750)">
     <use xlink:href="#mf8339ca6ae" x="133.357332" y="65.593262" style="fill: #ff0000; stroke: #ff0000"/>
    </g>
   </g>
   <g id="line2d_20">
    <path d="M 144.537963 219.238759 
L 144.537963 31.809034 
" clip-path="url(#p41dc718750)" style="fill: none; stroke-dasharray: 0.74,0.32; stroke-dashoffset: 0; stroke: #000000; stroke-width: 0.2"/>
   </g>
   <g id="line2d_21">
    <g clip-path="url(#p41dc718750)">
     <use xlink:href="#mf8339ca6ae" x="144.537963" y="67.608554" style="fill: #ff0000; stroke: #ff0000"/>
    </g>
   </g>
   <g id="line2d_22">
    <path d="M 155.718594 219.238759 
L 155.718594 31.809034 
" clip-path="url(#p41dc718750)" style="fill: none; stroke-dasharray: 0.74,0.32; stroke-dashoffset: 0; stroke: #000000; stroke-width: 0.2"/>
   </g>
   <g id="line2d_23">
    <g clip-path="url(#p41dc718750)">
     <use xlink:href="#mf8339ca6ae" x="155.718594" y="72.033976" style="fill: #ff0000; stroke: #ff0000"/>
    </g>
   </g>
   <g id="line2d_24">
    <path d="M 166.899226 219.238759 
L 166.899226 31.809034 
" clip-path="url(#p41dc718750)" style="fill: none; stroke-dasharray: 0.74,0.32; stroke-dashoffset: 0; stroke: #000000; stroke-width: 0.2"/>
   </g>
   <g id="line2d_25">
    <g clip-path="url(#p41dc718750)">
     <use xlink:href="#mf8339ca6ae" x="166.899226" y="60.332107" style="fill: #ff0000; stroke: #ff0000"/>
    </g>
   </g>
   <g id="line2d_26">
    <path d="M 178.079857 219.238759 
L 178.079857 31.809034 
" clip-path="url(#p41dc718750)" style="fill: none; stroke-dasharray: 0.74,0.32; stroke-dashoffset: 0; stroke: #000000; stroke-width: 0.2"/>
   </g>
   <g id="line2d_27">
    <g clip-path="url(#p41dc718750)">
     <use xlink:href="#mf8339ca6ae" x="178.079857" y="72.35932" style="fill: #ff0000; stroke: #ff0000"/>
    </g>
   </g>
   <g id="line2d_28">
    <path d="M 189.260489 219.238759 
L 189.260489 31.809034 
" clip-path="url(#p41dc718750)" style="fill: none; stroke-dasharray: 0.74,0.32; stroke-dashoffset: 0; stroke: #000000; stroke-width: 0.2"/>
   </g>
   <g id="line2d_29">
    <g clip-path="url(#p41dc718750)">
     <use xlink:href="#mf8339ca6ae" x="189.260489" y="67.531952" style="fill: #ff0000; stroke: #ff0000"/>
    </g>
   </g>
   <g id="line2d_30">
    <path d="M 200.44112 219.238759 
L 200.44112 31.809034 
" clip-path="url(#p41dc718750)" style="fill: none; stroke-dasharray: 0.74,0.32; stroke-dashoffset: 0; stroke: #000000; stroke-width: 0.2"/>
   </g>
   <g id="line2d_31">
    <g clip-path="url(#p41dc718750)">
     <use xlink:href="#mf8339ca6ae" x="200.44112" y="68.744466" style="fill: #ff0000; stroke: #ff0000"/>
    </g>
   </g>
   <g id="line2d_32">
    <path d="M 212.279436 219.238759 
L 212.279436 31.809034 
" clip-path="url(#p41dc718750)" style="fill: none; stroke-dasharray: 0.74,0.32; stroke-dashoffset: 0; stroke: #000000; stroke-width: 0.2"/>
   </g>
   <g id="line2d_33">
    <g clip-path="url(#p41dc718750)">
     <use xlink:href="#mf8339ca6ae" x="212.279436" y="52.036131" style="fill: #ff0000; stroke: #ff0000"/>
    </g>
   </g>
   <g id="line2d_34">
    <path d="M 223.460067 219.238759 
L 223.460067 31.809034 
" clip-path="url(#p41dc718750)" style="fill: none; stroke-dasharray: 0.74,0.32; stroke-dashoffset: 0; stroke: #000000; stroke-width: 0.2"/>
   </g>
   <g id="line2d_35">
    <g clip-path="url(#p41dc718750)">
     <use xlink:href="#mf8339ca6ae" x="223.460067" y="83.622642" style="fill: #ff0000; stroke: #ff0000"/>
    </g>
   </g>
   <g id="line2d_36">
    <path d="M 234.640699 219.238759 
L 234.640699 31.809034 
" clip-path="url(#p41dc718750)" style="fill: none; stroke-dasharray: 0.74,0.32; stroke-dashoffset: 0; stroke: #000000; stroke-width: 0.2"/>
   </g>
   <g id="line2d_37">
    <g clip-path="url(#p41dc718750)">
     <use xlink:href="#mf8339ca6ae" x="234.640699" y="72.921221" style="fill: #ff0000; stroke: #ff0000"/>
    </g>
   </g>
   <g id="line2d_38">
    <path d="M 245.82133 219.238759 
L 245.82133 31.809034 
" clip-path="url(#p41dc718750)" style="fill: none; stroke-dasharray: 0.74,0.32; stroke-dashoffset: 0; stroke: #000000; stroke-width: 0.2"/>
   </g>
   <g id="line2d_39">
    <g clip-path="url(#p41dc718750)">
     <use xlink:href="#mf8339ca6ae" x="245.82133" y="83.59849" style="fill: #ff0000; stroke: #ff0000"/>
    </g>
   </g>
   <g id="line2d_40">
    <path d="M 257.001962 219.238759 
L 257.001962 31.809034 
" clip-path="url(#p41dc718750)" style="fill: none; stroke-dasharray: 0.74,0.32; stroke-dashoffset: 0; stroke: #000000; stroke-width: 0.2"/>
   </g>
   <g id="line2d_41">
    <g clip-path="url(#p41dc718750)">
     <use xlink:href="#mf8339ca6ae" x="257.001962" y="83.392812" style="fill: #ff0000; stroke: #ff0000"/>
    </g>
   </g>
   <g id="line2d_42">
    <path d="M 268.182593 219.238759 
L 268.182593 31.809034 
" clip-path="url(#p41dc718750)" style="fill: none; stroke-dasharray: 0.74,0.32; stroke-dashoffset: 0; stroke: #000000; stroke-width: 0.2"/>
   </g>
   <g id="line2d_43">
    <g clip-path="url(#p41dc718750)">
     <use xlink:href="#mf8339ca6ae" x="268.182593" y="77.702203" style="fill: #ff0000; stroke: #ff0000"/>
    </g>
   </g>
   <g id="line2d_44">
    <path d="M 279.363224 219.238759 
L 279.363224 31.809034 
" clip-path="url(#p41dc718750)" style="fill: none; stroke-dasharray: 0.74,0.32; stroke-dashoffset: 0; stroke: #000000; stroke-width: 0.2"/>
   </g>
   <g id="line2d_45">
    <g clip-path="url(#p41dc718750)">
     <use xlink:href="#mf8339ca6ae" x="279.363224" y="71.08392" style="fill: #ff0000; stroke: #ff0000"/>
    </g>
   </g>
   <g id="line2d_46">
    <path d="M 291.20154 219.238759 
L 291.20154 31.809034 
" clip-path="url(#p41dc718750)" style="fill: none; stroke-dasharray: 0.74,0.32; stroke-dashoffset: 0; stroke: #000000; stroke-width: 0.2"/>
   </g>
   <g id="line2d_47">
    <g clip-path="url(#p41dc718750)">
     <use xlink:href="#mf8339ca6ae" x="291.20154" y="83.032555" style="fill: #ff0000; stroke: #ff0000"/>
    </g>
   </g>
   <g id="line2d_48">
    <path d="M 302.382172 219.238759 
L 302.382172 31.809034 
" clip-path="url(#p41dc718750)" style="fill: none; stroke-dasharray: 0.74,0.32; stroke-dashoffset: 0; stroke: #000000; stroke-width: 0.2"/>
   </g>
   <g id="line2d_49">
    <g clip-path="url(#p41dc718750)">
     <use xlink:href="#mf8339ca6ae" x="302.382172" y="48.492262" style="fill: #ff0000; stroke: #ff0000"/>
    </g>
   </g>
   <g id="line2d_50">
    <path d="M 313.562803 219.238759 
L 313.562803 31.809034 
" clip-path="url(#p41dc718750)" style="fill: none; stroke-dasharray: 0.74,0.32; stroke-dashoffset: 0; stroke: #000000; stroke-width: 0.2"/>
   </g>
   <g id="line2d_51">
    <g clip-path="url(#p41dc718750)">
     <use xlink:href="#mf8339ca6ae" x="313.562803" y="40.630112" style="fill: #ff0000; stroke: #ff0000"/>
    </g>
   </g>
   <g id="line2d_52">
    <path d="M 324.743434 219.238759 
L 324.743434 31.809034 
" clip-path="url(#p41dc718750)" style="fill: none; stroke-dasharray: 0.74,0.32; stroke-dashoffset: 0; stroke: #000000; stroke-width: 0.2"/>
   </g>
   <g id="line2d_53">
    <g clip-path="url(#p41dc718750)">
     <use xlink:href="#mf8339ca6ae" x="324.743434" y="42.315013" style="fill: #ff0000; stroke: #ff0000"/>
    </g>
   </g>
   <g id="line2d_54">
    <path d="M 335.924066 219.238759 
L 335.924066 31.809034 
" clip-path="url(#p41dc718750)" style="fill: none; stroke-dasharray: 0.74,0.32; stroke-dashoffset: 0; stroke: #000000; stroke-width: 0.2"/>
   </g>
   <g id="line2d_55">
    <g clip-path="url(#p41dc718750)">
     <use xlink:href="#mf8339ca6ae" x="335.924066" y="46.997024" style="fill: #ff0000; stroke: #ff0000"/>
    </g>
   </g>
   <g id="line2d_56">
    <path d="M 347.104697 219.238759 
L 347.104697 31.809034 
" clip-path="url(#p41dc718750)" style="fill: none; stroke-dasharray: 0.74,0.32; stroke-dashoffset: 0; stroke: #000000; stroke-width: 0.2"/>
   </g>
   <g id="line2d_57">
    <g clip-path="url(#p41dc718750)">
     <use xlink:href="#mf8339ca6ae" x="347.104697" y="44.43955" style="fill: #ff0000; stroke: #ff0000"/>
    </g>
   </g>
   <g id="line2d_58">
    <path d="M 358.285329 219.238759 
L 358.285329 31.809034 
" clip-path="url(#p41dc718750)" style="fill: none; stroke-dasharray: 0.74,0.32; stroke-dashoffset: 0; stroke: #000000; stroke-width: 0.2"/>
   </g>
   <g id="line2d_59">
    <g clip-path="url(#p41dc718750)">
     <use xlink:href="#mf8339ca6ae" x="358.285329" y="44.423169" style="fill: #ff0000; stroke: #ff0000"/>
    </g>
   </g>
   <g id="line2d_60">
    <path d="M 370.123644 219.238759 
L 370.123644 31.809034 
" clip-path="url(#p41dc718750)" style="fill: none; stroke-dasharray: 0.74,0.32; stroke-dashoffset: 0; stroke: #000000; stroke-width: 0.2"/>
   </g>
   <g id="line2d_61">
    <g clip-path="url(#p41dc718750)">
     <use xlink:href="#mf8339ca6ae" x="370.123644" y="44.292885" style="fill: #ff0000; stroke: #ff0000"/>
    </g>
   </g>
   <g id="text_3">
    <!-- Frame-based signal -->
    <g transform="translate(154.473063 16.318125) scale(0.12 -0.12)">
     <defs>
      <path id="DejaVuSans-46" d="M 628 4666 
L 3309 4666 
L 3309 4134 
L 1259 4134 
L 1259 2759 
L 3109 2759 
L 3109 2228 
L 1259 2228 
L 1259 0 
L 628 0 
L 628 4666 
z
" transform="scale(0.015625)"/>
      <path id="DejaVuSans-72" d="M 2631 2963 
Q 2534 3019 2420 3045 
Q 2306 3072 2169 3072 
Q 1681 3072 1420 2755 
Q 1159 2438 1159 1844 
L 1159 0 
L 581 0 
L 581 3500 
L 1159 3500 
L 1159 2956 
Q 1341 3275 1631 3429 
Q 1922 3584 2338 3584 
Q 2397 3584 2469 3576 
Q 2541 3569 2628 3553 
L 2631 2963 
z
" transform="scale(0.015625)"/>
      <path id="DejaVuSans-61" d="M 2194 1759 
Q 1497 1759 1228 1600 
Q 959 1441 959 1056 
Q 959 750 1161 570 
Q 1363 391 1709 391 
Q 2188 391 2477 730 
Q 2766 1069 2766 1631 
L 2766 1759 
L 2194 1759 
z
M 3341 1997 
L 3341 0 
L 2766 0 
L 2766 531 
Q 2569 213 2275 61 
Q 1981 -91 1556 -91 
Q 1019 -91 701 211 
Q 384 513 384 1019 
Q 384 1609 779 1909 
Q 1175 2209 1959 2209 
L 2766 2209 
L 2766 2266 
Q 2766 2663 2505 2880 
Q 2244 3097 1772 3097 
Q 1472 3097 1187 3025 
Q 903 2953 641 2809 
L 641 3341 
Q 956 3463 1253 3523 
Q 1550 3584 1831 3584 
Q 2591 3584 2966 3190 
Q 3341 2797 3341 1997 
z
" transform="scale(0.015625)"/>
      <path id="DejaVuSans-62" d="M 3116 1747 
Q 3116 2381 2855 2742 
Q 2594 3103 2138 3103 
Q 1681 3103 1420 2742 
Q 1159 2381 1159 1747 
Q 1159 1113 1420 752 
Q 1681 391 2138 391 
Q 2594 391 2855 752 
Q 3116 1113 3116 1747 
z
M 1159 2969 
Q 1341 3281 1617 3432 
Q 1894 3584 2278 3584 
Q 2916 3584 3314 3078 
Q 3713 2572 3713 1747 
Q 3713 922 3314 415 
Q 2916 -91 2278 -91 
Q 1894 -91 1617 61 
Q 1341 213 1159 525 
L 1159 0 
L 581 0 
L 581 4863 
L 1159 4863 
L 1159 2969 
z
" transform="scale(0.015625)"/>
      <path id="DejaVuSans-64" d="M 2906 2969 
L 2906 4863 
L 3481 4863 
L 3481 0 
L 2906 0 
L 2906 525 
Q 2725 213 2448 61 
Q 2172 -91 1784 -91 
Q 1150 -91 751 415 
Q 353 922 353 1747 
Q 353 2572 751 3078 
Q 1150 3584 1784 3584 
Q 2172 3584 2448 3432 
Q 2725 3281 2906 2969 
z
M 947 1747 
Q 947 1113 1208 752 
Q 1469 391 1925 391 
Q 2381 391 2643 752 
Q 2906 1113 2906 1747 
Q 2906 2381 2643 2742 
Q 2381 3103 1925 3103 
Q 1469 3103 1208 2742 
Q 947 2381 947 1747 
z
" transform="scale(0.015625)"/>
     </defs>
     <use xlink:href="#DejaVuSans-46"/>
     <use xlink:href="#DejaVuSans-72" x="50.269531"/>
     <use xlink:href="#DejaVuSans-61" x="91.382812"/>
     <use xlink:href="#DejaVuSans-6d" x="152.662109"/>
     <use xlink:href="#DejaVuSans-65" x="250.074219"/>
     <use xlink:href="#DejaVuSans-2d" x="311.597656"/>
     <use xlink:href="#DejaVuSans-62" x="347.681641"/>
     <use xlink:href="#DejaVuSans-61" x="411.158203"/>
     <use xlink:href="#DejaVuSans-73" x="472.4375"/>
     <use xlink:href="#DejaVuSans-65" x="524.537109"/>
     <use xlink:href="#DejaVuSans-64" x="586.060547"/>
     <use xlink:href="#DejaVuSans-20" x="649.537109"/>
     <use xlink:href="#DejaVuSans-73" x="681.324219"/>
     <use xlink:href="#DejaVuSans-69" x="733.423828"/>
     <use xlink:href="#DejaVuSans-67" x="761.207031"/>
     <use xlink:href="#DejaVuSans-6e" x="824.683594"/>
     <use xlink:href="#DejaVuSans-61" x="888.0625"/>
     <use xlink:href="#DejaVuSans-6c" x="949.341797"/>
    </g>
   </g>
  </g>
 </g>
 <defs>
  <clipPath id="p41dc718750">
   <rect x="20.878125" y="22.318125" width="384.444876" height="208.8"/>
  </clipPath>
 </defs>
</svg>
