<?xml version="1.0" encoding="utf-8" standalone="no"?>
<!DOCTYPE svg PUBLIC "-//W3C//DTD SVG 1.1//EN"
  "http://www.w3.org/Graphics/SVG/1.1/DTD/svg11.dtd">
<svg xmlns:xlink="http://www.w3.org/1999/xlink" width="412.523001pt" height="251.99625pt" viewBox="0 0 412.523001 251.99625" xmlns="http://www.w3.org/2000/svg" version="1.1">
 <metadata>
  <rdf:RDF xmlns:dc="http://purl.org/dc/elements/1.1/" xmlns:cc="http://creativecommons.org/ns#" xmlns:rdf="http://www.w3.org/1999/02/22-rdf-syntax-ns#">
   <cc:Work>
    <dc:type rdf:resource="http://purl.org/dc/dcmitype/StillImage"/>
    <dc:date>2023-09-07T00:21:41.830111</dc:date>
    <dc:format>image/svg+xml</dc:format>
    <dc:creator>
     <cc:Agent>
      <dc:title>Matplotlib v3.7.2, https://matplotlib.org/</dc:title>
     </cc:Agent>
    </dc:creator>
   </cc:Work>
  </rdf:RDF>
 </metadata>
 <defs>
  <style type="text/css">*{stroke-linejoin: round; stroke-linecap: butt}</style>
 </defs>
 <g id="figure_1">
  <g id="patch_1">
   <path d="M 0 251.99625 
L 412.523001 251.99625 
L 412.523001 0 
L 0 0 
L 0 251.99625 
z
" style="fill: none"/>
  </g>
  <g id="axes_1">
   <g id="patch_2">
    <path d="M 20.878125 231.118125 
L 405.323001 231.118125 
L 405.323001 22.318125 
L 20.878125 22.318125 
L 20.878125 231.118125 
z
" style="fill: none"/>
   </g>
   <g id="patch_3">
    <path d="M 387.848234 231.118125 
L 370.607561 236.338125 
L 375.779763 231.240624 
L 43.034776 231.240624 
L 43.034776 230.995626 
L 375.779763 230.995626 
L 370.607561 225.898125 
z
" style="stroke: #000000; stroke-linejoin: miter"/>
   </g>
   <g id="patch_4">
    <path d="M 43.034776 22.318125 
L 47.71666 41.540369 
L 43.035121 35.773696 
L 43.035121 231.118125 
L 43.034431 231.118125 
L 43.034431 35.773696 
L 38.352892 41.540369 
z
" style="stroke: #000000; stroke-linejoin: miter"/>
   </g>
   <g id="matplotlib.axis_1">
    <g id="text_1">
     <!-- Time (ms) -->
     <g transform="translate(187.901344 242.716563) scale(0.1 -0.1)">
      <defs>
       <path id="DejaVuSans-54" d="M -19 4666 
L 3928 4666 
L 3928 4134 
L 2272 4134 
L 2272 0 
L 1638 0 
L 1638 4134 
L -19 4134 
L -19 4666 
z
" transform="scale(0.015625)"/>
       <path id="DejaVuSans-69" d="M 603 3500 
L 1178 3500 
L 1178 0 
L 603 0 
L 603 3500 
z
M 603 4863 
L 1178 4863 
L 1178 4134 
L 603 4134 
L 603 4863 
z
" transform="scale(0.015625)"/>
       <path id="DejaVuSans-6d" d="M 3328 2828 
Q 3544 3216 3844 3400 
Q 4144 3584 4550 3584 
Q 5097 3584 5394 3201 
Q 5691 2819 5691 2113 
L 5691 0 
L 5113 0 
L 5113 2094 
Q 5113 2597 4934 2840 
Q 4756 3084 4391 3084 
Q 3944 3084 3684 2787 
Q 3425 2491 3425 1978 
L 3425 0 
L 2847 0 
L 2847 2094 
Q 2847 2600 2669 2842 
Q 2491 3084 2119 3084 
Q 1678 3084 1418 2786 
Q 1159 2488 1159 1978 
L 1159 0 
L 581 0 
L 581 3500 
L 1159 3500 
L 1159 2956 
Q 1356 3278 1631 3431 
Q 1906 3584 2284 3584 
Q 2666 3584 2933 3390 
Q 3200 3197 3328 2828 
z
" transform="scale(0.015625)"/>
       <path id="DejaVuSans-65" d="M 3597 1894 
L 3597 1613 
L 953 1613 
Q 991 1019 1311 708 
Q 1631 397 2203 397 
Q 2534 397 2845 478 
Q 3156 559 3463 722 
L 3463 178 
Q 3153 47 2828 -22 
Q 2503 -91 2169 -91 
Q 1331 -91 842 396 
Q 353 884 353 1716 
Q 353 2575 817 3079 
Q 1281 3584 2069 3584 
Q 2775 3584 3186 3129 
Q 3597 2675 3597 1894 
z
M 3022 2063 
Q 3016 2534 2758 2815 
Q 2500 3097 2075 3097 
Q 1594 3097 1305 2825 
Q 1016 2553 972 2059 
L 3022 2063 
z
" transform="scale(0.015625)"/>
       <path id="DejaVuSans-20" transform="scale(0.015625)"/>
       <path id="DejaVuSans-28" d="M 1984 4856 
Q 1566 4138 1362 3434 
Q 1159 2731 1159 2009 
Q 1159 1288 1364 580 
Q 1569 -128 1984 -844 
L 1484 -844 
Q 1016 -109 783 600 
Q 550 1309 550 2009 
Q 550 2706 781 3412 
Q 1013 4119 1484 4856 
L 1984 4856 
z
" transform="scale(0.015625)"/>
       <path id="DejaVuSans-73" d="M 2834 3397 
L 2834 2853 
Q 2591 2978 2328 3040 
Q 2066 3103 1784 3103 
Q 1356 3103 1142 2972 
Q 928 2841 928 2578 
Q 928 2378 1081 2264 
Q 1234 2150 1697 2047 
L 1894 2003 
Q 2506 1872 2764 1633 
Q 3022 1394 3022 966 
Q 3022 478 2636 193 
Q 2250 -91 1575 -91 
Q 1294 -91 989 -36 
Q 684 19 347 128 
L 347 722 
Q 666 556 975 473 
Q 1284 391 1588 391 
Q 1994 391 2212 530 
Q 2431 669 2431 922 
Q 2431 1156 2273 1281 
Q 2116 1406 1581 1522 
L 1381 1569 
Q 847 1681 609 1914 
Q 372 2147 372 2553 
Q 372 3047 722 3315 
Q 1072 3584 1716 3584 
Q 2034 3584 2315 3537 
Q 2597 3491 2834 3397 
z
" transform="scale(0.015625)"/>
       <path id="DejaVuSans-29" d="M 513 4856 
L 1013 4856 
Q 1481 4119 1714 3412 
Q 1947 2706 1947 2009 
Q 1947 1309 1714 600 
Q 1481 -109 1013 -844 
L 513 -844 
Q 928 -128 1133 580 
Q 1338 1288 1338 2009 
Q 1338 2731 1133 3434 
Q 928 4138 513 4856 
z
" transform="scale(0.015625)"/>
      </defs>
      <use xlink:href="#DejaVuSans-54"/>
      <use xlink:href="#DejaVuSans-69" x="57.958984"/>
      <use xlink:href="#DejaVuSans-6d" x="85.742188"/>
      <use xlink:href="#DejaVuSans-65" x="183.154297"/>
      <use xlink:href="#DejaVuSans-20" x="244.677734"/>
      <use xlink:href="#DejaVuSans-28" x="276.464844"/>
      <use xlink:href="#DejaVuSans-6d" x="315.478516"/>
      <use xlink:href="#DejaVuSans-73" x="412.890625"/>
      <use xlink:href="#DejaVuSans-29" x="464.990234"/>
     </g>
    </g>
   </g>
   <g id="matplotlib.axis_2">
    <g id="text_2">
     <!-- log-Intensity -->
     <g transform="translate(14.798438 157.907187) rotate(-90) scale(0.1 -0.1)">
      <defs>
       <path id="DejaVuSans-6c" d="M 603 4863 
L 1178 4863 
L 1178 0 
L 603 0 
L 603 4863 
z
" transform="scale(0.015625)"/>
       <path id="DejaVuSans-6f" d="M 1959 3097 
Q 1497 3097 1228 2736 
Q 959 2375 959 1747 
Q 959 1119 1226 758 
Q 1494 397 1959 397 
Q 2419 397 2687 759 
Q 2956 1122 2956 1747 
Q 2956 2369 2687 2733 
Q 2419 3097 1959 3097 
z
M 1959 3584 
Q 2709 3584 3137 3096 
Q 3566 2609 3566 1747 
Q 3566 888 3137 398 
Q 2709 -91 1959 -91 
Q 1206 -91 779 398 
Q 353 888 353 1747 
Q 353 2609 779 3096 
Q 1206 3584 1959 3584 
z
" transform="scale(0.015625)"/>
       <path id="DejaVuSans-67" d="M 2906 1791 
Q 2906 2416 2648 2759 
Q 2391 3103 1925 3103 
Q 1463 3103 1205 2759 
Q 947 2416 947 1791 
Q 947 1169 1205 825 
Q 1463 481 1925 481 
Q 2391 481 2648 825 
Q 2906 1169 2906 1791 
z
M 3481 434 
Q 3481 -459 3084 -895 
Q 2688 -1331 1869 -1331 
Q 1566 -1331 1297 -1286 
Q 1028 -1241 775 -1147 
L 775 -588 
Q 1028 -725 1275 -790 
Q 1522 -856 1778 -856 
Q 2344 -856 2625 -561 
Q 2906 -266 2906 331 
L 2906 616 
Q 2728 306 2450 153 
Q 2172 0 1784 0 
Q 1141 0 747 490 
Q 353 981 353 1791 
Q 353 2603 747 3093 
Q 1141 3584 1784 3584 
Q 2172 3584 2450 3431 
Q 2728 3278 2906 2969 
L 2906 3500 
L 3481 3500 
L 3481 434 
z
" transform="scale(0.015625)"/>
       <path id="DejaVuSans-2d" d="M 313 2009 
L 1997 2009 
L 1997 1497 
L 313 1497 
L 313 2009 
z
" transform="scale(0.015625)"/>
       <path id="DejaVuSans-49" d="M 628 4666 
L 1259 4666 
L 1259 0 
L 628 0 
L 628 4666 
z
" transform="scale(0.015625)"/>
       <path id="DejaVuSans-6e" d="M 3513 2113 
L 3513 0 
L 2938 0 
L 2938 2094 
Q 2938 2591 2744 2837 
Q 2550 3084 2163 3084 
Q 1697 3084 1428 2787 
Q 1159 2491 1159 1978 
L 1159 0 
L 581 0 
L 581 3500 
L 1159 3500 
L 1159 2956 
Q 1366 3272 1645 3428 
Q 1925 3584 2291 3584 
Q 2894 3584 3203 3211 
Q 3513 2838 3513 2113 
z
" transform="scale(0.015625)"/>
       <path id="DejaVuSans-74" d="M 1172 4494 
L 1172 3500 
L 2356 3500 
L 2356 3053 
L 1172 3053 
L 1172 1153 
Q 1172 725 1289 603 
Q 1406 481 1766 481 
L 2356 481 
L 2356 0 
L 1766 0 
Q 1100 0 847 248 
Q 594 497 594 1153 
L 594 3053 
L 172 3053 
L 172 3500 
L 594 3500 
L 594 4494 
L 1172 4494 
z
" transform="scale(0.015625)"/>
       <path id="DejaVuSans-79" d="M 2059 -325 
Q 1816 -950 1584 -1140 
Q 1353 -1331 966 -1331 
L 506 -1331 
L 506 -850 
L 844 -850 
Q 1081 -850 1212 -737 
Q 1344 -625 1503 -206 
L 1606 56 
L 191 3500 
L 800 3500 
L 1894 763 
L 2988 3500 
L 3597 3500 
L 2059 -325 
z
" transform="scale(0.015625)"/>
      </defs>
      <use xlink:href="#DejaVuSans-6c"/>
      <use xlink:href="#DejaVuSans-6f" x="27.783203"/>
      <use xlink:href="#DejaVuSans-67" x="88.964844"/>
      <use xlink:href="#DejaVuSans-2d" x="152.441406"/>
      <use xlink:href="#DejaVuSans-49" x="188.525391"/>
      <use xlink:href="#DejaVuSans-6e" x="218.017578"/>
      <use xlink:href="#DejaVuSans-74" x="281.396484"/>
      <use xlink:href="#DejaVuSans-65" x="320.605469"/>
      <use xlink:href="#DejaVuSans-6e" x="382.128906"/>
      <use xlink:href="#DejaVuSans-73" x="445.507812"/>
      <use xlink:href="#DejaVuSans-69" x="497.607422"/>
      <use xlink:href="#DejaVuSans-74" x="525.390625"/>
      <use xlink:href="#DejaVuSans-79" x="564.599609"/>
     </g>
    </g>
   </g>
   <g id="line2d_1">
    <path d="M 43.034776 80.09807 
L 43.724403 67.452534 
L 44.41403 52.716548 
L 45.103657 45.335579 
L 45.793284 42.992753 
L 46.48291 41.877292 
L 47.862164 38.014265 
L 48.551791 37.449743 
L 49.241418 38.513823 
L 49.931045 40.166128 
L 50.620672 40.955903 
L 51.310299 40.810046 
L 51.999926 40.209852 
L 52.689553 39.881821 
L 54.068807 40.864631 
L 54.758433 40.778785 
L 56.137687 42.491838 
L 56.827314 41.870546 
L 57.516941 40.941359 
L 58.206568 40.610282 
L 58.896195 41.672763 
L 59.585822 44.531559 
L 60.275449 48.093711 
L 60.965076 49.786903 
L 61.654703 48.510505 
L 62.34433 46.551387 
L 63.033956 46.166136 
L 63.723583 46.357054 
L 64.41321 45.7309 
L 65.102837 43.930245 
L 65.792464 43.547932 
L 66.482091 48.773471 
L 67.171718 60.376508 
L 67.861345 65.72284 
L 68.550972 53.785562 
L 69.240599 38.163687 
L 69.930226 30.554039 
L 70.619853 28.649774 
L 71.309479 29.146829 
L 71.999106 30.60435 
L 74.067987 33.822198 
L 74.757614 34.245369 
L 75.447241 33.75226 
L 76.136868 33.427641 
L 76.826495 34.19756 
L 77.516122 34.348849 
L 78.205749 32.959334 
L 78.895376 31.934092 
L 79.585002 32.34888 
L 80.274629 35.528331 
L 80.964256 43.764137 
L 83.033137 81.359569 
L 83.722764 87.584699 
L 84.412391 89.27798 
L 85.102018 87.756419 
L 85.791645 85.086809 
L 86.481272 83.517567 
L 87.170899 85.048891 
L 87.860525 89.222541 
L 89.929406 105.606417 
L 90.619033 107.481136 
L 91.30866 104.205566 
L 91.998287 98.417276 
L 92.687914 94.2598 
L 93.377541 88.318739 
L 94.067168 79.609419 
L 94.756795 74.917074 
L 95.446421 77.185811 
L 96.136048 83.396432 
L 96.825675 94.627126 
L 97.515302 108.015736 
L 98.204929 116.725061 
L 98.894556 119.746735 
L 99.584183 119.63792 
L 100.963437 117.483314 
L 101.653064 116.926036 
L 102.342691 117.312492 
L 103.032318 118.336172 
L 105.101198 118.606979 
L 105.790825 118.742932 
L 106.480452 118.547837 
L 107.170079 118.539045 
L 109.23896 119.140478 
L 109.928587 119.439282 
L 110.618214 119.505897 
L 111.307841 119.458994 
L 111.997467 119.64387 
L 112.687094 120.453167 
L 113.376721 120.8607 
L 114.066348 118.234705 
L 114.755975 110.03786 
L 116.135229 81.212107 
L 116.824856 71.014213 
L 117.514483 65.268668 
L 118.20411 62.658071 
L 118.893737 62.451371 
L 119.583364 64.277397 
L 120.27299 67.290842 
L 120.962617 69.491606 
L 121.652244 70.023689 
L 122.341871 68.984131 
L 123.721125 65.170641 
L 125.100379 59.566379 
L 125.790006 58.394215 
L 126.479633 59.086225 
L 127.16926 60.870441 
L 127.858887 61.924989 
L 128.548513 59.89134 
L 129.23814 54.063177 
L 129.927767 46.381637 
L 130.617394 41.315635 
L 131.307021 40.399647 
L 131.996648 43.031423 
L 132.686275 47.040176 
L 133.375902 49.627108 
L 134.755156 52.184878 
L 135.444783 53.494806 
L 136.13441 54.279917 
L 136.824036 54.752081 
L 137.513663 55.55884 
L 138.20329 56.65789 
L 138.892917 56.883051 
L 139.582544 54.687326 
L 142.341052 37.805983 
L 143.030679 37.196702 
L 143.720306 39.954226 
L 144.409932 43.665731 
L 145.099559 46.763417 
L 145.789186 49.333146 
L 147.16844 55.085181 
L 147.858067 56.860443 
L 148.547694 57.865467 
L 149.237321 57.129198 
L 149.926948 52.955757 
L 150.616575 46.568796 
L 151.306202 41.234694 
L 151.995829 40.114929 
L 152.685455 42.96752 
L 154.064709 53.342488 
L 154.754336 55.713561 
L 155.443963 54.552444 
L 156.13359 52.74238 
L 156.823217 53.674007 
L 157.512844 56.960299 
L 158.892098 64.98356 
L 159.581725 67.133586 
L 160.271352 66.460408 
L 160.960978 62.48282 
L 162.340232 49.801234 
L 163.029859 45.19737 
L 163.719486 42.537866 
L 164.409113 41.623112 
L 165.09874 41.650119 
L 166.477994 40.943442 
L 167.167621 40.740901 
L 167.857248 39.895093 
L 168.546875 39.225911 
L 169.236501 39.998982 
L 170.615755 45.220304 
L 171.305382 47.702583 
L 171.995009 49.113529 
L 172.684636 49.52668 
L 173.374263 50.906642 
L 175.443144 59.085874 
L 176.132771 60.073582 
L 176.822398 60.317097 
L 177.512024 61.089246 
L 179.580905 65.075982 
L 180.270532 65.76577 
L 180.960159 65.885086 
L 183.02904 65.467026 
L 183.718667 64.66843 
L 184.408294 62.914535 
L 185.097921 60.134194 
L 185.787547 56.773917 
L 186.477174 54.530224 
L 187.166801 54.012116 
L 187.856428 54.24451 
L 188.546055 54.030508 
L 189.235682 53.672587 
L 189.925309 54.776647 
L 190.614936 57.00468 
L 191.304563 58.632842 
L 191.99419 59.269986 
L 192.683817 60.113627 
L 193.373443 60.461262 
L 194.06307 59.528929 
L 194.752697 58.145113 
L 195.442324 57.381603 
L 197.511205 57.928417 
L 198.200832 58.238292 
L 198.890459 58.893732 
L 199.580086 60.845817 
L 201.648966 71.853319 
L 202.338593 73.609837 
L 203.02822 73.845388 
L 203.717847 72.789969 
L 204.407474 71.195649 
L 205.097101 68.845903 
L 206.476355 63.028017 
L 208.545236 57.055919 
L 209.234863 56.068793 
L 209.924489 55.29875 
L 211.303743 52.098612 
L 212.682997 47.972212 
L 213.372624 46.407475 
L 214.062251 44.542061 
L 215.441505 39.585481 
L 216.131132 38.541358 
L 216.820759 39.115313 
L 217.510386 39.441774 
L 218.200012 39.119738 
L 219.579266 39.292592 
L 221.648147 40.771498 
L 223.027401 42.413763 
L 223.717028 42.836246 
L 224.406655 42.3402 
L 225.096282 40.771225 
L 225.785909 39.523636 
L 226.475535 40.858168 
L 227.854789 46.554026 
L 228.544416 48.59818 
L 229.234043 51.97247 
L 229.92367 58.616321 
L 230.613297 66.57405 
L 231.302924 72.328017 
L 232.682178 80.679147 
L 233.371805 83.289967 
L 234.061431 81.7143 
L 234.751058 76.467334 
L 235.440685 68.943209 
L 236.130312 63.768554 
L 236.819939 63.027289 
L 237.509566 65.061637 
L 238.88882 72.428072 
L 239.578447 74.232459 
L 240.268074 73.559868 
L 240.957701 71.604789 
L 242.336954 66.681386 
L 243.026581 64.93707 
L 243.716208 63.831855 
L 244.405835 63.780325 
L 245.095462 64.789523 
L 245.785089 66.008902 
L 246.474716 67.455357 
L 247.164343 67.612395 
L 247.85397 66.278822 
L 248.543597 65.512432 
L 249.233224 65.421326 
L 249.922851 66.157877 
L 250.612477 68.27971 
L 251.302104 72.319778 
L 251.991731 77.244675 
L 252.681358 81.171355 
L 253.370985 82.02473 
L 254.060612 80.114222 
L 254.750239 77.815671 
L 255.439866 76.271111 
L 256.129493 76.253606 
L 257.508747 79.35312 
L 258.198374 79.332337 
L 258.888 76.704359 
L 259.577627 73.161791 
L 260.267254 70.236366 
L 261.646508 66.535017 
L 262.336135 65.924392 
L 263.025762 68.271121 
L 263.715389 74.539473 
L 264.405016 82.529087 
L 265.094643 87.099085 
L 265.78427 85.851432 
L 267.163523 76.089814 
L 267.85315 72.445116 
L 268.542777 70.815774 
L 269.232404 70.938967 
L 269.922031 71.410164 
L 270.611658 71.524262 
L 271.301285 71.074854 
L 271.990912 70.259354 
L 272.680539 69.077511 
L 274.059793 66.327077 
L 274.74942 65.575364 
L 275.439046 65.420637 
L 276.128673 65.460209 
L 276.8183 65.650844 
L 277.507927 66.002066 
L 278.197554 67.200917 
L 278.887181 69.061164 
L 279.576808 69.991761 
L 280.266435 70.136409 
L 281.645689 69.427579 
L 282.335316 69.645215 
L 283.714569 71.200204 
L 284.404196 70.667369 
L 285.78345 68.036897 
L 286.473077 66.161002 
L 288.541958 59.675018 
L 289.231585 59.274539 
L 289.921212 60.214361 
L 290.610839 61.479439 
L 291.990092 63.42704 
L 294.058973 68.345573 
L 294.7486 68.513393 
L 296.127854 66.711447 
L 296.817481 66.632056 
L 297.507108 67.158989 
L 298.196735 67.854175 
L 298.886362 68.34101 
L 299.575988 68.513701 
L 300.265615 68.895113 
L 300.955242 69.582479 
L 301.644869 70.676447 
L 302.334496 72.642854 
L 303.71375 77.608193 
L 304.403377 79.187437 
L 305.093004 80.078505 
L 305.782631 80.544996 
L 306.472258 80.560698 
L 307.161885 79.956582 
L 307.851511 78.03716 
L 308.541138 71.8604 
L 309.920392 46.949771 
L 310.610019 39.515915 
L 311.989273 32.432099 
L 312.6789 29.053099 
L 313.368527 28.370564 
L 314.058154 30.875072 
L 314.747781 35.322484 
L 315.437408 37.406194 
L 316.816661 36.671536 
L 317.506288 35.988653 
L 318.885542 32.367883 
L 320.264796 28.035213 
L 320.954423 28.290164 
L 322.333677 33.842898 
L 323.023304 35.354771 
L 323.712931 35.362509 
L 324.402557 34.578214 
L 325.092184 32.02936 
L 325.781811 28.641471 
L 326.471438 26.965533 
L 327.161065 26.761786 
L 327.850692 26.434275 
L 328.540319 27.969261 
L 329.229946 31.079846 
L 329.919573 31.998795 
L 330.6092 30.046255 
L 331.298827 26.957963 
L 331.988453 24.794932 
L 332.67808 23.933605 
L 333.367707 24.716249 
L 334.057334 26.683951 
L 335.436588 31.234541 
L 336.126215 32.364476 
L 336.815842 31.690017 
L 337.505469 29.930439 
L 338.195096 28.986819 
L 339.57435 29.151492 
L 340.263976 28.600029 
L 340.953603 27.463306 
L 341.64323 26.023565 
L 342.332857 25.002024 
L 343.022484 25.520486 
L 343.712111 27.332187 
L 344.401738 28.499329 
L 345.091365 28.963871 
L 345.780992 29.277038 
L 346.470619 27.819875 
L 347.160246 25.728936 
L 347.849873 25.398927 
L 348.539499 27.06036 
L 350.60838 36.606966 
L 351.298007 37.600783 
L 351.987634 36.549562 
L 352.677261 32.735038 
L 353.366888 27.530557 
L 354.056515 25.033735 
L 354.746142 25.790811 
L 355.435769 26.965625 
L 356.125396 26.172272 
L 356.815022 25.615718 
L 358.194276 25.745651 
L 358.883903 26.551642 
L 359.57353 29.608947 
L 360.263157 31.558554 
L 360.952784 31.636711 
L 361.642411 31.128507 
L 362.332038 30.345923 
L 363.021665 30.357606 
L 364.400919 34.425681 
L 365.090545 34.646595 
L 365.780172 31.795568 
L 366.469799 27.493976 
L 367.159426 24.35784 
L 367.849053 22.958839 
L 368.53868 22.467201 
L 369.228307 23.117899 
L 369.917934 25.274189 
L 370.607561 28.600168 
L 371.297188 31.338951 
L 371.986815 32.240449 
L 373.366068 31.429214 
L 374.055695 32.20247 
L 374.745322 32.387794 
L 375.434949 31.300014 
L 376.124576 31.064512 
L 376.814203 31.699248 
L 377.50383 31.589669 
L 378.193457 32.895407 
L 378.883084 35.51303 
L 379.572711 37.132425 
L 380.262338 36.838522 
L 380.951964 35.211675 
L 381.641591 31.738857 
L 382.331218 26.310205 
L 383.020845 22.318125 
L 383.710472 22.724837 
L 385.089726 27.33253 
L 386.46898 35.606496 
L 387.158607 35.61267 
L 387.158607 35.61267 
" clip-path="url(#p197d93887a)" style="fill: none; stroke: #1f77b4; stroke-width: 1.5; stroke-linecap: square"/>
   </g>
   <g id="line2d_2">
    <path d="M 43.034776 231.118125 
L 43.034776 22.318125 
" clip-path="url(#p197d93887a)" style="fill: none; stroke-dasharray: 0.74,0.32; stroke-dashoffset: 0; stroke: #000000; stroke-width: 0.2"/>
   </g>
   <g id="line2d_3">
    <defs>
     <path id="m384a0ba4be" d="M 0 3 
C 0.795609 3 1.55874 2.683901 2.12132 2.12132 
C 2.683901 1.55874 3 0.795609 3 0 
C 3 -0.795609 2.683901 -1.55874 2.12132 -2.12132 
C 1.55874 -2.683901 0.795609 -3 0 -3 
C -0.795609 -3 -1.55874 -2.683901 -2.12132 -2.12132 
C -2.683901 -1.55874 -3 -0.795609 -3 0 
C -3 0.795609 -2.683901 1.55874 -2.12132 2.12132 
C -1.55874 2.683901 -0.795609 3 0 3 
z
" style="stroke: #ff4500"/>
    </defs>
    <g clip-path="url(#p197d93887a)">
     <use xlink:href="#m384a0ba4be" x="43.034776" y="80.09807" style="fill-opacity: 0; stroke: #ff4500"/>
    </g>
   </g>
   <g id="line2d_4">
    <path d="M 54.068807 231.118125 
L 54.068807 22.318125 
" clip-path="url(#p197d93887a)" style="fill: none; stroke-dasharray: 0.74,0.32; stroke-dashoffset: 0; stroke: #000000; stroke-width: 0.2"/>
   </g>
   <g id="line2d_5">
    <g clip-path="url(#p197d93887a)">
     <use xlink:href="#m384a0ba4be" x="54.068807" y="40.864631" style="fill-opacity: 0; stroke: #ff4500"/>
    </g>
   </g>
   <g id="line2d_6">
    <path d="M 65.102837 231.118125 
L 65.102837 22.318125 
" clip-path="url(#p197d93887a)" style="fill: none; stroke-dasharray: 0.74,0.32; stroke-dashoffset: 0; stroke: #000000; stroke-width: 0.2"/>
   </g>
   <g id="line2d_7">
    <g clip-path="url(#p197d93887a)">
     <use xlink:href="#m384a0ba4be" x="65.102837" y="43.930245" style="fill-opacity: 0; stroke: #ff4500"/>
    </g>
   </g>
   <g id="line2d_8">
    <path d="M 76.826495 231.118125 
L 76.826495 22.318125 
" clip-path="url(#p197d93887a)" style="fill: none; stroke-dasharray: 0.74,0.32; stroke-dashoffset: 0; stroke: #000000; stroke-width: 0.2"/>
   </g>
   <g id="line2d_9">
    <g clip-path="url(#p197d93887a)">
     <use xlink:href="#m384a0ba4be" x="76.826495" y="34.19756" style="fill-opacity: 0; stroke: #ff4500"/>
    </g>
   </g>
   <g id="line2d_10">
    <path d="M 87.860525 231.118125 
L 87.860525 22.318125 
" clip-path="url(#p197d93887a)" style="fill: none; stroke-dasharray: 0.74,0.32; stroke-dashoffset: 0; stroke: #000000; stroke-width: 0.2"/>
   </g>
   <g id="line2d_11">
    <g clip-path="url(#p197d93887a)">
     <use xlink:href="#m384a0ba4be" x="87.860525" y="89.222541" style="fill-opacity: 0; stroke: #ff4500"/>
    </g>
   </g>
   <g id="line2d_12">
    <path d="M 98.894556 231.118125 
L 98.894556 22.318125 
" clip-path="url(#p197d93887a)" style="fill: none; stroke-dasharray: 0.74,0.32; stroke-dashoffset: 0; stroke: #000000; stroke-width: 0.2"/>
   </g>
   <g id="line2d_13">
    <g clip-path="url(#p197d93887a)">
     <use xlink:href="#m384a0ba4be" x="98.894556" y="119.746735" style="fill-opacity: 0; stroke: #ff4500"/>
    </g>
   </g>
   <g id="line2d_14">
    <path d="M 110.618214 231.118125 
L 110.618214 22.318125 
" clip-path="url(#p197d93887a)" style="fill: none; stroke-dasharray: 0.74,0.32; stroke-dashoffset: 0; stroke: #000000; stroke-width: 0.2"/>
   </g>
   <g id="line2d_15">
    <g clip-path="url(#p197d93887a)">
     <use xlink:href="#m384a0ba4be" x="110.618214" y="119.505897" style="fill-opacity: 0; stroke: #ff4500"/>
    </g>
   </g>
   <g id="line2d_16">
    <path d="M 121.652244 231.118125 
L 121.652244 22.318125 
" clip-path="url(#p197d93887a)" style="fill: none; stroke-dasharray: 0.74,0.32; stroke-dashoffset: 0; stroke: #000000; stroke-width: 0.2"/>
   </g>
   <g id="line2d_17">
    <g clip-path="url(#p197d93887a)">
     <use xlink:href="#m384a0ba4be" x="121.652244" y="70.023689" style="fill-opacity: 0; stroke: #ff4500"/>
    </g>
   </g>
   <g id="line2d_18">
    <path d="M 133.375902 231.118125 
L 133.375902 22.318125 
" clip-path="url(#p197d93887a)" style="fill: none; stroke-dasharray: 0.74,0.32; stroke-dashoffset: 0; stroke: #000000; stroke-width: 0.2"/>
   </g>
   <g id="line2d_19">
    <g clip-path="url(#p197d93887a)">
     <use xlink:href="#m384a0ba4be" x="133.375902" y="49.627108" style="fill-opacity: 0; stroke: #ff4500"/>
    </g>
   </g>
   <g id="line2d_20">
    <path d="M 144.409932 231.118125 
L 144.409932 22.318125 
" clip-path="url(#p197d93887a)" style="fill: none; stroke-dasharray: 0.74,0.32; stroke-dashoffset: 0; stroke: #000000; stroke-width: 0.2"/>
   </g>
   <g id="line2d_21">
    <g clip-path="url(#p197d93887a)">
     <use xlink:href="#m384a0ba4be" x="144.409932" y="43.665731" style="fill-opacity: 0; stroke: #ff4500"/>
    </g>
   </g>
   <g id="line2d_22">
    <path d="M 155.443963 231.118125 
L 155.443963 22.318125 
" clip-path="url(#p197d93887a)" style="fill: none; stroke-dasharray: 0.74,0.32; stroke-dashoffset: 0; stroke: #000000; stroke-width: 0.2"/>
   </g>
   <g id="line2d_23">
    <g clip-path="url(#p197d93887a)">
     <use xlink:href="#m384a0ba4be" x="155.443963" y="54.552444" style="fill-opacity: 0; stroke: #ff4500"/>
    </g>
   </g>
   <g id="line2d_24">
    <path d="M 167.167621 231.118125 
L 167.167621 22.318125 
" clip-path="url(#p197d93887a)" style="fill: none; stroke-dasharray: 0.74,0.32; stroke-dashoffset: 0; stroke: #000000; stroke-width: 0.2"/>
   </g>
   <g id="line2d_25">
    <g clip-path="url(#p197d93887a)">
     <use xlink:href="#m384a0ba4be" x="167.167621" y="40.740901" style="fill-opacity: 0; stroke: #ff4500"/>
    </g>
   </g>
   <g id="line2d_26">
    <path d="M 178.201651 231.118125 
L 178.201651 22.318125 
" clip-path="url(#p197d93887a)" style="fill: none; stroke-dasharray: 0.74,0.32; stroke-dashoffset: 0; stroke: #000000; stroke-width: 0.2"/>
   </g>
   <g id="line2d_27">
    <g clip-path="url(#p197d93887a)">
     <use xlink:href="#m384a0ba4be" x="178.201651" y="62.446738" style="fill-opacity: 0; stroke: #ff4500"/>
    </g>
   </g>
   <g id="line2d_28">
    <path d="M 189.235682 231.118125 
L 189.235682 22.318125 
" clip-path="url(#p197d93887a)" style="fill: none; stroke-dasharray: 0.74,0.32; stroke-dashoffset: 0; stroke: #000000; stroke-width: 0.2"/>
   </g>
   <g id="line2d_29">
    <g clip-path="url(#p197d93887a)">
     <use xlink:href="#m384a0ba4be" x="189.235682" y="53.672587" style="fill-opacity: 0; stroke: #ff4500"/>
    </g>
   </g>
   <g id="line2d_30">
    <path d="M 200.95934 231.118125 
L 200.95934 22.318125 
" clip-path="url(#p197d93887a)" style="fill: none; stroke-dasharray: 0.74,0.32; stroke-dashoffset: 0; stroke: #000000; stroke-width: 0.2"/>
   </g>
   <g id="line2d_31">
    <g clip-path="url(#p197d93887a)">
     <use xlink:href="#m384a0ba4be" x="200.95934" y="68.797077" style="fill-opacity: 0; stroke: #ff4500"/>
    </g>
   </g>
   <g id="line2d_32">
    <path d="M 211.99337 231.118125 
L 211.99337 22.318125 
" clip-path="url(#p197d93887a)" style="fill: none; stroke-dasharray: 0.74,0.32; stroke-dashoffset: 0; stroke: #000000; stroke-width: 0.2"/>
   </g>
   <g id="line2d_33">
    <g clip-path="url(#p197d93887a)">
     <use xlink:href="#m384a0ba4be" x="211.99337" y="49.949033" style="fill-opacity: 0; stroke: #ff4500"/>
    </g>
   </g>
   <g id="line2d_34">
    <path d="M 223.717028 231.118125 
L 223.717028 22.318125 
" clip-path="url(#p197d93887a)" style="fill: none; stroke-dasharray: 0.74,0.32; stroke-dashoffset: 0; stroke: #000000; stroke-width: 0.2"/>
   </g>
   <g id="line2d_35">
    <g clip-path="url(#p197d93887a)">
     <use xlink:href="#m384a0ba4be" x="223.717028" y="42.836246" style="fill-opacity: 0; stroke: #ff4500"/>
    </g>
   </g>
   <g id="line2d_36">
    <path d="M 234.751058 231.118125 
L 234.751058 22.318125 
" clip-path="url(#p197d93887a)" style="fill: none; stroke-dasharray: 0.74,0.32; stroke-dashoffset: 0; stroke: #000000; stroke-width: 0.2"/>
   </g>
   <g id="line2d_37">
    <g clip-path="url(#p197d93887a)">
     <use xlink:href="#m384a0ba4be" x="234.751058" y="76.467334" style="fill-opacity: 0; stroke: #ff4500"/>
    </g>
   </g>
   <g id="line2d_38">
    <path d="M 245.785089 231.118125 
L 245.785089 22.318125 
" clip-path="url(#p197d93887a)" style="fill: none; stroke-dasharray: 0.74,0.32; stroke-dashoffset: 0; stroke: #000000; stroke-width: 0.2"/>
   </g>
   <g id="line2d_39">
    <g clip-path="url(#p197d93887a)">
     <use xlink:href="#m384a0ba4be" x="245.785089" y="66.008902" style="fill-opacity: 0; stroke: #ff4500"/>
    </g>
   </g>
   <g id="line2d_40">
    <path d="M 257.508747 231.118125 
L 257.508747 22.318125 
" clip-path="url(#p197d93887a)" style="fill: none; stroke-dasharray: 0.74,0.32; stroke-dashoffset: 0; stroke: #000000; stroke-width: 0.2"/>
   </g>
   <g id="line2d_41">
    <g clip-path="url(#p197d93887a)">
     <use xlink:href="#m384a0ba4be" x="257.508747" y="79.35312" style="fill-opacity: 0; stroke: #ff4500"/>
    </g>
   </g>
   <g id="line2d_42">
    <path d="M 268.542777 231.118125 
L 268.542777 22.318125 
" clip-path="url(#p197d93887a)" style="fill: none; stroke-dasharray: 0.74,0.32; stroke-dashoffset: 0; stroke: #000000; stroke-width: 0.2"/>
   </g>
   <g id="line2d_43">
    <g clip-path="url(#p197d93887a)">
     <use xlink:href="#m384a0ba4be" x="268.542777" y="70.815774" style="fill-opacity: 0; stroke: #ff4500"/>
    </g>
   </g>
   <g id="line2d_44">
    <path d="M 279.576808 231.118125 
L 279.576808 22.318125 
" clip-path="url(#p197d93887a)" style="fill: none; stroke-dasharray: 0.74,0.32; stroke-dashoffset: 0; stroke: #000000; stroke-width: 0.2"/>
   </g>
   <g id="line2d_45">
    <g clip-path="url(#p197d93887a)">
     <use xlink:href="#m384a0ba4be" x="279.576808" y="69.991761" style="fill-opacity: 0; stroke: #ff4500"/>
    </g>
   </g>
   <g id="line2d_46">
    <path d="M 291.300465 231.118125 
L 291.300465 22.318125 
" clip-path="url(#p197d93887a)" style="fill: none; stroke-dasharray: 0.74,0.32; stroke-dashoffset: 0; stroke: #000000; stroke-width: 0.2"/>
   </g>
   <g id="line2d_47">
    <g clip-path="url(#p197d93887a)">
     <use xlink:href="#m384a0ba4be" x="291.300465" y="62.419371" style="fill-opacity: 0; stroke: #ff4500"/>
    </g>
   </g>
   <g id="line2d_48">
    <path d="M 302.334496 231.118125 
L 302.334496 22.318125 
" clip-path="url(#p197d93887a)" style="fill: none; stroke-dasharray: 0.74,0.32; stroke-dashoffset: 0; stroke: #000000; stroke-width: 0.2"/>
   </g>
   <g id="line2d_49">
    <g clip-path="url(#p197d93887a)">
     <use xlink:href="#m384a0ba4be" x="302.334496" y="72.642854" style="fill-opacity: 0; stroke: #ff4500"/>
    </g>
   </g>
   <g id="line2d_50">
    <path d="M 314.058154 231.118125 
L 314.058154 22.318125 
" clip-path="url(#p197d93887a)" style="fill: none; stroke-dasharray: 0.74,0.32; stroke-dashoffset: 0; stroke: #000000; stroke-width: 0.2"/>
   </g>
   <g id="line2d_51">
    <g clip-path="url(#p197d93887a)">
     <use xlink:href="#m384a0ba4be" x="314.058154" y="30.875072" style="fill-opacity: 0; stroke: #ff4500"/>
    </g>
   </g>
   <g id="line2d_52">
    <path d="M 325.092184 231.118125 
L 325.092184 22.318125 
" clip-path="url(#p197d93887a)" style="fill: none; stroke-dasharray: 0.74,0.32; stroke-dashoffset: 0; stroke: #000000; stroke-width: 0.2"/>
   </g>
   <g id="line2d_53">
    <g clip-path="url(#p197d93887a)">
     <use xlink:href="#m384a0ba4be" x="325.092184" y="32.02936" style="fill-opacity: 0; stroke: #ff4500"/>
    </g>
   </g>
   <g id="line2d_54">
    <path d="M 336.126215 231.118125 
L 336.126215 22.318125 
" clip-path="url(#p197d93887a)" style="fill: none; stroke-dasharray: 0.74,0.32; stroke-dashoffset: 0; stroke: #000000; stroke-width: 0.2"/>
   </g>
   <g id="line2d_55">
    <g clip-path="url(#p197d93887a)">
     <use xlink:href="#m384a0ba4be" x="336.126215" y="32.364476" style="fill-opacity: 0; stroke: #ff4500"/>
    </g>
   </g>
   <g id="line2d_56">
    <path d="M 347.849873 231.118125 
L 347.849873 22.318125 
" clip-path="url(#p197d93887a)" style="fill: none; stroke-dasharray: 0.74,0.32; stroke-dashoffset: 0; stroke: #000000; stroke-width: 0.2"/>
   </g>
   <g id="line2d_57">
    <g clip-path="url(#p197d93887a)">
     <use xlink:href="#m384a0ba4be" x="347.849873" y="25.398927" style="fill-opacity: 0; stroke: #ff4500"/>
    </g>
   </g>
   <g id="line2d_58">
    <path d="M 358.883903 231.118125 
L 358.883903 22.318125 
" clip-path="url(#p197d93887a)" style="fill: none; stroke-dasharray: 0.74,0.32; stroke-dashoffset: 0; stroke: #000000; stroke-width: 0.2"/>
   </g>
   <g id="line2d_59">
    <g clip-path="url(#p197d93887a)">
     <use xlink:href="#m384a0ba4be" x="358.883903" y="26.551642" style="fill-opacity: 0; stroke: #ff4500"/>
    </g>
   </g>
   <g id="line2d_60">
    <path d="M 370.607561 231.118125 
L 370.607561 22.318125 
" clip-path="url(#p197d93887a)" style="fill: none; stroke-dasharray: 0.74,0.32; stroke-dashoffset: 0; stroke: #000000; stroke-width: 0.2"/>
   </g>
   <g id="line2d_61">
    <g clip-path="url(#p197d93887a)">
     <use xlink:href="#m384a0ba4be" x="370.607561" y="28.600168" style="fill-opacity: 0; stroke: #ff4500"/>
    </g>
   </g>
   <g id="text_3">
    <!-- Frame-based signal -->
    <g transform="translate(154.473063 16.318125) scale(0.12 -0.12)">
     <defs>
      <path id="DejaVuSans-46" d="M 628 4666 
L 3309 4666 
L 3309 4134 
L 1259 4134 
L 1259 2759 
L 3109 2759 
L 3109 2228 
L 1259 2228 
L 1259 0 
L 628 0 
L 628 4666 
z
" transform="scale(0.015625)"/>
      <path id="DejaVuSans-72" d="M 2631 2963 
Q 2534 3019 2420 3045 
Q 2306 3072 2169 3072 
Q 1681 3072 1420 2755 
Q 1159 2438 1159 1844 
L 1159 0 
L 581 0 
L 581 3500 
L 1159 3500 
L 1159 2956 
Q 1341 3275 1631 3429 
Q 1922 3584 2338 3584 
Q 2397 3584 2469 3576 
Q 2541 3569 2628 3553 
L 2631 2963 
z
" transform="scale(0.015625)"/>
      <path id="DejaVuSans-61" d="M 2194 1759 
Q 1497 1759 1228 1600 
Q 959 1441 959 1056 
Q 959 750 1161 570 
Q 1363 391 1709 391 
Q 2188 391 2477 730 
Q 2766 1069 2766 1631 
L 2766 1759 
L 2194 1759 
z
M 3341 1997 
L 3341 0 
L 2766 0 
L 2766 531 
Q 2569 213 2275 61 
Q 1981 -91 1556 -91 
Q 1019 -91 701 211 
Q 384 513 384 1019 
Q 384 1609 779 1909 
Q 1175 2209 1959 2209 
L 2766 2209 
L 2766 2266 
Q 2766 2663 2505 2880 
Q 2244 3097 1772 3097 
Q 1472 3097 1187 3025 
Q 903 2953 641 2809 
L 641 3341 
Q 956 3463 1253 3523 
Q 1550 3584 1831 3584 
Q 2591 3584 2966 3190 
Q 3341 2797 3341 1997 
z
" transform="scale(0.015625)"/>
      <path id="DejaVuSans-62" d="M 3116 1747 
Q 3116 2381 2855 2742 
Q 2594 3103 2138 3103 
Q 1681 3103 1420 2742 
Q 1159 2381 1159 1747 
Q 1159 1113 1420 752 
Q 1681 391 2138 391 
Q 2594 391 2855 752 
Q 3116 1113 3116 1747 
z
M 1159 2969 
Q 1341 3281 1617 3432 
Q 1894 3584 2278 3584 
Q 2916 3584 3314 3078 
Q 3713 2572 3713 1747 
Q 3713 922 3314 415 
Q 2916 -91 2278 -91 
Q 1894 -91 1617 61 
Q 1341 213 1159 525 
L 1159 0 
L 581 0 
L 581 4863 
L 1159 4863 
L 1159 2969 
z
" transform="scale(0.015625)"/>
      <path id="DejaVuSans-64" d="M 2906 2969 
L 2906 4863 
L 3481 4863 
L 3481 0 
L 2906 0 
L 2906 525 
Q 2725 213 2448 61 
Q 2172 -91 1784 -91 
Q 1150 -91 751 415 
Q 353 922 353 1747 
Q 353 2572 751 3078 
Q 1150 3584 1784 3584 
Q 2172 3584 2448 3432 
Q 2725 3281 2906 2969 
z
M 947 1747 
Q 947 1113 1208 752 
Q 1469 391 1925 391 
Q 2381 391 2643 752 
Q 2906 1113 2906 1747 
Q 2906 2381 2643 2742 
Q 2381 3103 1925 3103 
Q 1469 3103 1208 2742 
Q 947 2381 947 1747 
z
" transform="scale(0.015625)"/>
     </defs>
     <use xlink:href="#DejaVuSans-46"/>
     <use xlink:href="#DejaVuSans-72" x="50.269531"/>
     <use xlink:href="#DejaVuSans-61" x="91.382812"/>
     <use xlink:href="#DejaVuSans-6d" x="152.662109"/>
     <use xlink:href="#DejaVuSans-65" x="250.074219"/>
     <use xlink:href="#DejaVuSans-2d" x="311.597656"/>
     <use xlink:href="#DejaVuSans-62" x="347.681641"/>
     <use xlink:href="#DejaVuSans-61" x="411.158203"/>
     <use xlink:href="#DejaVuSans-73" x="472.4375"/>
     <use xlink:href="#DejaVuSans-65" x="524.537109"/>
     <use xlink:href="#DejaVuSans-64" x="586.060547"/>
     <use xlink:href="#DejaVuSans-20" x="649.537109"/>
     <use xlink:href="#DejaVuSans-73" x="681.324219"/>
     <use xlink:href="#DejaVuSans-69" x="733.423828"/>
     <use xlink:href="#DejaVuSans-67" x="761.207031"/>
     <use xlink:href="#DejaVuSans-6e" x="824.683594"/>
     <use xlink:href="#DejaVuSans-61" x="888.0625"/>
     <use xlink:href="#DejaVuSans-6c" x="949.341797"/>
    </g>
   </g>
  </g>
 </g>
 <defs>
  <clipPath id="p197d93887a">
   <rect x="20.878125" y="22.318125" width="384.444876" height="208.8"/>
  </clipPath>
 </defs>
</svg>
